robomatn.ufo
<glyph name="exclam" format="2">
  <advance width="556"/>
  <unicode hex="0021"/>
  <outline>
    <contour>
      <point x="182" y="1381" type="line"/>
      <point x="379" y="1381" type="line"/>
      <point x="353" y="438" type="line"/>
      <point x="208" y="438" type="line"/>
    </contour>
    <contour>
      <point x="145" y="134" type="qcurve" smooth="yes"/>
      <point x="145" y="189"/>
      <point x="223" y="268"/>
      <point x="278" y="268" type="qcurve" smooth="yes"/>
      <point x="333" y="268"/>
      <point x="411" y="189"/>
      <point x="411" y="134" type="qcurve" smooth="yes"/>
      <point x="411" y="79"/>
      <point x="333" y="1"/>
      <point x="278" y="1" type="qcurve" smooth="yes"/>
      <point x="223" y="1"/>
      <point x="145" y="77"/>
    </contour>
  </outline>
</glyph>
<glyph name="numbersign" format="2">
  <advance width="1261"/>
  <unicode hex="0023"/>
  <outline>
    <contour>
      <point x="279" y="0" type="line"/>
      <point x="359" y="410" type="line"/>
      <point x="119" y="410" type="line"/>
      <point x="119" y="548" type="line"/>
      <point x="386" y="548" type="line"/>
      <point x="454" y="901" type="line"/>
      <point x="195" y="901" type="line"/>
      <point x="195" y="1040" type="line"/>
      <point x="481" y="1040" type="line"/>
      <point x="562" y="1456" type="line"/>
      <point x="706" y="1456" type="line"/>
      <point x="625" y="1040" type="line"/>
      <point x="889" y="1040" type="line"/>
      <point x="970" y="1456" type="line"/>
      <point x="1113" y="1456" type="line"/>
      <point x="1032" y="1040" type="line"/>
      <point x="1235" y="1040" type="line"/>
      <point x="1235" y="901" type="line"/>
      <point x="1005" y="901" type="line"/>
      <point x="936" y="548" type="line"/>
      <point x="1160" y="548" type="line"/>
      <point x="1160" y="410" type="line"/>
      <point x="909" y="410" type="line"/>
      <point x="829" y="0" type="line"/>
      <point x="686" y="0" type="line"/>
      <point x="766" y="410" type="line"/>
      <point x="502" y="410" type="line"/>
      <point x="422" y="0" type="line"/>
    </contour>
    <contour>
      <point x="529" y="548" type="line"/>
      <point x="793" y="548" type="line"/>
      <point x="862" y="901" type="line"/>
      <point x="598" y="901" type="line"/>
    </contour>
  </outline>
</glyph>
<glyph name="percent" format="2">
  <advance width="1500"/>
  <unicode hex="0025"/>
  <outline>
    <contour>
      <point x="105" y="1099" type="qcurve" smooth="yes"/>
      <point x="105" y="1176" type="line" smooth="yes"/>
      <point x="105" y="1259"/>
      <point x="177" y="1395"/>
      <point x="311" y="1477"/>
      <point x="403" y="1477" type="qcurve" smooth="yes"/>
      <point x="497" y="1477"/>
      <point x="630" y="1395"/>
      <point x="702" y="1259"/>
      <point x="702" y="1176" type="qcurve" smooth="yes"/>
      <point x="702" y="1099" type="line" smooth="yes"/>
      <point x="702" y="1018"/>
      <point x="631" y="882"/>
      <point x="498" y="800"/>
      <point x="405" y="800" type="qcurve" smooth="yes"/>
      <point x="312" y="800"/>
      <point x="177" y="882"/>
      <point x="105" y="1018"/>
    </contour>
    <contour>
      <point x="244" y="1176" type="qcurve" smooth="yes"/>
      <point x="244" y="1099" type="line" smooth="yes"/>
      <point x="244" y="1030"/>
      <point x="323" y="920"/>
      <point x="405" y="920" type="qcurve" smooth="yes"/>
      <point x="485" y="920"/>
      <point x="563" y="1029"/>
      <point x="563" y="1099" type="qcurve" smooth="yes"/>
      <point x="563" y="1176" type="line" smooth="yes"/>
      <point x="563" y="1247"/>
      <point x="484" y="1357"/>
      <point x="403" y="1357" type="qcurve" smooth="yes"/>
      <point x="323" y="1357"/>
      <point x="244" y="1247"/>
    </contour>
    <contour>
      <point x="1158" y="1249" type="line"/>
      <point x="447" y="111" type="line"/>
      <point x="343" y="177" type="line"/>
      <point x="1054" y="1315" type="line"/>
    </contour>
    <contour>
      <point x="814" y="279" type="qcurve" smooth="yes"/>
      <point x="814" y="357" type="line" smooth="yes"/>
      <point x="814" y="439"/>
      <point x="886" y="575"/>
      <point x="1020" y="657"/>
      <point x="1112" y="657" type="qcurve" smooth="yes"/>
      <point x="1206" y="657"/>
      <point x="1339" y="575"/>
      <point x="1411" y="439"/>
      <point x="1411" y="357" type="qcurve" smooth="yes"/>
      <point x="1411" y="279" type="line" smooth="yes"/>
      <point x="1411" y="197"/>
      <point x="1340" y="61"/>
      <point x="1207" y="-21"/>
      <point x="1114" y="-21" type="qcurve" smooth="yes"/>
      <point x="1021" y="-21"/>
      <point x="887" y="61"/>
      <point x="814" y="197"/>
    </contour>
    <contour>
      <point x="953" y="357" type="qcurve" smooth="yes"/>
      <point x="953" y="279" type="line" smooth="yes"/>
      <point x="953" y="209"/>
      <point x="1032" y="99"/>
      <point x="1114" y="99" type="qcurve" smooth="yes"/>
      <point x="1195" y="99"/>
      <point x="1273" y="209"/>
      <point x="1273" y="279" type="qcurve" smooth="yes"/>
      <point x="1273" y="357" type="line" smooth="yes"/>
      <point x="1273" y="428"/>
      <point x="1194" y="537"/>
      <point x="1112" y="537" type="qcurve" smooth="yes"/>
      <point x="1032" y="537"/>
      <point x="953" y="428"/>
    </contour>
  </outline>
</glyph>
<glyph name="ampersand" format="2">
  <advance width="1274"/>
  <unicode hex="0026"/>
  <outline>
    <contour>
      <point x="1045" y="0" type="line"/>
      <point x="949" y="115" type="line"/>
      <point x="874" y="48"/>
      <point x="672" y="-20"/>
      <point x="572" y="-20" type="qcurve" smooth="yes"/>
      <point x="427" y="-20"/>
      <point x="216" y="86"/>
      <point x="102" y="272"/>
      <point x="102" y="392" type="qcurve" smooth="yes"/>
      <point x="102" y="522"/>
      <point x="259" y="701"/>
      <point x="384" y="789" type="qcurve"/>
      <point x="309" y="879"/>
      <point x="220" y="1037"/>
      <point x="220" y="1123" type="qcurve" smooth="yes"/>
      <point x="220" y="1293"/>
      <point x="420" y="1476"/>
      <point x="585" y="1476" type="qcurve" smooth="yes"/>
      <point x="692" y="1476"/>
      <point x="847" y="1391"/>
      <point x="931" y="1252"/>
      <point x="931" y="1169" type="qcurve" smooth="yes"/>
      <point x="931" y="1063"/>
      <point x="821" y="917"/>
      <point x="733" y="852" type="qcurve" smooth="yes"/>
      <point x="624" y="771" type="line"/>
      <point x="948" y="383" type="line"/>
      <point x="980" y="444"/>
      <point x="1016" y="589"/>
      <point x="1016" y="672" type="qcurve"/>
      <point x="1182" y="672" type="line"/>
      <point x="1182" y="548"/>
      <point x="1122" y="335"/>
      <point x="1059" y="249" type="qcurve"/>
      <point x="1267" y="0" type="line"/>
    </contour>
    <contour>
      <point x="406" y="1129" type="qcurve" smooth="yes"/>
      <point x="406" y="1074"/>
      <point x="471" y="955"/>
      <point x="524" y="889" type="qcurve"/>
      <point x="628" y="963" type="line" smooth="yes"/>
      <point x="691" y="1006"/>
      <point x="760" y="1093"/>
      <point x="760" y="1169" type="qcurve" smooth="yes"/>
      <point x="760" y="1228"/>
      <point x="668" y="1325"/>
      <point x="584" y="1325" type="qcurve" smooth="yes"/>
      <point x="496" y="1325"/>
      <point x="406" y="1208"/>
    </contour>
    <contour>
      <point x="287" y="392" type="qcurve" smooth="yes"/>
      <point x="287" y="286"/>
      <point x="427" y="132"/>
      <point x="572" y="132" type="qcurve" smooth="yes"/>
      <point x="720" y="132"/>
      <point x="841" y="243" type="qcurve"/>
      <point x="486" y="668" type="line"/>
      <point x="444" y="637" type="line" smooth="yes"/>
      <point x="372" y="584"/>
      <point x="306" y="488"/>
      <point x="287" y="414"/>
    </contour>
  </outline>
</glyph>
<glyph name="parenright" format="2">
  <advance width="700"/>
  <unicode hex="0029"/>
  <outline>
    <contour>
      <point x="388" y="591" type="qcurve" smooth="yes"/>
      <point x="388" y="779"/>
      <point x="309" y="1140"/>
      <point x="153" y="1434"/>
      <point x="39" y="1521" type="qcurve"/>
      <point x="77" y="1643" type="line"/>
      <point x="188" y="1583"/>
      <point x="368" y="1369"/>
      <point x="497" y="1088"/>
      <point x="567" y="762"/>
      <point x="567" y="591" type="qcurve" smooth="yes"/>
      <point x="567" y="420"/>
      <point x="497" y="94"/>
      <point x="368" y="-187"/>
      <point x="188" y="-401"/>
      <point x="77" y="-461" type="qcurve"/>
      <point x="39" y="-339" type="line"/>
      <point x="153" y="-252"/>
      <point x="309" y="42"/>
      <point x="388" y="403"/>
    </contour>
  </outline>
</glyph>
<glyph name="plus" format="2">
  <advance width="1098"/>
  <unicode hex="002B"/>
  <outline>
    <contour>
      <point x="625" y="444" type="line"/>
      <point x="625" y="72" type="line"/>
      <point x="473" y="72" type="line"/>
      <point x="473" y="444" type="line"/>
      <point x="140" y="444" type="line"/>
      <point x="140" y="596" type="line"/>
      <point x="473" y="596" type="line"/>
      <point x="473" y="940" type="line"/>
      <point x="625" y="940" type="line"/>
      <point x="625" y="596" type="line"/>
      <point x="958" y="596" type="line"/>
      <point x="958" y="444" type="line"/>
    </contour>
  </outline>
</glyph>
<glyph name="comma" format="2">
  <advance width="403"/>
  <unicode hex="002C"/>
  <outline>
    <contour>
      <point x="309" y="220" type="line"/>
      <point x="309" y="71" type="line" smooth="yes"/>
      <point x="309" y="-20"/>
      <point x="217" y="-223"/>
      <point x="134" y="-291" type="qcurve"/>
      <point x="29" y="-218" type="line"/>
      <point x="76" y="-152"/>
      <point x="128" y="-13"/>
      <point x="128" y="68" type="qcurve" smooth="yes"/>
      <point x="128" y="220" type="line"/>
    </contour>
  </outline>
</glyph>
<glyph name="period" format="2">
  <advance width="556"/>
  <unicode hex="002E"/>
  <outline>
    <contour>
      <point x="145" y="133" type="qcurve" smooth="yes"/>
      <point x="145" y="188"/>
      <point x="223" y="267"/>
      <point x="278" y="267" type="qcurve" smooth="yes"/>
      <point x="333" y="267"/>
      <point x="411" y="188"/>
      <point x="411" y="133" type="qcurve" smooth="yes"/>
      <point x="411" y="78"/>
      <point x="333" y="0"/>
      <point x="278" y="0" type="qcurve" smooth="yes"/>
      <point x="223" y="0"/>
      <point x="145" y="76"/>
    </contour>
  </outline>
</glyph>
<glyph name="zero" format="2">
  <advance width="1151"/>
  <unicode hex="0030"/>
  <outline>
    <contour>
      <point x="1035" y="844" type="qcurve" smooth="yes"/>
      <point x="1035" y="622" type="line" smooth="yes"/>
      <point x="1035" y="384"/>
      <point x="923" y="102"/>
      <point x="717" y="-20"/>
      <point x="576" y="-20" type="qcurve" smooth="yes"/>
      <point x="437" y="-20"/>
      <point x="229" y="102"/>
      <point x="115" y="384"/>
      <point x="115" y="622" type="qcurve" smooth="yes"/>
      <point x="115" y="844" type="line" smooth="yes"/>
      <point x="115" y="1082"/>
      <point x="228" y="1358"/>
      <point x="435" y="1476"/>
      <point x="574" y="1476" type="qcurve" smooth="yes"/>
      <point x="715" y="1476"/>
      <point x="922" y="1358"/>
      <point x="1035" y="1082"/>
    </contour>
    <contour>
      <point x="849" y="592" type="qcurve" smooth="yes"/>
      <point x="849" y="875" type="line" smooth="yes"/>
      <point x="849" y="1121"/>
      <point x="709" y="1325"/>
      <point x="574" y="1325" type="qcurve" smooth="yes"/>
      <point x="442" y="1325"/>
      <point x="301" y="1121"/>
      <point x="301" y="875" type="qcurve" smooth="yes"/>
      <point x="301" y="592" type="line" smooth="yes"/>
      <point x="301" y="348"/>
      <point x="444" y="132"/>
      <point x="576" y="132" type="qcurve" smooth="yes"/>
      <point x="712" y="132"/>
      <point x="849" y="348"/>
    </contour>
  </outline>
</glyph>
<glyph name="five" format="2">
  <advance width="1151"/>
  <unicode hex="0035"/>
  <outline>
    <contour>
      <point x="355" y="693" type="qcurve"/>
      <point x="207" y="731" type="line"/>
      <point x="280" y="1456" type="line"/>
      <point x="1027" y="1456" type="line"/>
      <point x="1027" y="1285" type="line"/>
      <point x="437" y="1285" type="line"/>
      <point x="393" y="889" type="line"/>
      <point x="433" y="912"/>
      <point x="556" y="952"/>
      <point x="636" y="952" type="qcurve" smooth="yes"/>
      <point x="837" y="952"/>
      <point x="1070" y="687"/>
      <point x="1070" y="464" type="qcurve" smooth="yes"/>
      <point x="1070" y="325"/>
      <point x="969" y="106"/>
      <point x="765" y="-20"/>
      <point x="609" y="-20" type="qcurve" smooth="yes"/>
      <point x="491" y="-20"/>
      <point x="294" y="68"/>
      <point x="167" y="247"/>
      <point x="154" y="383" type="qcurve"/>
      <point x="330" y="383" type="line"/>
      <point x="347" y="259"/>
      <point x="491" y="132"/>
      <point x="609" y="132" type="qcurve" smooth="yes"/>
      <point x="740" y="132"/>
      <point x="884" y="310"/>
      <point x="884" y="462" type="qcurve" smooth="yes"/>
      <point x="884" y="599"/>
      <point x="733" y="786"/>
      <point x="593" y="786" type="qcurve" smooth="yes"/>
      <point x="500" y="786"/>
      <point x="405" y="736"/>
    </contour>
  </outline>
</glyph>
<glyph name="six" format="2">
  <advance width="1151"/>
  <unicode hex="0036"/>
  <outline>
    <contour>
      <point x="831" y="1458" type="qcurve" smooth="yes"/>
      <point x="847" y="1458" type="line"/>
      <point x="847" y="1301" type="line"/>
      <point x="831" y="1301" type="line" smooth="yes"/>
      <point x="654" y="1301"/>
      <point x="438" y="1165"/>
      <point x="333" y="948"/>
      <point x="322" y="824" type="qcurve"/>
      <point x="382" y="892"/>
      <point x="543" y="955"/>
      <point x="635" y="955" type="qcurve" smooth="yes"/>
      <point x="781" y="955"/>
      <point x="965" y="815"/>
      <point x="1053" y="595"/>
      <point x="1053" y="475" type="qcurve" smooth="yes"/>
      <point x="1053" y="337"/>
      <point x="950" y="113"/>
      <point x="749" y="-20"/>
      <point x="601" y="-20" type="qcurve" smooth="yes"/>
      <point x="483" y="-20"/>
      <point x="307" y="77"/>
      <point x="191" y="239"/>
      <point x="133" y="437"/>
      <point x="133" y="539" type="qcurve" smooth="yes"/>
      <point x="133" y="626" type="line" smooth="yes"/>
      <point x="133" y="780"/>
      <point x="195" y="1076"/>
      <point x="348" y="1316"/>
      <point x="620" y="1458"/>
    </contour>
    <contour>
      <point x="319" y="533" type="line" smooth="yes"/>
      <point x="319" y="404"/>
      <point x="399" y="225"/>
      <point x="528" y="133"/>
      <point x="601" y="133" type="qcurve" smooth="yes"/>
      <point x="729" y="133"/>
      <point x="870" y="321"/>
      <point x="870" y="466" type="qcurve" smooth="yes"/>
      <point x="870" y="553"/>
      <point x="813" y="707"/>
      <point x="695" y="802"/>
      <point x="605" y="802" type="qcurve" smooth="yes"/>
      <point x="508" y="802"/>
      <point x="350" y="686"/>
      <point x="319" y="603" type="qcurve"/>
    </contour>
  </outline>
</glyph>
<glyph name="eight" format="2">
  <advance width="1151"/>
  <unicode hex="0038"/>
  <outline>
    <contour>
      <point x="1039" y="394" type="qcurve" smooth="yes"/>
      <point x="1039" y="261"/>
      <point x="916" y="76"/>
      <point x="707" y="-20"/>
      <point x="576" y="-20" type="qcurve" smooth="yes"/>
      <point x="445" y="-20"/>
      <point x="235" y="76"/>
      <point x="113" y="261"/>
      <point x="113" y="394" type="qcurve" smooth="yes"/>
      <point x="113" y="516"/>
      <point x="244" y="703"/>
      <point x="356" y="751" type="qcurve"/>
      <point x="259" y="798"/>
      <point x="146" y="970"/>
      <point x="146" y="1077" type="qcurve" smooth="yes"/>
      <point x="146" y="1204"/>
      <point x="257" y="1382"/>
      <point x="451" y="1476"/>
      <point x="575" y="1476" type="qcurve" smooth="yes"/>
      <point x="700" y="1476"/>
      <point x="894" y="1382"/>
      <point x="1005" y="1204"/>
      <point x="1005" y="1077" type="qcurve" smooth="yes"/>
      <point x="1005" y="969"/>
      <point x="889" y="798"/>
      <point x="792" y="751" type="qcurve"/>
      <point x="905" y="703"/>
      <point x="1039" y="515"/>
    </contour>
    <contour>
      <point x="820" y="1074" type="qcurve" smooth="yes"/>
      <point x="820" y="1183"/>
      <point x="684" y="1324"/>
      <point x="575" y="1324" type="qcurve" smooth="yes"/>
      <point x="466" y="1324"/>
      <point x="332" y="1189"/>
      <point x="332" y="1074" type="qcurve" smooth="yes"/>
      <point x="332" y="961"/>
      <point x="466" y="825"/>
      <point x="576" y="825" type="qcurve" smooth="yes"/>
      <point x="685" y="825"/>
      <point x="820" y="961"/>
    </contour>
    <contour>
      <point x="853" y="398" type="qcurve" smooth="yes"/>
      <point x="853" y="520"/>
      <point x="699" y="674"/>
      <point x="574" y="674" type="qcurve" smooth="yes"/>
      <point x="447" y="674"/>
      <point x="298" y="520"/>
      <point x="298" y="398" type="qcurve" smooth="yes"/>
      <point x="298" y="272"/>
      <point x="447" y="132"/>
      <point x="576" y="132" type="qcurve" smooth="yes"/>
      <point x="705" y="132"/>
      <point x="853" y="272"/>
    </contour>
  </outline>
</glyph>
<glyph name="nine" format="2">
  <advance width="1151"/>
  <unicode hex="0039"/>
  <outline>
    <contour>
      <point x="305" y="155" type="line"/>
      <point x="324" y="155" type="line" smooth="yes"/>
      <point x="475" y="155"/>
      <point x="669" y="235"/>
      <point x="780" y="373"/>
      <point x="827" y="547"/>
      <point x="831" y="642" type="qcurve"/>
      <point x="773" y="573"/>
      <point x="611" y="487"/>
      <point x="516" y="487" type="qcurve" smooth="yes"/>
      <point x="372" y="487"/>
      <point x="188" y="631"/>
      <point x="100" y="854"/>
      <point x="100" y="973" type="qcurve" smooth="yes"/>
      <point x="100" y="1112"/>
      <point x="202" y="1340"/>
      <point x="404" y="1476"/>
      <point x="552" y="1476" type="qcurve" smooth="yes"/>
      <point x="677" y="1476"/>
      <point x="853" y="1376"/>
      <point x="964" y="1208"/>
      <point x="1016" y="998"/>
      <point x="1016" y="887" type="qcurve" smooth="yes"/>
      <point x="1016" y="820" type="line" smooth="yes"/>
      <point x="1016" y="707"/>
      <point x="987" y="474"/>
      <point x="906" y="262"/>
      <point x="752" y="95"/>
      <point x="505" y="-2"/>
      <point x="324" y="-2" type="qcurve" smooth="yes"/>
      <point x="305" y="-2" type="line"/>
    </contour>
    <contour>
      <point x="282" y="983" type="qcurve" smooth="yes"/>
      <point x="282" y="897"/>
      <point x="340" y="740"/>
      <point x="457" y="641"/>
      <point x="546" y="641" type="qcurve" smooth="yes"/>
      <point x="641" y="641"/>
      <point x="796" y="755"/>
      <point x="832" y="839" type="qcurve"/>
      <point x="832" y="912" type="line" smooth="yes"/>
      <point x="832" y="1045"/>
      <point x="754" y="1228"/>
      <point x="626" y="1323"/>
      <point x="552" y="1323" type="qcurve" smooth="yes"/>
      <point x="423" y="1323"/>
      <point x="282" y="1129"/>
    </contour>
  </outline>
</glyph>
<glyph name="colon" format="2">
  <advance width="556"/>
  <unicode hex="003A"/>
  <outline>
    <contour>
      <point x="145" y="722" type="qcurve" smooth="yes"/>
      <point x="145" y="777"/>
      <point x="223" y="856"/>
      <point x="278" y="856" type="qcurve" smooth="yes"/>
      <point x="333" y="856"/>
      <point x="411" y="777"/>
      <point x="411" y="722" type="qcurve" smooth="yes"/>
      <point x="411" y="667"/>
      <point x="333" y="589"/>
      <point x="278" y="589" type="qcurve" smooth="yes"/>
      <point x="223" y="589"/>
      <point x="145" y="665"/>
    </contour>
    <contour>
      <point x="145" y="134" type="qcurve" smooth="yes"/>
      <point x="145" y="189"/>
      <point x="223" y="268"/>
      <point x="278" y="268" type="qcurve" smooth="yes"/>
      <point x="333" y="268"/>
      <point x="411" y="189"/>
      <point x="411" y="134" type="qcurve" smooth="yes"/>
      <point x="411" y="79"/>
      <point x="333" y="1"/>
      <point x="278" y="1" type="qcurve" smooth="yes"/>
      <point x="223" y="1"/>
      <point x="145" y="77"/>
    </contour>
  </outline>
</glyph>
<glyph name="equal" format="2">
  <advance width="1124"/>
  <unicode hex="003D"/>
  <outline>
    <contour>
      <point x="986" y="634" type="line"/>
      <point x="152" y="634" type="line"/>
      <point x="152" y="785" type="line"/>
      <point x="986" y="785" type="line"/>
    </contour>
    <contour>
      <point x="986" y="249" type="line"/>
      <point x="152" y="249" type="line"/>
      <point x="152" y="399" type="line"/>
      <point x="986" y="399" type="line"/>
    </contour>
  </outline>
</glyph>
<glyph name="greater" format="2">
  <advance width="1071"/>
  <unicode hex="003E"/>
  <outline>
    <contour>
      <point x="135" y="388" type="line"/>
      <point x="797" y="651" type="line"/>
      <point x="135" y="909" type="line"/>
      <point x="135" y="1100" type="line"/>
      <point x="989" y="722" type="line"/>
      <point x="989" y="576" type="line"/>
      <point x="135" y="197" type="line"/>
    </contour>
  </outline>
</glyph>
<glyph name="at" format="2">
  <advance width="1839"/>
  <unicode hex="0040"/>
  <outline>
    <contour>
      <point x="1736" y="503" type="qcurve" smooth="yes"/>
      <point x="1732" y="411"/>
      <point x="1684" y="226"/>
      <point x="1588" y="72"/>
      <point x="1435" y="-21"/>
      <point x="1327" y="-21" type="qcurve" smooth="yes"/>
      <point x="1233" y="-21"/>
      <point x="1112" y="69"/>
      <point x="1087" y="149" type="qcurve"/>
      <point x="1033" y="65"/>
      <point x="893" y="-21"/>
      <point x="819" y="-21" type="qcurve" smooth="yes"/>
      <point x="672" y="-21"/>
      <point x="532" y="221"/>
      <point x="550" y="418" type="qcurve" smooth="yes"/>
      <point x="566" y="594"/>
      <point x="694" y="850"/>
      <point x="880" y="990"/>
      <point x="983" y="990" type="qcurve" smooth="yes"/>
      <point x="1091" y="990"/>
      <point x="1215" y="927"/>
      <point x="1271" y="884" type="qcurve"/>
      <point x="1220" y="330" type="line" smooth="yes"/>
      <point x="1212" y="233"/>
      <point x="1250" y="133"/>
      <point x="1316" y="98"/>
      <point x="1348" y="98" type="qcurve" smooth="yes"/>
      <point x="1429" y="98"/>
      <point x="1540" y="207"/>
      <point x="1602" y="391"/>
      <point x="1607" y="503" type="qcurve" smooth="yes"/>
      <point x="1624" y="877"/>
      <point x="1313" y="1300"/>
      <point x="965" y="1300" type="qcurve" smooth="yes"/>
      <point x="755" y="1300"/>
      <point x="446" y="1092"/>
      <point x="271" y="722"/>
      <point x="261" y="478" type="qcurve" smooth="yes"/>
      <point x="249" y="229"/>
      <point x="392" y="-133"/>
      <point x="684" y="-328"/>
      <point x="897" y="-328" type="qcurve" smooth="yes"/>
      <point x="985" y="-328"/>
      <point x="1166" y="-286"/>
      <point x="1227" y="-250" type="qcurve"/>
      <point x="1265" y="-364" type="line"/>
      <point x="1195" y="-409"/>
      <point x="986" y="-453"/>
      <point x="893" y="-453" type="qcurve" smooth="yes"/>
      <point x="640" y="-453"/>
      <point x="283" y="-227"/>
      <point x="104" y="191"/>
      <point x="116" y="478" type="qcurve" smooth="yes"/>
      <point x="125" y="684"/>
      <point x="252" y="1031"/>
      <point x="474" y="1289"/>
      <point x="780" y="1431"/>
      <point x="969" y="1431" type="qcurve" smooth="yes"/>
      <point x="1226" y="1431"/>
      <point x="1576" y="1204"/>
      <point x="1748" y="787"/>
    </contour>
    <contour>
      <point x="709" y="418" type="qcurve" smooth="yes"/>
      <point x="696" y="277"/>
      <point x="777" y="123"/>
      <point x="865" y="123" type="qcurve" smooth="yes"/>
      <point x="916" y="123"/>
      <point x="1032" y="215"/>
      <point x="1072" y="321" type="qcurve" smooth="yes"/>
      <point x="1073" y="325"/>
      <point x="1073" y="330" type="qcurve" smooth="yes"/>
      <point x="1119" y="832" type="line"/>
      <point x="1094" y="845"/>
      <point x="1034" y="861"/>
      <point x="999" y="861" type="qcurve" smooth="yes"/>
      <point x="890" y="861"/>
      <point x="729" y="637"/>
    </contour>
  </outline>
</glyph>
<glyph name="B" format="2">
  <advance width="1276"/>
  <unicode hex="0042"/>
  <anchor x="613" y="10" name="Anchor-1"/>
  <anchor x="606" y="1612" name="Anchor-0"/>
  <outline>
    <contour>
      <point x="679" y="0" type="qcurve" smooth="yes"/>
      <point x="169" y="0" type="line"/>
      <point x="169" y="1456" type="line"/>
      <point x="646" y="1456" type="line" smooth="yes"/>
      <point x="870" y="1456"/>
      <point x="1121" y="1271"/>
      <point x="1121" y="1068" type="qcurve" smooth="yes"/>
      <point x="1121" y="967"/>
      <point x="1006" y="810"/>
      <point x="906" y="767" type="qcurve"/>
      <point x="1029" y="733"/>
      <point x="1160" y="543"/>
      <point x="1160" y="420" type="qcurve" smooth="yes"/>
      <point x="1160" y="216"/>
      <point x="897" y="0"/>
    </contour>
    <contour>
      <point x="646" y="1298" type="qcurve" smooth="yes"/>
      <point x="362" y="1298" type="line"/>
      <point x="362" y="836" type="line"/>
      <point x="652" y="836" type="line" smooth="yes"/>
      <point x="777" y="836"/>
      <point x="928" y="960"/>
      <point x="928" y="1070" type="qcurve" smooth="yes"/>
      <point x="928" y="1190"/>
      <point x="789" y="1298"/>
    </contour>
    <contour>
      <point x="968" y="418" type="qcurve" smooth="yes"/>
      <point x="968" y="540"/>
      <point x="835" y="681"/>
      <point x="688" y="681" type="qcurve" smooth="yes"/>
      <point x="362" y="681" type="line"/>
      <point x="362" y="157" type="line"/>
      <point x="679" y="157" type="line" smooth="yes"/>
      <point x="816" y="157"/>
      <point x="968" y="298"/>
    </contour>
  </outline>
</glyph>
<glyph name="G" format="2">
  <advance width="1395"/>
  <unicode hex="0047"/>
  <anchor x="730" y="-9" name="Anchor-1"/>
  <anchor x="672" y="1633" name="Anchor-0"/>
  <outline>
    <contour>
      <point x="1245" y="725" type="line"/>
      <point x="1245" y="192" type="line"/>
      <point x="1218" y="152"/>
      <point x="1100" y="53"/>
      <point x="893" y="-20"/>
      <point x="730" y="-20" type="qcurve" smooth="yes"/>
      <point x="553" y="-20"/>
      <point x="278" y="144"/>
      <point x="122" y="454"/>
      <point x="122" y="672" type="qcurve" smooth="yes"/>
      <point x="122" y="785" type="line" smooth="yes"/>
      <point x="122" y="1111"/>
      <point x="426" y="1476"/>
      <point x="708" y="1476" type="qcurve" smooth="yes"/>
      <point x="875" y="1476"/>
      <point x="1100" y="1361"/>
      <point x="1227" y="1159"/>
      <point x="1245" y="1030" type="qcurve"/>
      <point x="1052" y="1030" type="line"/>
      <point x="1039" y="1109"/>
      <point x="962" y="1239"/>
      <point x="820" y="1318"/>
      <point x="708" y="1318" type="qcurve" smooth="yes"/>
      <point x="506" y="1318"/>
      <point x="316" y="1032"/>
      <point x="316" y="787" type="qcurve" smooth="yes"/>
      <point x="316" y="672" type="line" smooth="yes"/>
      <point x="316" y="420"/>
      <point x="544" y="137"/>
      <point x="731" y="137" type="qcurve" smooth="yes"/>
      <point x="834" y="137"/>
      <point x="962" y="172"/>
      <point x="1034" y="221"/>
      <point x="1053" y="243" type="qcurve"/>
      <point x="1053" y="569" type="line"/>
      <point x="716" y="569" type="line"/>
      <point x="716" y="725" type="line"/>
    </contour>
  </outline>
</glyph>
<glyph name="H" format="2">
  <advance width="1461"/>
  <unicode hex="0048"/>
  <anchor x="714" y="10" name="Anchor-1"/>
  <anchor x="712" y="1612" name="Anchor-0"/>
  <outline>
    <contour>
      <point x="362" y="1456" type="line"/>
      <point x="362" y="830" type="line"/>
      <point x="1096" y="830" type="line"/>
      <point x="1096" y="1456" type="line"/>
      <point x="1288" y="1456" type="line"/>
      <point x="1288" y="0" type="line"/>
      <point x="1096" y="0" type="line"/>
      <point x="1096" y="673" type="line"/>
      <point x="362" y="673" type="line"/>
      <point x="362" y="0" type="line"/>
      <point x="169" y="0" type="line"/>
      <point x="169" y="1456" type="line"/>
    </contour>
  </outline>
</glyph>
<glyph name="I" format="2">
  <advance width="557"/>
  <unicode hex="0049"/>
  <anchor x="279" y="9" name="Anchor-1"/>
  <anchor x="279" y="1612" name="Anchor-0"/>
  <outline>
    <contour>
      <point x="376" y="1456" type="line"/>
      <point x="376" y="0" type="line"/>
      <point x="183" y="0" type="line"/>
      <point x="183" y="1456" type="line"/>
    </contour>
  </outline>
</glyph>
<glyph name="J" format="2">
  <advance width="1130"/>
  <unicode hex="004A"/>
  <anchor x="512" y="-10" name="Anchor-1"/>
  <anchor x="852" y="1599" name="Anchor-0"/>
  <outline>
    <contour>
      <point x="780" y="425" type="qcurve" smooth="yes"/>
      <point x="780" y="1456" type="line"/>
      <point x="972" y="1456" type="line"/>
      <point x="972" y="425" type="line" smooth="yes"/>
      <point x="972" y="281"/>
      <point x="854" y="83"/>
      <point x="647" y="-20"/>
      <point x="513" y="-20" type="qcurve" smooth="yes"/>
      <point x="379" y="-20"/>
      <point x="171" y="72"/>
      <point x="53" y="260"/>
      <point x="53" y="403" type="qcurve"/>
      <point x="246" y="403" type="line"/>
      <point x="246" y="265"/>
      <point x="395" y="137"/>
      <point x="513" y="137" type="qcurve" smooth="yes"/>
      <point x="627" y="137"/>
      <point x="780" y="283"/>
    </contour>
  </outline>
</glyph>
<glyph name="K" format="2">
  <advance width="1285"/>
  <unicode hex="004B"/>
  <anchor x="660" y="90" name="Anchor-1"/>
  <anchor x="605" y="1595" name="Anchor-0"/>
  <outline>
    <contour>
      <point x="1055" y="0" type="line"/>
      <point x="540" y="678" type="line"/>
      <point x="362" y="493" type="line"/>
      <point x="362" y="0" type="line"/>
      <point x="169" y="0" type="line"/>
      <point x="169" y="1456" type="line"/>
      <point x="362" y="1456" type="line"/>
      <point x="362" y="738" type="line"/>
      <point x="520" y="912" type="line"/>
      <point x="1009" y="1456" type="line"/>
      <point x="1241" y="1456" type="line"/>
      <point x="669" y="813" type="line"/>
      <point x="1285" y="0" type="line"/>
    </contour>
  </outline>
</glyph>
<glyph name="L" format="2">
  <advance width="1103"/>
  <unicode hex="004C"/>
  <anchor x="620" y="10" name="Anchor-1"/>
  <anchor x="264" y="1596" name="Anchor-0"/>
  <outline>
    <contour>
      <point x="1052" y="157" type="line"/>
      <point x="1052" y="0" type="line"/>
      <point x="169" y="0" type="line"/>
      <point x="169" y="1456" type="line"/>
      <point x="362" y="1456" type="line"/>
      <point x="362" y="157" type="line"/>
    </contour>
  </outline>
</glyph>
<glyph name="M" format="2">
  <advance width="1788"/>
  <unicode hex="004D"/>
  <anchor x="893" y="10" name="Anchor-1"/>
  <anchor x="890" y="1601" name="Anchor-0"/>
  <outline>
    <contour>
      <point x="169" y="1456" type="line"/>
      <point x="417" y="1456" type="line"/>
      <point x="894" y="269" type="line"/>
      <point x="1370" y="1456" type="line"/>
      <point x="1618" y="1456" type="line"/>
      <point x="1618" y="0" type="line"/>
      <point x="1426" y="0" type="line"/>
      <point x="1426" y="568" type="line"/>
      <point x="1445" y="1177" type="line"/>
      <point x="966" y="0" type="line"/>
      <point x="820" y="0" type="line"/>
      <point x="342" y="1179" type="line"/>
      <point x="361" y="568" type="line"/>
      <point x="361" y="0" type="line"/>
      <point x="169" y="0" type="line"/>
    </contour>
  </outline>
</glyph>
<glyph name="O" format="2">
  <advance width="1409"/>
  <unicode hex="004F"/>
  <anchor x="707" y="0" name="Anchor-1"/>
  <anchor x="707" y="1603" name="Anchor-0"/>
  <outline>
    <contour>
      <point x="1290" y="774" type="qcurve" smooth="yes"/>
      <point x="1290" y="682" type="line" smooth="yes"/>
      <point x="1290" y="464"/>
      <point x="1145" y="149"/>
      <point x="883" y="-20"/>
      <point x="706" y="-20" type="qcurve" smooth="yes"/>
      <point x="534" y="-20"/>
      <point x="269" y="149"/>
      <point x="119" y="464"/>
      <point x="119" y="682" type="qcurve" smooth="yes"/>
      <point x="119" y="774" type="line" smooth="yes"/>
      <point x="119" y="992"/>
      <point x="268" y="1307"/>
      <point x="532" y="1476"/>
      <point x="704" y="1476" type="qcurve" smooth="yes"/>
      <point x="881" y="1476"/>
      <point x="1145" y="1307"/>
      <point x="1290" y="992"/>
    </contour>
    <contour>
      <point x="1099" y="682" type="qcurve" smooth="yes"/>
      <point x="1099" y="776" type="line" smooth="yes"/>
      <point x="1099" y="1036"/>
      <point x="891" y="1312"/>
      <point x="704" y="1312" type="qcurve" smooth="yes"/>
      <point x="525" y="1312"/>
      <point x="310" y="1036"/>
      <point x="310" y="776" type="qcurve" smooth="yes"/>
      <point x="310" y="682" type="line" smooth="yes"/>
      <point x="310" y="420"/>
      <point x="527" y="143"/>
      <point x="706" y="143" type="qcurve" smooth="yes"/>
      <point x="894" y="143"/>
      <point x="1099" y="420"/>
    </contour>
  </outline>
</glyph>
<glyph name="P" format="2">
  <advance width="1292"/>
  <unicode hex="0050"/>
  <anchor x="613" y="10" name="Anchor-1"/>
  <anchor x="606" y="1612" name="Anchor-0"/>
  <outline>
    <contour>
      <point x="706" y="571" type="qcurve" smooth="yes"/>
      <point x="362" y="571" type="line"/>
      <point x="362" y="0" type="line"/>
      <point x="169" y="0" type="line"/>
      <point x="169" y="1456" type="line"/>
      <point x="706" y="1456" type="line" smooth="yes"/>
      <point x="871" y="1456"/>
      <point x="1099" y="1342"/>
      <point x="1217" y="1141"/>
      <point x="1217" y="1012" type="qcurve" smooth="yes"/>
      <point x="1217" y="801"/>
      <point x="954" y="571"/>
    </contour>
    <contour>
      <point x="706" y="1298" type="qcurve" smooth="yes"/>
      <point x="362" y="1298" type="line"/>
      <point x="362" y="728" type="line"/>
      <point x="706" y="728" type="line" smooth="yes"/>
      <point x="876" y="728"/>
      <point x="1024" y="886"/>
      <point x="1024" y="1010" type="qcurve" smooth="yes"/>
      <point x="1024" y="1085"/>
      <point x="959" y="1217"/>
      <point x="819" y="1298"/>
    </contour>
  </outline>
</glyph>
<glyph name="Q" format="2">
  <advance width="1409"/>
  <unicode hex="0051"/>
  <anchor x="698" y="-10" name="Anchor-1"/>
  <anchor x="700" y="1600" name="Anchor-0"/>
  <outline>
    <contour>
      <point x="1281" y="774" type="qcurve" smooth="yes"/>
      <point x="1281" y="682" type="line" smooth="yes"/>
      <point x="1281" y="472"/>
      <point x="1147" y="165"/>
      <point x="1027" y="79" type="qcurve"/>
      <point x="1286" y="-126" type="line"/>
      <point x="1156" y="-246" type="line"/>
      <point x="849" y="-2" type="line"/>
      <point x="777" y="-20"/>
      <point x="697" y="-20" type="qcurve" smooth="yes"/>
      <point x="525" y="-20"/>
      <point x="260" y="149"/>
      <point x="110" y="464"/>
      <point x="110" y="682" type="qcurve" smooth="yes"/>
      <point x="110" y="774" type="line" smooth="yes"/>
      <point x="110" y="992"/>
      <point x="259" y="1307"/>
      <point x="523" y="1476"/>
      <point x="695" y="1476" type="qcurve" smooth="yes"/>
      <point x="873" y="1476"/>
      <point x="1136" y="1307"/>
      <point x="1281" y="992"/>
    </contour>
    <contour>
      <point x="1090" y="682" type="qcurve" smooth="yes"/>
      <point x="1090" y="776" type="line" smooth="yes"/>
      <point x="1090" y="1036"/>
      <point x="883" y="1312"/>
      <point x="695" y="1312" type="qcurve" smooth="yes"/>
      <point x="517" y="1312"/>
      <point x="301" y="1036"/>
      <point x="301" y="776" type="qcurve" smooth="yes"/>
      <point x="301" y="682" type="line" smooth="yes"/>
      <point x="301" y="420"/>
      <point x="519" y="143"/>
      <point x="697" y="143" type="qcurve" smooth="yes"/>
      <point x="885" y="143"/>
      <point x="1090" y="420"/>
    </contour>
  </outline>
</glyph>
<glyph name="R" format="2">
  <advance width="1262"/>
  <unicode hex="0052"/>
  <anchor x="611" y="10" name="Anchor-1"/>
  <anchor x="610" y="1601" name="Anchor-0"/>
  <outline>
    <contour>
      <point x="1020" y="0" type="line"/>
      <point x="704" y="590" type="line"/>
      <point x="362" y="590" type="line"/>
      <point x="362" y="0" type="line"/>
      <point x="169" y="0" type="line"/>
      <point x="169" y="1456" type="line"/>
      <point x="651" y="1456" type="line" smooth="yes"/>
      <point x="896" y="1456"/>
      <point x="1161" y="1232"/>
      <point x="1161" y="1019" type="qcurve" smooth="yes"/>
      <point x="1161" y="883"/>
      <point x="1014" y="680"/>
      <point x="884" y="630" type="qcurve"/>
      <point x="1226" y="12" type="line"/>
      <point x="1226" y="0" type="line"/>
    </contour>
    <contour>
      <point x="651" y="1298" type="qcurve" smooth="yes"/>
      <point x="362" y="1298" type="line"/>
      <point x="362" y="747" type="line"/>
      <point x="657" y="747" type="line" smooth="yes"/>
      <point x="812" y="747"/>
      <point x="969" y="906"/>
      <point x="969" y="1019" type="qcurve" smooth="yes"/>
      <point x="969" y="1145"/>
      <point x="818" y="1298"/>
    </contour>
  </outline>
</glyph>
<glyph name="T" format="2">
  <advance width="1222"/>
  <unicode hex="0054"/>
  <anchor x="614" y="0" name="Anchor-1"/>
  <anchor x="612" y="1600" name="Anchor-0"/>
  <outline>
    <contour>
      <point x="1175" y="1456" type="line"/>
      <point x="1175" y="1298" type="line"/>
      <point x="707" y="1298" type="line"/>
      <point x="707" y="0" type="line"/>
      <point x="517" y="0" type="line"/>
      <point x="517" y="1298" type="line"/>
      <point x="50" y="1298" type="line"/>
      <point x="50" y="1456" type="line"/>
    </contour>
  </outline>
</glyph>
<glyph name="V" format="2">
  <advance width="1304"/>
  <unicode hex="0056"/>
  <anchor x="655" y="10" name="Anchor-1"/>
  <anchor x="655" y="1612" name="Anchor-0"/>
  <outline>
    <contour>
      <point x="238" y="1456" type="line"/>
      <point x="651" y="256" type="line"/>
      <point x="1068" y="1456" type="line"/>
      <point x="1277" y="1456" type="line"/>
      <point x="738" y="0" type="line"/>
      <point x="567" y="0" type="line"/>
      <point x="29" y="1456" type="line"/>
    </contour>
  </outline>
</glyph>
<glyph name="asciicircum" format="2">
  <advance width="856"/>
  <unicode hex="005E"/>
  <outline>
    <contour>
      <point x="617" y="729" type="line"/>
      <point x="427" y="1212" type="line"/>
      <point x="236" y="729" type="line"/>
      <point x="64" y="729" type="line"/>
      <point x="363" y="1456" type="line"/>
      <point x="491" y="1456" type="line"/>
      <point x="789" y="729" type="line"/>
    </contour>
  </outline>
</glyph>
<glyph name="a" format="2">
  <advance width="1114"/>
  <unicode hex="0061"/>
  <anchor x="502" y="0" name="Anchor-1"/>
  <anchor x="582" y="1290" name="Anchor-0"/>
  <outline>
    <contour>
      <point x="809" y="0" type="line"/>
      <point x="800" y="20"/>
      <point x="787" y="81"/>
      <point x="783" y="114" type="qcurve"/>
      <point x="731" y="59"/>
      <point x="575" y="-20"/>
      <point x="475" y="-20" type="qcurve" smooth="yes"/>
      <point x="365" y="-20"/>
      <point x="200" y="66"/>
      <point x="109" y="211"/>
      <point x="109" y="301" type="qcurve" smooth="yes"/>
      <point x="109" y="475"/>
      <point x="373" y="656"/>
      <point x="596" y="656" type="qcurve" smooth="yes"/>
      <point x="779" y="656" type="line"/>
      <point x="779" y="742" type="line" smooth="yes"/>
      <point x="779" y="838"/>
      <point x="664" y="953"/>
      <point x="551" y="953" type="qcurve" smooth="yes"/>
      <point x="446" y="953"/>
      <point x="317" y="850"/>
      <point x="317" y="782" type="qcurve"/>
      <point x="132" y="782" type="line"/>
      <point x="132" y="860"/>
      <point x="238" y="1007"/>
      <point x="431" y="1102"/>
      <point x="562" y="1102" type="qcurve" smooth="yes"/>
      <point x="738" y="1102"/>
      <point x="964" y="922"/>
      <point x="964" y="740" type="qcurve" smooth="yes"/>
      <point x="964" y="236" type="line" smooth="yes"/>
      <point x="964" y="182"/>
      <point x="983" y="60"/>
      <point x="1002" y="16" type="qcurve"/>
      <point x="1002" y="0" type="line"/>
    </contour>
    <contour>
      <point x="502" y="142" type="qcurve" smooth="yes"/>
      <point x="602" y="142"/>
      <point x="749" y="242"/>
      <point x="779" y="303" type="qcurve"/>
      <point x="779" y="526" type="line"/>
      <point x="626" y="526" type="line" smooth="yes"/>
      <point x="467" y="526"/>
      <point x="295" y="427"/>
      <point x="295" y="326" type="qcurve" smooth="yes"/>
      <point x="295" y="249"/>
      <point x="399" y="142"/>
    </contour>
  </outline>
</glyph>
<glyph name="c" format="2">
  <advance width="1072"/>
  <unicode hex="0063"/>
  <anchor x="533" y="-10" name="Anchor-1"/>
  <anchor x="533" y="1290" name="Anchor-0"/>
  <outline>
    <contour>
      <point x="574" y="132" type="qcurve" smooth="yes"/>
      <point x="673" y="132"/>
      <point x="822" y="251"/>
      <point x="829" y="342" type="qcurve"/>
      <point x="1005" y="342" type="line"/>
      <point x="1000" y="246"/>
      <point x="881" y="81"/>
      <point x="689" y="-20"/>
      <point x="574" y="-20" type="qcurve" smooth="yes"/>
      <point x="411" y="-20"/>
      <point x="198" y="129"/>
      <point x="93" y="375"/>
      <point x="93" y="520" type="qcurve" smooth="yes"/>
      <point x="93" y="562" type="line" smooth="yes"/>
      <point x="93" y="707"/>
      <point x="198" y="953"/>
      <point x="412" y="1102"/>
      <point x="574" y="1102" type="qcurve" smooth="yes"/>
      <point x="701" y="1102"/>
      <point x="891" y="999"/>
      <point x="1000" y="822"/>
      <point x="1005" y="710" type="qcurve"/>
      <point x="829" y="710" type="line"/>
      <point x="822" y="810"/>
      <point x="685" y="950"/>
      <point x="574" y="950" type="qcurve" smooth="yes"/>
      <point x="460" y="950"/>
      <point x="331" y="834"/>
      <point x="278" y="656"/>
      <point x="278" y="562" type="qcurve" smooth="yes"/>
      <point x="278" y="520" type="line" smooth="yes"/>
      <point x="278" y="425"/>
      <point x="330" y="247"/>
      <point x="459" y="132"/>
    </contour>
  </outline>
</glyph>
<glyph name="d" format="2">
  <advance width="1155"/>
  <unicode hex="0064"/>
  <anchor x="617" y="0" name="Anchor-1"/>
  <anchor x="549" y="1612" name="Anchor-0"/>
  <outline>
    <contour>
      <point x="95" y="529" type="qcurve" smooth="yes"/>
      <point x="95" y="550" type="line" smooth="yes"/>
      <point x="95" y="715"/>
      <point x="202" y="964"/>
      <point x="394" y="1102"/>
      <point x="523" y="1102" type="qcurve" smooth="yes"/>
      <point x="621" y="1102"/>
      <point x="770" y="1036"/>
      <point x="823" y="974" type="qcurve"/>
      <point x="823" y="1536" type="line"/>
      <point x="1009" y="1536" type="line"/>
      <point x="1009" y="0" type="line"/>
      <point x="839" y="0" type="line"/>
      <point x="830" y="116" type="line"/>
      <point x="777" y="51"/>
      <point x="623" y="-20"/>
      <point x="521" y="-20" type="qcurve" smooth="yes"/>
      <point x="394" y="-20"/>
      <point x="202" y="123"/>
      <point x="95" y="371"/>
    </contour>
    <contour>
      <point x="281" y="550" type="qcurve" smooth="yes"/>
      <point x="281" y="529" type="line" smooth="yes"/>
      <point x="281" y="422"/>
      <point x="341" y="243"/>
      <point x="467" y="137"/>
      <point x="567" y="137" type="qcurve" smooth="yes"/>
      <point x="664" y="137"/>
      <point x="786" y="225"/>
      <point x="823" y="294" type="qcurve"/>
      <point x="823" y="792" type="line"/>
      <point x="787" y="859"/>
      <point x="664" y="946"/>
      <point x="569" y="946" type="qcurve" smooth="yes"/>
      <point x="468" y="946"/>
      <point x="341" y="838"/>
      <point x="281" y="658"/>
    </contour>
  </outline>
</glyph>
<glyph name="e" format="2">
  <advance width="1086"/>
  <unicode hex="0065"/>
  <anchor x="568" y="0" name="Anchor-1"/>
  <anchor x="565" y="1290" name="Anchor-0"/>
  <outline>
    <contour>
      <point x="590" y="-20" type="qcurve" smooth="yes"/>
      <point x="439" y="-20"/>
      <point x="216" y="114"/>
      <point x="93" y="351"/>
      <point x="93" y="503" type="qcurve" smooth="yes"/>
      <point x="93" y="545" type="line" smooth="yes"/>
      <point x="93" y="722"/>
      <point x="228" y="971"/>
      <point x="445" y="1102"/>
      <point x="566" y="1102" type="qcurve" smooth="yes"/>
      <point x="721" y="1102"/>
      <point x="918" y="963"/>
      <point x="1011" y="724"/>
      <point x="1011" y="572" type="qcurve" smooth="yes"/>
      <point x="1011" y="489" type="line"/>
      <point x="279" y="489" type="line"/>
      <point x="282" y="390"/>
      <point x="360" y="227"/>
      <point x="501" y="131"/>
      <point x="600" y="131" type="qcurve" smooth="yes"/>
      <point x="698" y="131"/>
      <point x="834" y="211"/>
      <point x="885" y="278" type="qcurve"/>
      <point x="997" y="189" type="line"/>
      <point x="945" y="109"/>
      <point x="751" y="-20"/>
    </contour>
    <contour>
      <point x="566" y="950" type="qcurve" smooth="yes"/>
      <point x="456" y="950"/>
      <point x="304" y="790"/>
      <point x="285" y="640" type="qcurve"/>
      <point x="826" y="640" type="line"/>
      <point x="826" y="654" type="line"/>
      <point x="822" y="726"/>
      <point x="771" y="862"/>
      <point x="661" y="950"/>
    </contour>
  </outline>
</glyph>
<glyph name="g" format="2">
  <advance width="1150"/>
  <unicode hex="0067"/>
  <anchor x="554" y="-447" name="Anchor-1"/>
  <anchor x="556" y="1290" name="Anchor-0"/>
  <outline>
    <contour>
      <point x="97" y="529" type="qcurve" smooth="yes"/>
      <point x="97" y="550" type="line" smooth="yes"/>
      <point x="97" y="715"/>
      <point x="201" y="964"/>
      <point x="392" y="1102"/>
      <point x="524" y="1102" type="qcurve" smooth="yes"/>
      <point x="627" y="1102"/>
      <point x="780" y="1030"/>
      <point x="833" y="962" type="qcurve"/>
      <point x="842" y="1082" type="line"/>
      <point x="1010" y="1082" type="line"/>
      <point x="1010" y="23" type="line" smooth="yes"/>
      <point x="1010" y="-120"/>
      <point x="894" y="-322"/>
      <point x="687" y="-427"/>
      <point x="552" y="-427" type="qcurve" smooth="yes"/>
      <point x="496" y="-427"/>
      <point x="345" y="-392"/>
      <point x="200" y="-309"/>
      <point x="151" y="-239" type="qcurve"/>
      <point x="248" y="-129" type="line"/>
      <point x="316" y="-211"/>
      <point x="465" y="-275"/>
      <point x="538" y="-275" type="qcurve" smooth="yes"/>
      <point x="669" y="-275"/>
      <point x="825" y="-128"/>
      <point x="825" y="14" type="qcurve" smooth="yes"/>
      <point x="825" y="109" type="line"/>
      <point x="772" y="47"/>
      <point x="621" y="-20"/>
      <point x="522" y="-20" type="qcurve" smooth="yes"/>
      <point x="392" y="-20"/>
      <point x="201" y="123"/>
      <point x="97" y="371"/>
    </contour>
    <contour>
      <point x="282" y="550" type="qcurve" smooth="yes"/>
      <point x="282" y="529" type="line" smooth="yes"/>
      <point x="282" y="422"/>
      <point x="341" y="243"/>
      <point x="467" y="137"/>
      <point x="567" y="137" type="qcurve" smooth="yes"/>
      <point x="666" y="137"/>
      <point x="789" y="227"/>
      <point x="825" y="297" type="qcurve"/>
      <point x="825" y="790" type="line"/>
      <point x="790" y="857"/>
      <point x="666" y="946"/>
      <point x="569" y="946" type="qcurve" smooth="yes"/>
      <point x="468" y="946"/>
      <point x="341" y="838"/>
      <point x="282" y="658"/>
    </contour>
  </outline>
</glyph>
<glyph name="i" format="2">
  <advance width="498"/>
  <unicode hex="0069"/>
  <anchor x="249" y="10" name="Anchor-1"/>
  <anchor x="251" y="1600" name="Anchor-0"/>
  <outline>
    <contour>
      <point x="142" y="1369" type="qcurve" smooth="yes"/>
      <point x="142" y="1414"/>
      <point x="197" y="1476"/>
      <point x="251" y="1476" type="qcurve" smooth="yes"/>
      <point x="304" y="1476"/>
      <point x="361" y="1414"/>
      <point x="361" y="1369" type="qcurve" smooth="yes"/>
      <point x="361" y="1326"/>
      <point x="304" y="1265"/>
      <point x="251" y="1265" type="qcurve" smooth="yes"/>
      <point x="197" y="1265"/>
      <point x="142" y="1326"/>
    </contour>
    <contour>
      <point x="342" y="1082" type="line"/>
      <point x="342" y="0" type="line"/>
      <point x="156" y="0" type="line"/>
      <point x="156" y="1082" type="line"/>
    </contour>
  </outline>
</glyph>
<glyph name="j" format="2">
  <advance width="490"/>
  <unicode hex="006A"/>
  <anchor x="190" y="-459" name="Anchor-1"/>
  <anchor x="223" y="1600" name="Anchor-0"/>
  <outline>
    <contour>
      <point x="127" y="1369" type="qcurve" smooth="yes"/>
      <point x="127" y="1414"/>
      <point x="183" y="1476"/>
      <point x="236" y="1476" type="qcurve" smooth="yes"/>
      <point x="290" y="1476"/>
      <point x="346" y="1414"/>
      <point x="346" y="1369" type="qcurve" smooth="yes"/>
      <point x="346" y="1326"/>
      <point x="290" y="1265"/>
      <point x="236" y="1265" type="qcurve" smooth="yes"/>
      <point x="183" y="1265"/>
      <point x="127" y="1326"/>
    </contour>
    <contour>
      <point x="146" y="1082" type="line"/>
      <point x="332" y="1082" type="line"/>
      <point x="332" y="-129" type="line" smooth="yes"/>
      <point x="332" y="-278"/>
      <point x="191" y="-437"/>
      <point x="49" y="-437" type="qcurve" smooth="yes"/>
      <point x="24" y="-437"/>
      <point x="-43" y="-427"/>
      <point x="-66" y="-420" type="qcurve"/>
      <point x="-65" y="-271" type="line"/>
      <point x="-46" y="-275"/>
      <point x="2" y="-280"/>
      <point x="20" y="-280" type="qcurve" smooth="yes"/>
      <point x="81" y="-280"/>
      <point x="146" y="-211"/>
      <point x="146" y="-129" type="qcurve" smooth="yes"/>
    </contour>
  </outline>
</glyph>
<glyph name="l" format="2">
  <advance width="498"/>
  <unicode hex="006C"/>
  <anchor x="249" y="10" name="Anchor-1"/>
  <anchor x="249" y="1697" name="Anchor-0"/>
  <outline>
    <contour>
      <point x="342" y="1536" type="line"/>
      <point x="342" y="0" type="line"/>
      <point x="156" y="0" type="line"/>
      <point x="156" y="1536" type="line"/>
    </contour>
  </outline>
</glyph>
<glyph name="m" format="2">
  <advance width="1796"/>
  <unicode hex="006D"/>
  <anchor x="897" y="10" name="Anchor-1"/>
  <anchor x="911" y="1290" name="Anchor-0"/>
  <outline>
    <contour>
      <point x="574" y="946" type="qcurve" smooth="yes"/>
      <point x="475" y="946"/>
      <point x="355" y="862"/>
      <point x="325" y="793" type="qcurve"/>
      <point x="325" y="0" type="line"/>
      <point x="139" y="0" type="line"/>
      <point x="139" y="1082" type="line"/>
      <point x="315" y="1082" type="line"/>
      <point x="320" y="964" type="line"/>
      <point x="375" y="1029"/>
      <point x="535" y="1102"/>
      <point x="640" y="1102" type="qcurve" smooth="yes"/>
      <point x="744" y="1102"/>
      <point x="907" y="1019"/>
      <point x="950" y="928" type="qcurve"/>
      <point x="1004" y="1006"/>
      <point x="1177" y="1102"/>
      <point x="1294" y="1102" type="qcurve" smooth="yes"/>
      <point x="1468" y="1102"/>
      <point x="1657" y="916"/>
      <point x="1657" y="711" type="qcurve" smooth="yes"/>
      <point x="1657" y="0" type="line"/>
      <point x="1471" y="0" type="line"/>
      <point x="1471" y="713" type="line" smooth="yes"/>
      <point x="1471" y="849"/>
      <point x="1346" y="946"/>
      <point x="1240" y="946" type="qcurve" smooth="yes"/>
      <point x="1128" y="946"/>
      <point x="1000" y="813"/>
      <point x="990" y="718" type="qcurve"/>
      <point x="990" y="0" type="line"/>
      <point x="805" y="0" type="line"/>
      <point x="805" y="712" type="line" smooth="yes"/>
      <point x="805" y="839"/>
      <point x="679" y="946"/>
    </contour>
  </outline>
</glyph>
<glyph name="p" format="2">
  <advance width="1150"/>
  <unicode hex="0070"/>
  <anchor x="231" y="-407" name="Anchor-1"/>
  <anchor x="629" y="1280" name="Anchor-0"/>
  <outline>
    <contour>
      <point x="1055" y="550" type="qcurve" smooth="yes"/>
      <point x="1055" y="529" type="line" smooth="yes"/>
      <point x="1055" y="371"/>
      <point x="957" y="123"/>
      <point x="769" y="-20"/>
      <point x="635" y="-20" type="qcurve" smooth="yes"/>
      <point x="535" y="-20"/>
      <point x="381" y="45"/>
      <point x="326" y="105" type="qcurve"/>
      <point x="326" y="-416" type="line"/>
      <point x="140" y="-416" type="line"/>
      <point x="140" y="1082" type="line"/>
      <point x="310" y="1082" type="line"/>
      <point x="319" y="963" type="line"/>
      <point x="374" y="1030"/>
      <point x="530" y="1102"/>
      <point x="632" y="1102" type="qcurve" smooth="yes"/>
      <point x="769" y="1102"/>
      <point x="957" y="964"/>
      <point x="1055" y="715"/>
    </contour>
    <contour>
      <point x="869" y="529" type="qcurve" smooth="yes"/>
      <point x="869" y="550" type="line" smooth="yes"/>
      <point x="869" y="658"/>
      <point x="808" y="838"/>
      <point x="679" y="946"/>
      <point x="578" y="946" type="qcurve" smooth="yes"/>
      <point x="484" y="946"/>
      <point x="362" y="861"/>
      <point x="326" y="797" type="qcurve"/>
      <point x="326" y="279" type="line"/>
      <point x="363" y="215"/>
      <point x="484" y="132"/>
      <point x="580" y="132" type="qcurve" smooth="yes"/>
      <point x="680" y="132"/>
      <point x="808" y="241"/>
      <point x="869" y="422"/>
    </contour>
  </outline>
</glyph>
<glyph name="q" format="2">
  <advance width="1164"/>
  <unicode hex="0071"/>
  <anchor x="916" y="-407" name="Anchor-1"/>
  <anchor x="537" y="1290" name="Anchor-0"/>
  <outline>
    <contour>
      <point x="95" y="529" type="qcurve" smooth="yes"/>
      <point x="95" y="550" type="line" smooth="yes"/>
      <point x="95" y="715"/>
      <point x="198" y="964"/>
      <point x="391" y="1102"/>
      <point x="526" y="1102" type="qcurve" smooth="yes"/>
      <point x="624" y="1102"/>
      <point x="776" y="1035"/>
      <point x="830" y="973" type="qcurve"/>
      <point x="838" y="1082" type="line"/>
      <point x="1008" y="1082" type="line"/>
      <point x="1008" y="-416" type="line"/>
      <point x="822" y="-416" type="line"/>
      <point x="822" y="100" type="line"/>
      <point x="768" y="42"/>
      <point x="620" y="-20"/>
      <point x="524" y="-20" type="qcurve" smooth="yes"/>
      <point x="391" y="-20"/>
      <point x="198" y="123"/>
      <point x="95" y="371"/>
    </contour>
    <contour>
      <point x="281" y="550" type="qcurve" smooth="yes"/>
      <point x="281" y="529" type="line" smooth="yes"/>
      <point x="281" y="422"/>
      <point x="342" y="241"/>
      <point x="470" y="132"/>
      <point x="570" y="132" type="qcurve" smooth="yes"/>
      <point x="662" y="132"/>
      <point x="784" y="214"/>
      <point x="822" y="277" type="qcurve"/>
      <point x="822" y="808" type="line"/>
      <point x="784" y="870"/>
      <point x="662" y="950"/>
      <point x="572" y="950" type="qcurve" smooth="yes"/>
      <point x="471" y="950"/>
      <point x="342" y="840"/>
      <point x="281" y="658"/>
    </contour>
  </outline>
</glyph>
<glyph name="r" format="2">
  <advance width="694"/>
  <unicode hex="0072"/>
  <anchor x="246" y="11" name="Anchor-1"/>
  <anchor x="408" y="1290" name="Anchor-0"/>
  <outline>
    <contour>
      <point x="664" y="1088" type="qcurve"/>
      <point x="663" y="916" type="line"/>
      <point x="622" y="924"/>
      <point x="573" y="924" type="qcurve" smooth="yes"/>
      <point x="478" y="924"/>
      <point x="356" y="839"/>
      <point x="326" y="768" type="qcurve"/>
      <point x="326" y="0" type="line"/>
      <point x="141" y="0" type="line"/>
      <point x="141" y="1082" type="line"/>
      <point x="321" y="1082" type="line"/>
      <point x="325" y="958" type="line"/>
      <point x="366" y="1024"/>
      <point x="493" y="1102"/>
      <point x="582" y="1102" type="qcurve" smooth="yes"/>
      <point x="602" y="1102"/>
      <point x="654" y="1093"/>
    </contour>
  </outline>
</glyph>
<glyph name="t" format="2">
  <advance width="670"/>
  <unicode hex="0074"/>
  <anchor x="453" y="0" name="Anchor-1"/>
  <anchor x="312" y="1481" name="Anchor-0"/>
  <outline>
    <contour>
      <point x="594" y="1082" type="line"/>
      <point x="594" y="940" type="line"/>
      <point x="392" y="940" type="line"/>
      <point x="392" y="268" type="line" smooth="yes"/>
      <point x="392" y="185"/>
      <point x="465" y="139"/>
      <point x="511" y="139" type="qcurve" smooth="yes"/>
      <point x="534" y="139"/>
      <point x="585" y="148"/>
      <point x="598" y="151" type="qcurve"/>
      <point x="599" y="0" type="line"/>
      <point x="577" y="-7"/>
      <point x="506" y="-20"/>
      <point x="456" y="-20" type="qcurve" smooth="yes"/>
      <point x="388" y="-20"/>
      <point x="274" y="34"/>
      <point x="207" y="161"/>
      <point x="207" y="269" type="qcurve" smooth="yes"/>
      <point x="207" y="940" type="line"/>
      <point x="9" y="940" type="line"/>
      <point x="9" y="1082" type="line"/>
      <point x="207" y="1082" type="line"/>
      <point x="207" y="1345" type="line"/>
      <point x="392" y="1345" type="line"/>
      <point x="392" y="1082" type="line"/>
    </contour>
  </outline>
</glyph>
<glyph name="w" format="2">
  <advance width="1539"/>
  <unicode hex="0077"/>
  <anchor x="766" y="10" name="Anchor-1"/>
  <anchor x="763" y="1290" name="Anchor-0"/>
  <outline>
    <contour>
      <point x="228" y="1082" type="line"/>
      <point x="441" y="274" type="line"/>
      <point x="693" y="1082" type="line"/>
      <point x="842" y="1082" type="line"/>
      <point x="1098" y="257" type="line"/>
      <point x="1307" y="1082" type="line"/>
      <point x="1491" y="1082" type="line"/>
      <point x="1177" y="0" type="line"/>
      <point x="1027" y="0" type="line"/>
      <point x="764" y="819" type="line"/>
      <point x="508" y="0" type="line"/>
      <point x="357" y="0" type="line"/>
      <point x="43" y="1082" type="line"/>
    </contour>
  </outline>
</glyph>
<glyph name="y" format="2">
  <advance width="969"/>
  <unicode hex="0079"/>
  <anchor x="712" y="-158" name="Anchor-1"/>
  <anchor x="508" y="1290" name="Anchor-0"/>
  <outline>
    <contour>
      <point x="224" y="1082" type="line"/>
      <point x="495" y="272" type="line"/>
      <point x="746" y="1082" type="line"/>
      <point x="944" y="1082" type="line"/>
      <point x="510" y="-167" type="line" smooth="yes"/>
      <point x="490" y="-220"/>
      <point x="415" y="-347"/>
      <point x="287" y="-437"/>
      <point x="189" y="-437" type="qcurve" smooth="yes"/>
      <point x="167" y="-437"/>
      <point x="99" y="-425"/>
      <point x="85" y="-421" type="qcurve"/>
      <point x="84" y="-271" type="line"/>
      <point x="92" y="-272"/>
      <point x="127" y="-275"/>
      <point x="134" y="-275" type="qcurve" smooth="yes"/>
      <point x="229" y="-275"/>
      <point x="334" y="-198"/>
      <point x="368" y="-98" type="qcurve" smooth="yes"/>
      <point x="408" y="12" type="line"/>
      <point x="22" y="1082" type="line"/>
    </contour>
  </outline>
</glyph>
<glyph name="z" format="2">
  <advance width="1016"/>
  <unicode hex="007A"/>
  <anchor x="526" y="10" name="Anchor-1"/>
  <anchor x="515" y="1290" name="Anchor-0"/>
  <outline>
    <contour>
      <point x="947" y="152" type="line"/>
      <point x="947" y="0" type="line"/>
      <point x="89" y="0" type="line"/>
      <point x="89" y="136" type="line"/>
      <point x="685" y="929" type="line"/>
      <point x="97" y="929" type="line"/>
      <point x="97" y="1082" type="line"/>
      <point x="918" y="1082" type="line"/>
      <point x="918" y="951" type="line"/>
      <point x="316" y="152" type="line"/>
    </contour>
  </outline>
</glyph>
<glyph name="braceleft" format="2">
  <advance width="693"/>
  <unicode hex="007B"/>
  <outline>
    <contour>
      <point x="671" y="-251" type="qcurve"/>
      <point x="632" y="-366" type="line"/>
      <point x="496" y="-327"/>
      <point x="341" y="-189"/>
      <point x="276" y="-6"/>
      <point x="276" y="99" type="qcurve" smooth="yes"/>
      <point x="276" y="305" type="line" smooth="yes"/>
      <point x="276" y="414"/>
      <point x="177" y="543"/>
      <point x="64" y="543" type="qcurve"/>
      <point x="64" y="688" type="line"/>
      <point x="177" y="688"/>
      <point x="276" y="816"/>
      <point x="276" y="925" type="qcurve" smooth="yes"/>
      <point x="276" y="1132" type="line" smooth="yes"/>
      <point x="276" y="1237"/>
      <point x="341" y="1420"/>
      <point x="496" y="1559"/>
      <point x="632" y="1597" type="qcurve"/>
      <point x="671" y="1483" type="line"/>
      <point x="552" y="1446"/>
      <point x="462" y="1255"/>
      <point x="462" y="1132" type="qcurve" smooth="yes"/>
      <point x="462" y="925" type="line" smooth="yes"/>
      <point x="462" y="825"/>
      <point x="382" y="662"/>
      <point x="295" y="615" type="qcurve"/>
      <point x="382" y="569"/>
      <point x="462" y="405"/>
      <point x="462" y="305" type="qcurve" smooth="yes"/>
      <point x="462" y="99" type="line" smooth="yes"/>
      <point x="462" y="-24"/>
      <point x="553" y="-213"/>
    </contour>
  </outline>
</glyph>
<glyph name="bar" format="2">
  <advance width="500"/>
  <unicode hex="007C"/>
  <outline>
    <contour>
      <point x="325" y="1456" type="line"/>
      <point x="325" y="-270" type="line"/>
      <point x="176" y="-270" type="line"/>
      <point x="176" y="1456" type="line"/>
    </contour>
  </outline>
</glyph>
<glyph name="braceright" format="2">
  <advance width="693"/>
  <unicode hex="007D"/>
  <outline>
    <contour>
      <point x="59" y="-366" type="qcurve"/>
      <point x="20" y="-251" type="line"/>
      <point x="139" y="-213"/>
      <point x="229" y="-24"/>
      <point x="229" y="99" type="qcurve" smooth="yes"/>
      <point x="229" y="305" type="line" smooth="yes"/>
      <point x="229" y="410"/>
      <point x="316" y="572"/>
      <point x="411" y="615" type="qcurve"/>
      <point x="316" y="658"/>
      <point x="229" y="821"/>
      <point x="229" y="925" type="qcurve" smooth="yes"/>
      <point x="229" y="1132" type="line" smooth="yes"/>
      <point x="229" y="1255"/>
      <point x="139" y="1446"/>
      <point x="20" y="1483" type="qcurve"/>
      <point x="59" y="1597" type="line"/>
      <point x="196" y="1559"/>
      <point x="351" y="1420"/>
      <point x="415" y="1237"/>
      <point x="415" y="1132" type="qcurve" smooth="yes"/>
      <point x="415" y="925" type="line" smooth="yes"/>
      <point x="415" y="816"/>
      <point x="515" y="688"/>
      <point x="627" y="688" type="qcurve"/>
      <point x="627" y="543" type="line"/>
      <point x="515" y="543"/>
      <point x="415" y="414"/>
      <point x="415" y="305" type="qcurve" smooth="yes"/>
      <point x="415" y="99" type="line" smooth="yes"/>
      <point x="415" y="-6"/>
      <point x="351" y="-189"/>
      <point x="196" y="-327"/>
    </contour>
  </outline>
</glyph>
<glyph name="cent" format="2">
  <advance width="1121"/>
  <unicode hex="00A2"/>
  <outline>
    <contour>
      <point x="587" y="132" type="qcurve" smooth="yes"/>
      <point x="686" y="132"/>
      <point x="835" y="251"/>
      <point x="842" y="342" type="qcurve"/>
      <point x="1018" y="342" type="line"/>
      <point x="1013" y="257"/>
      <point x="919" y="109"/>
      <point x="765" y="5"/>
      <point x="670" y="-13" type="qcurve"/>
      <point x="670" y="-245" type="line"/>
      <point x="484" y="-245" type="line"/>
      <point x="484" y="-11" type="line"/>
      <point x="356" y="13"/>
      <point x="188" y="167"/>
      <point x="105" y="391"/>
      <point x="105" y="520" type="qcurve" smooth="yes"/>
      <point x="105" y="562" type="line" smooth="yes"/>
      <point x="105" y="691"/>
      <point x="188" y="915"/>
      <point x="356" y="1069"/>
      <point x="484" y="1093" type="qcurve"/>
      <point x="484" y="1318" type="line"/>
      <point x="670" y="1318" type="line"/>
      <point x="670" y="1096" type="line"/>
      <point x="825" y="1071"/>
      <point x="1011" y="858"/>
      <point x="1018" y="710" type="qcurve"/>
      <point x="842" y="710" type="line"/>
      <point x="835" y="810"/>
      <point x="698" y="950"/>
      <point x="587" y="950" type="qcurve" smooth="yes"/>
      <point x="473" y="950"/>
      <point x="344" y="834"/>
      <point x="291" y="656"/>
      <point x="291" y="562" type="qcurve" smooth="yes"/>
      <point x="291" y="520" type="line" smooth="yes"/>
      <point x="291" y="425"/>
      <point x="343" y="247"/>
      <point x="472" y="132"/>
    </contour>
  </outline>
</glyph>
<glyph name="currency" format="2">
  <advance width="1461"/>
  <unicode hex="00A4"/>
  <outline>
    <contour>
      <point x="140" y="608" type="qcurve" smooth="yes"/>
      <point x="140" y="713"/>
      <point x="199" y="901"/>
      <point x="252" y="978" type="qcurve"/>
      <point x="105" y="1128" type="line"/>
      <point x="236" y="1264" type="line"/>
      <point x="382" y="1115" type="line"/>
      <point x="456" y="1171"/>
      <point x="636" y="1234"/>
      <point x="735" y="1234" type="qcurve" smooth="yes"/>
      <point x="835" y="1234"/>
      <point x="1016" y="1170"/>
      <point x="1090" y="1113" type="qcurve"/>
      <point x="1239" y="1265" type="line"/>
      <point x="1371" y="1128" type="line"/>
      <point x="1220" y="974" type="line"/>
      <point x="1272" y="898"/>
      <point x="1330" y="712"/>
      <point x="1330" y="608" type="qcurve" smooth="yes"/>
      <point x="1330" y="509"/>
      <point x="1277" y="329"/>
      <point x="1229" y="254" type="qcurve"/>
      <point x="1371" y="110" type="line"/>
      <point x="1239" y="-27" type="line"/>
      <point x="1103" y="112" type="line"/>
      <point x="1027" y="50"/>
      <point x="839" y="-20"/>
      <point x="735" y="-20" type="qcurve" smooth="yes"/>
      <point x="632" y="-20"/>
      <point x="445" y="49"/>
      <point x="370" y="110" type="qcurve"/>
      <point x="236" y="-26" type="line"/>
      <point x="105" y="110" type="line"/>
      <point x="244" y="251" type="line"/>
      <point x="195" y="326"/>
      <point x="140" y="507"/>
    </contour>
    <contour>
      <point x="312" y="608" type="qcurve" smooth="yes"/>
      <point x="312" y="482"/>
      <point x="426" y="275"/>
      <point x="618" y="152"/>
      <point x="735" y="152" type="qcurve" smooth="yes"/>
      <point x="852" y="152"/>
      <point x="1044" y="275"/>
      <point x="1157" y="482"/>
      <point x="1157" y="608" type="qcurve" smooth="yes"/>
      <point x="1157" y="734"/>
      <point x="1044" y="940"/>
      <point x="852" y="1062"/>
      <point x="735" y="1062" type="qcurve" smooth="yes"/>
      <point x="618" y="1062"/>
      <point x="426" y="940"/>
      <point x="312" y="734"/>
    </contour>
  </outline>
</glyph>
<glyph name="yen" format="2">
  <advance width="1076"/>
  <unicode hex="00A5"/>
  <outline>
    <contour>
      <point x="955" y="446" type="line"/>
      <point x="955" y="322" type="line"/>
      <point x="630" y="322" type="line"/>
      <point x="630" y="0" type="line"/>
      <point x="438" y="0" type="line"/>
      <point x="438" y="322" type="line"/>
      <point x="120" y="322" type="line"/>
      <point x="120" y="446" type="line"/>
      <point x="438" y="446" type="line"/>
      <point x="438" y="612" type="line"/>
      <point x="120" y="612" type="line"/>
      <point x="120" y="737" type="line"/>
      <point x="382" y="737" type="line"/>
      <point x="15" y="1456" type="line"/>
      <point x="232" y="1456" type="line"/>
      <point x="539" y="793" type="line"/>
      <point x="847" y="1456" type="line"/>
      <point x="1060" y="1456" type="line"/>
      <point x="695" y="737" type="line"/>
      <point x="955" y="737" type="line"/>
      <point x="955" y="612" type="line"/>
      <point x="631" y="612" type="line"/>
      <point x="630" y="610" type="line"/>
      <point x="630" y="446" type="line"/>
    </contour>
  </outline>
</glyph>
<glyph name="section" format="2">
  <advance width="1256"/>
  <unicode hex="00A7"/>
  <outline>
    <contour>
      <point x="1100" y="-129" type="qcurve" smooth="yes"/>
      <point x="1100" y="-303"/>
      <point x="834" y="-495"/>
      <point x="613" y="-495" type="qcurve" smooth="yes"/>
      <point x="517" y="-495"/>
      <point x="331" y="-451"/>
      <point x="180" y="-351"/>
      <point x="91" y="-185"/>
      <point x="91" y="-64" type="qcurve"/>
      <point x="276" y="-62" type="line"/>
      <point x="276" y="-168"/>
      <point x="379" y="-291"/>
      <point x="534" y="-343"/>
      <point x="613" y="-343" type="qcurve" smooth="yes"/>
      <point x="757" y="-343"/>
      <point x="915" y="-221"/>
      <point x="915" y="-131" type="qcurve" smooth="yes"/>
      <point x="915" y="-69"/>
      <point x="852" y="15"/>
      <point x="699" y="86"/>
      <point x="564" y="126" type="qcurve" smooth="yes"/>
      <point x="418" y="166"/>
      <point x="209" y="268"/>
      <point x="97" y="427"/>
      <point x="97" y="551" type="qcurve" smooth="yes"/>
      <point x="97" y="644"/>
      <point x="193" y="785"/>
      <point x="279" y="825" type="qcurve"/>
      <point x="212" y="874"/>
      <point x="142" y="1012"/>
      <point x="142" y="1111" type="qcurve" smooth="yes"/>
      <point x="142" y="1277"/>
      <point x="408" y="1477"/>
      <point x="631" y="1477" type="qcurve" smooth="yes"/>
      <point x="860" y="1477"/>
      <point x="1122" y="1255"/>
      <point x="1122" y="1046" type="qcurve"/>
      <point x="937" y="1046" type="line"/>
      <point x="937" y="1162"/>
      <point x="780" y="1325"/>
      <point x="631" y="1325" type="qcurve" smooth="yes"/>
      <point x="474" y="1325"/>
      <point x="327" y="1200"/>
      <point x="327" y="1113" type="qcurve" smooth="yes"/>
      <point x="327" y="1046"/>
      <point x="384" y="961"/>
      <point x="536" y="894"/>
      <point x="676" y="855" type="qcurve" smooth="yes"/>
      <point x="825" y="814"/>
      <point x="1035" y="712"/>
      <point x="1145" y="556"/>
      <point x="1145" y="431" type="qcurve" smooth="yes"/>
      <point x="1145" y="336"/>
      <point x="1048" y="197"/>
      <point x="960" y="157" type="qcurve"/>
      <point x="1028" y="109"/>
      <point x="1100" y="-28"/>
    </contour>
    <contour>
      <point x="637" y="290" type="qcurve" smooth="yes"/>
      <point x="681" y="277"/>
      <point x="763" y="252"/>
      <point x="799" y="238" type="qcurve"/>
      <point x="876" y="259"/>
      <point x="960" y="360"/>
      <point x="960" y="428" type="qcurve" smooth="yes"/>
      <point x="960" y="491"/>
      <point x="895" y="577"/>
      <point x="740" y="650"/>
      <point x="603" y="691" type="qcurve" smooth="yes"/>
      <point x="558" y="703"/>
      <point x="474" y="729"/>
      <point x="437" y="744" type="qcurve"/>
      <point x="358" y="725"/>
      <point x="282" y="622"/>
      <point x="282" y="553" type="qcurve" smooth="yes"/>
      <point x="282" y="486"/>
      <point x="340" y="399"/>
      <point x="494" y="330"/>
    </contour>
  </outline>
</glyph>
<glyph name="threesuperior" format="2">
  <advance width="751"/>
  <unicode hex="00B3"/>
  <outline>
    <contour>
      <point x="266" y="1011" type="line"/>
      <point x="266" y="1126" type="line"/>
      <point x="350" y="1126" type="line" smooth="yes"/>
      <point x="423" y="1126"/>
      <point x="496" y="1187"/>
      <point x="496" y="1235" type="qcurve" smooth="yes"/>
      <point x="496" y="1279"/>
      <point x="432" y="1339"/>
      <point x="363" y="1339" type="qcurve" smooth="yes"/>
      <point x="306" y="1339"/>
      <point x="231" y="1289"/>
      <point x="231" y="1246" type="qcurve"/>
      <point x="74" y="1246" type="line"/>
      <point x="74" y="1348"/>
      <point x="240" y="1467"/>
      <point x="360" y="1467" type="qcurve" smooth="yes"/>
      <point x="491" y="1467"/>
      <point x="653" y="1353"/>
      <point x="653" y="1243" type="qcurve" smooth="yes"/>
      <point x="653" y="1188"/>
      <point x="584" y="1097"/>
      <point x="519" y="1072" type="qcurve"/>
      <point x="667" y="1030"/>
      <point x="667" y="887" type="qcurve" smooth="yes"/>
      <point x="667" y="777"/>
      <point x="492" y="656"/>
      <point x="361" y="656" type="qcurve" smooth="yes"/>
      <point x="286" y="656"/>
      <point x="149" y="705"/>
      <point x="63" y="809"/>
      <point x="63" y="890" type="qcurve"/>
      <point x="220" y="890" type="line"/>
      <point x="220" y="845"/>
      <point x="300" y="784"/>
      <point x="366" y="784" type="qcurve" smooth="yes"/>
      <point x="436" y="784"/>
      <point x="509" y="846"/>
      <point x="509" y="895" type="qcurve" smooth="yes"/>
      <point x="509" y="958"/>
      <point x="424" y="1011"/>
      <point x="350" y="1011" type="qcurve" smooth="yes"/>
    </contour>
  </outline>
</glyph>
<glyph name="mu" format="2">
  <advance width="1161"/>
  <unicode hex="00B5"/>
  <outline>
    <contour>
      <point x="155" y="1082" type="line"/>
      <point x="339" y="1082" type="line"/>
      <point x="339" y="460" type="line" smooth="yes"/>
      <point x="339" y="323"/>
      <point x="399" y="181"/>
      <point x="499" y="131"/>
      <point x="560" y="131" type="qcurve" smooth="yes"/>
      <point x="669" y="131"/>
      <point x="792" y="213"/>
      <point x="821" y="284" type="qcurve"/>
      <point x="821" y="1082" type="line"/>
      <point x="1006" y="1082" type="line"/>
      <point x="1006" y="0" type="line"/>
      <point x="839" y="0" type="line"/>
      <point x="831" y="115" type="line"/>
      <point x="788" y="51"/>
      <point x="657" y="-21"/>
      <point x="568" y="-21" type="qcurve" smooth="yes"/>
      <point x="420" y="-21"/>
      <point x="339" y="53" type="qcurve"/>
      <point x="339" y="-416" type="line"/>
      <point x="155" y="-416" type="line"/>
    </contour>
  </outline>
</glyph>
<glyph name="paragraph" format="2">
  <advance width="1002"/>
  <unicode hex="00B6"/>
  <outline>
    <contour>
      <point x="833" y="0" type="line"/>
      <point x="647" y="0" type="line"/>
      <point x="647" y="520" type="line"/>
      <point x="560" y="520" type="line" smooth="yes"/>
      <point x="401" y="520"/>
      <point x="181" y="641"/>
      <point x="68" y="853"/>
      <point x="68" y="988" type="qcurve" smooth="yes"/>
      <point x="68" y="1122"/>
      <point x="181" y="1334"/>
      <point x="401" y="1456"/>
      <point x="560" y="1456" type="qcurve" smooth="yes"/>
      <point x="833" y="1456" type="line"/>
    </contour>
  </outline>
</glyph>
<glyph name="periodcentered" format="2">
  <advance width="535"/>
  <unicode hex="00B7"/>
  <outline>
    <contour>
      <point x="148" y="729" type="qcurve" smooth="yes"/>
      <point x="148" y="776"/>
      <point x="206" y="841"/>
      <point x="262" y="841" type="qcurve" smooth="yes"/>
      <point x="318" y="841"/>
      <point x="377" y="776"/>
      <point x="377" y="729" type="qcurve" smooth="yes"/>
      <point x="377" y="683"/>
      <point x="318" y="620"/>
      <point x="262" y="620" type="qcurve" smooth="yes"/>
      <point x="206" y="620"/>
      <point x="148" y="683"/>
    </contour>
  </outline>
</glyph>
<glyph name="guillemotright" format="2">
  <advance width="918"/>
  <unicode hex="00BB"/>
  <outline>
    <contour>
      <point x="472" y="61" type="line"/>
      <point x="567" y="189"/>
      <point x="661" y="370"/>
      <point x="661" y="452" type="qcurve" smooth="yes"/>
      <point x="661" y="534"/>
      <point x="567" y="714"/>
      <point x="472" y="841" type="qcurve"/>
      <point x="567" y="933" type="line"/>
      <point x="692" y="787"/>
      <point x="816" y="559"/>
      <point x="816" y="452" type="qcurve" smooth="yes"/>
      <point x="816" y="345"/>
      <point x="692" y="117"/>
      <point x="567" y="-30" type="qcurve"/>
    </contour>
    <contour>
      <point x="119" y="61" type="line"/>
      <point x="214" y="189"/>
      <point x="308" y="370"/>
      <point x="308" y="452" type="qcurve" smooth="yes"/>
      <point x="308" y="534"/>
      <point x="214" y="714"/>
      <point x="119" y="841" type="qcurve"/>
      <point x="214" y="933" type="line"/>
      <point x="339" y="788"/>
      <point x="462" y="559"/>
      <point x="462" y="452" type="qcurve" smooth="yes"/>
      <point x="462" y="345"/>
      <point x="338" y="116"/>
      <point x="214" y="-30" type="qcurve"/>
    </contour>
  </outline>
</glyph>
<glyph name="questiondown" format="2">
  <advance width="970"/>
  <unicode hex="00BF"/>
  <outline>
    <contour>
      <point x="597" y="997" type="qcurve" smooth="yes"/>
      <point x="597" y="953"/>
      <point x="541" y="891"/>
      <point x="488" y="891" type="qcurve" smooth="yes"/>
      <point x="434" y="891"/>
      <point x="378" y="953"/>
      <point x="378" y="997" type="qcurve" smooth="yes"/>
      <point x="378" y="1041"/>
      <point x="434" y="1102"/>
      <point x="488" y="1102" type="qcurve" smooth="yes"/>
      <point x="541" y="1102"/>
      <point x="597" y="1041"/>
    </contour>
    <contour>
      <point x="403" y="680" type="qcurve"/>
      <point x="589" y="680" type="line"/>
      <point x="588" y="584"/>
      <point x="555" y="465"/>
      <point x="482" y="365"/>
      <point x="420" y="298" type="qcurve" smooth="yes"/>
      <point x="378" y="253"/>
      <point x="302" y="169"/>
      <point x="254" y="69"/>
      <point x="254" y="0" type="qcurve" smooth="yes"/>
      <point x="254" y="-109"/>
      <point x="370" y="-224"/>
      <point x="478" y="-224" type="qcurve" smooth="yes"/>
      <point x="566" y="-224"/>
      <point x="703" y="-124"/>
      <point x="704" y="-20" type="qcurve"/>
      <point x="889" y="-20" type="line"/>
      <point x="888" y="-133"/>
      <point x="779" y="-298"/>
      <point x="594" y="-386"/>
      <point x="478" y="-386" type="qcurve" smooth="yes"/>
      <point x="283" y="-386"/>
      <point x="68" y="-186"/>
      <point x="68" y="-6" type="qcurve" smooth="yes"/>
      <point x="68" y="85"/>
      <point x="141" y="240"/>
      <point x="253" y="373"/>
      <point x="313" y="431" type="qcurve" smooth="yes"/>
      <point x="367" y="483"/>
      <point x="403" y="607"/>
    </contour>
  </outline>
</glyph>
<glyph name="multiply" format="2">
  <advance width="1028"/>
  <unicode hex="00D7"/>
  <outline>
    <contour>
      <point x="407" y="515" type="line"/>
      <point x="142" y="786" type="line"/>
      <point x="247" y="896" type="line"/>
      <point x="514" y="624" type="line"/>
      <point x="781" y="896" type="line"/>
      <point x="886" y="786" type="line"/>
      <point x="621" y="515" type="line"/>
      <point x="888" y="243" type="line"/>
      <point x="782" y="133" type="line"/>
      <point x="514" y="406" type="line"/>
      <point x="246" y="133" type="line"/>
      <point x="140" y="243" type="line"/>
    </contour>
  </outline>
</glyph>
<glyph name="Thorn" format="2">
  <advance width="1210"/>
  <unicode hex="00DE"/>
  <outline>
    <contour>
      <point x="167" y="1456" type="line"/>
      <point x="352" y="1456" type="line"/>
      <point x="352" y="1163" type="line"/>
      <point x="630" y="1163" type="line" smooth="yes"/>
      <point x="788" y="1163"/>
      <point x="1005" y="1053"/>
      <point x="1117" y="861"/>
      <point x="1117" y="738" type="qcurve" smooth="yes"/>
      <point x="1117" y="616"/>
      <point x="1005" y="424"/>
      <point x="788" y="314"/>
      <point x="630" y="314" type="qcurve" smooth="yes"/>
      <point x="352" y="314" type="line"/>
      <point x="352" y="0" type="line"/>
      <point x="167" y="0" type="line"/>
    </contour>
    <contour>
      <point x="630" y="1012" type="qcurve" smooth="yes"/>
      <point x="352" y="1012" type="line"/>
      <point x="352" y="465" type="line"/>
      <point x="630" y="465" type="line" smooth="yes"/>
      <point x="738" y="465"/>
      <point x="871" y="544"/>
      <point x="932" y="668"/>
      <point x="932" y="736" type="qcurve" smooth="yes"/>
      <point x="932" y="806"/>
      <point x="871" y="932"/>
      <point x="738" y="1012"/>
    </contour>
  </outline>
</glyph>
<glyph name="germandbls" format="2">
  <advance width="1218"/>
  <unicode hex="00DF"/>
  <outline>
    <contour>
      <point x="324" y="1112" type="qcurve" smooth="yes"/>
      <point x="324" y="0" type="line"/>
      <point x="140" y="0" type="line"/>
      <point x="140" y="1112" type="line" smooth="yes"/>
      <point x="140" y="1331"/>
      <point x="358" y="1554"/>
      <point x="533" y="1554" type="qcurve" smooth="yes"/>
      <point x="696" y="1554"/>
      <point x="909" y="1390"/>
      <point x="909" y="1217" type="qcurve" smooth="yes"/>
      <point x="909" y="1137"/>
      <point x="870" y="1030"/>
      <point x="820" y="949"/>
      <point x="781" y="871"/>
      <point x="781" y="820" type="qcurve" smooth="yes"/>
      <point x="781" y="765"/>
      <point x="851" y="678"/>
      <point x="955" y="598"/>
      <point x="1060" y="508"/>
      <point x="1130" y="394"/>
      <point x="1130" y="317" type="qcurve" smooth="yes"/>
      <point x="1130" y="146"/>
      <point x="913" y="-20"/>
      <point x="745" y="-20" type="qcurve" smooth="yes"/>
      <point x="691" y="-20"/>
      <point x="571" y="1"/>
      <point x="472" y="34"/>
      <point x="446" y="52" type="qcurve"/>
      <point x="488" y="207" type="line"/>
      <point x="523" y="185"/>
      <point x="656" y="131"/>
      <point x="726" y="131" type="qcurve" smooth="yes"/>
      <point x="843" y="131"/>
      <point x="945" y="235"/>
      <point x="945" y="308" type="qcurve" smooth="yes"/>
      <point x="945" y="365"/>
      <point x="875" y="452"/>
      <point x="771" y="533"/>
      <point x="666" y="623"/>
      <point x="596" y="741"/>
      <point x="596" y="822" type="qcurve" smooth="yes"/>
      <point x="596" y="882"/>
      <point x="638" y="974"/>
      <point x="692" y="1055"/>
      <point x="734" y="1144"/>
      <point x="734" y="1201" type="qcurve" smooth="yes"/>
      <point x="734" y="1301"/>
      <point x="625" y="1403"/>
      <point x="543" y="1403" type="qcurve" smooth="yes"/>
      <point x="440" y="1403"/>
      <point x="324" y="1262"/>
    </contour>
  </outline>
</glyph>
<glyph name="divide" format="2">
  <advance width="1164"/>
  <unicode hex="00F7"/>
  <outline>
    <contour>
      <point x="469" y="851" type="qcurve" smooth="yes"/>
      <point x="469" y="899"/>
      <point x="538" y="969"/>
      <point x="586" y="969" type="qcurve" smooth="yes"/>
      <point x="634" y="969"/>
      <point x="703" y="899"/>
      <point x="703" y="851" type="qcurve" smooth="yes"/>
      <point x="703" y="803"/>
      <point x="634" y="734"/>
      <point x="586" y="734" type="qcurve" smooth="yes"/>
      <point x="538" y="734"/>
      <point x="469" y="802"/>
    </contour>
    <contour>
      <point x="140" y="447" type="line"/>
      <point x="140" y="598" type="line"/>
      <point x="1024" y="598" type="line"/>
      <point x="1024" y="447" type="line"/>
    </contour>
    <contour>
      <point x="469" y="189" type="qcurve" smooth="yes"/>
      <point x="469" y="237"/>
      <point x="538" y="307"/>
      <point x="586" y="307" type="qcurve" smooth="yes"/>
      <point x="634" y="307"/>
      <point x="703" y="237"/>
      <point x="703" y="189" type="qcurve" smooth="yes"/>
      <point x="703" y="141"/>
      <point x="634" y="72"/>
      <point x="586" y="72" type="qcurve" smooth="yes"/>
      <point x="538" y="72"/>
      <point x="469" y="140"/>
    </contour>
  </outline>
</glyph>
<glyph name="oslash" format="2">
  <advance width="1161"/>
  <unicode hex="00F8"/>
  <anchor x="537" y="1289" name="Anchor-0"/>
  <outline>
    <contour>
      <point x="92" y="529" type="qcurve" smooth="yes"/>
      <point x="92" y="552" type="line" smooth="yes"/>
      <point x="92" y="709"/>
      <point x="212" y="957"/>
      <point x="432" y="1102"/>
      <point x="583" y="1102" type="qcurve" smooth="yes"/>
      <point x="694" y="1102"/>
      <point x="787" y="1061" type="qcurve"/>
      <point x="860" y="1209" type="line"/>
      <point x="983" y="1209" type="line"/>
      <point x="882" y="1004" type="line"/>
      <point x="975" y="930"/>
      <point x="1076" y="695"/>
      <point x="1076" y="552" type="qcurve" smooth="yes"/>
      <point x="1076" y="529" type="line" smooth="yes"/>
      <point x="1076" y="373"/>
      <point x="957" y="124"/>
      <point x="737" y="-20"/>
      <point x="585" y="-20" type="qcurve" smooth="yes"/>
      <point x="482" y="-20"/>
      <point x="394" y="16" type="qcurve"/>
      <point x="320" y="-135" type="line"/>
      <point x="197" y="-135" type="line"/>
      <point x="298" y="69" type="line"/>
      <point x="200" y="142"/>
      <point x="92" y="381"/>
    </contour>
    <contour>
      <point x="277" y="552" type="qcurve" smooth="yes"/>
      <point x="277" y="529" type="line" smooth="yes"/>
      <point x="277" y="438"/>
      <point x="325" y="279"/>
      <point x="374" y="224" type="qcurve"/>
      <point x="717" y="918" type="line"/>
      <point x="657" y="950"/>
      <point x="583" y="950" type="qcurve" smooth="yes"/>
      <point x="481" y="950"/>
      <point x="345" y="839"/>
      <point x="277" y="658"/>
    </contour>
    <contour>
      <point x="891" y="552" type="line" smooth="yes"/>
      <point x="891" y="637"/>
      <point x="847" y="789"/>
      <point x="803" y="845" type="qcurve"/>
      <point x="464" y="157" type="line"/>
      <point x="519" y="132"/>
      <point x="585" y="132" type="qcurve" smooth="yes"/>
      <point x="687" y="132"/>
      <point x="823" y="241"/>
      <point x="891" y="422"/>
      <point x="891" y="529" type="qcurve" smooth="yes"/>
    </contour>
  </outline>
</glyph>
<glyph name="thorn" format="2">
  <advance width="1180"/>
  <unicode hex="00FE"/>
  <outline>
    <contour>
      <point x="1064" y="550" type="qcurve" smooth="yes"/>
      <point x="1064" y="529" type="line" smooth="yes"/>
      <point x="1064" y="371"/>
      <point x="966" y="123"/>
      <point x="778" y="-20"/>
      <point x="644" y="-20" type="qcurve" smooth="yes"/>
      <point x="544" y="-20"/>
      <point x="390" y="45"/>
      <point x="335" y="105" type="qcurve"/>
      <point x="335" y="-416" type="line"/>
      <point x="149" y="-416" type="line"/>
      <point x="149" y="1536" type="line"/>
      <point x="335" y="1536" type="line"/>
      <point x="335" y="971" type="line"/>
      <point x="390" y="1035"/>
      <point x="542" y="1102"/>
      <point x="641" y="1102" type="qcurve" smooth="yes"/>
      <point x="778" y="1102"/>
      <point x="966" y="964"/>
      <point x="1064" y="715"/>
    </contour>
    <contour>
      <point x="878" y="529" type="qcurve" smooth="yes"/>
      <point x="878" y="550" type="line" smooth="yes"/>
      <point x="878" y="658"/>
      <point x="817" y="838"/>
      <point x="688" y="946"/>
      <point x="587" y="946" type="qcurve" smooth="yes"/>
      <point x="493" y="946"/>
      <point x="371" y="861"/>
      <point x="335" y="797" type="qcurve"/>
      <point x="335" y="279" type="line"/>
      <point x="372" y="215"/>
      <point x="493" y="132"/>
      <point x="589" y="132" type="qcurve" smooth="yes"/>
      <point x="689" y="132"/>
      <point x="817" y="241"/>
      <point x="878" y="422"/>
    </contour>
  </outline>
</glyph>
<glyph name="Aogonek" format="2">
  <advance width="1336"/>
  <unicode hex="0104"/>
  <anchor x="686" y="0" name="Anchor-1"/>
  <anchor x="672" y="1601" name="Anchor-0"/>
  <outline>
    <contour>
      <point x="29" y="0" type="line"/>
      <point x="584" y="1456" type="line"/>
      <point x="753" y="1456" type="line"/>
      <point x="1310" y="0" type="line"/>
      <point x="1272" y="0" type="line"/>
      <point x="1208" y="-48"/>
      <point x="1101" y="-157"/>
      <point x="1101" y="-222" type="qcurve" smooth="yes"/>
      <point x="1101" y="-255"/>
      <point x="1136" y="-295"/>
      <point x="1179" y="-295" type="qcurve" smooth="yes"/>
      <point x="1212" y="-295"/>
      <point x="1264" y="-276"/>
      <point x="1279" y="-268" type="qcurve"/>
      <point x="1293" y="-390" type="line"/>
      <point x="1268" y="-405"/>
      <point x="1191" y="-434"/>
      <point x="1132" y="-434" type="qcurve" smooth="yes"/>
      <point x="1051" y="-434"/>
      <point x="940" y="-337"/>
      <point x="940" y="-243" type="qcurve" smooth="yes"/>
      <point x="940" y="-177"/>
      <point x="1020" y="-48"/>
      <point x="1109" y="9" type="qcurve"/>
      <point x="973" y="381" type="line"/>
      <point x="364" y="381" type="line"/>
      <point x="226" y="0" type="line"/>
    </contour>
    <contour>
      <point x="422" y="539" type="line"/>
      <point x="916" y="539" type="line"/>
      <point x="669" y="1218" type="line"/>
    </contour>
  </outline>
</glyph>
<glyph name="eogonek" format="2">
  <advance width="1086"/>
  <unicode hex="0119"/>
  <anchor x="568" y="0" name="Anchor-1"/>
  <anchor x="565" y="1290" name="Anchor-0"/>
  <outline>
    <contour>
      <point x="833" y="-364" type="line"/>
      <point x="808" y="-379"/>
      <point x="731" y="-408"/>
      <point x="672" y="-408" type="qcurve" smooth="yes"/>
      <point x="591" y="-408"/>
      <point x="480" y="-311"/>
      <point x="480" y="-217" type="qcurve" smooth="yes"/>
      <point x="480" y="-167"/>
      <point x="527" y="-66"/>
      <point x="577" y="-20" type="qcurve"/>
      <point x="430" y="-17"/>
      <point x="212" y="119"/>
      <point x="93" y="353"/>
      <point x="93" y="503" type="qcurve" smooth="yes"/>
      <point x="93" y="545" type="line" smooth="yes"/>
      <point x="93" y="722"/>
      <point x="228" y="971"/>
      <point x="445" y="1102"/>
      <point x="566" y="1102" type="qcurve" smooth="yes"/>
      <point x="721" y="1102"/>
      <point x="918" y="963"/>
      <point x="1011" y="724"/>
      <point x="1011" y="572" type="qcurve" smooth="yes"/>
      <point x="1011" y="489" type="line"/>
      <point x="279" y="489" type="line"/>
      <point x="282" y="390"/>
      <point x="360" y="227"/>
      <point x="501" y="131"/>
      <point x="600" y="131" type="qcurve" smooth="yes"/>
      <point x="698" y="131"/>
      <point x="834" y="211"/>
      <point x="885" y="278" type="qcurve"/>
      <point x="997" y="189" type="line"/>
      <point x="966" y="142"/>
      <point x="875" y="55"/>
      <point x="811" y="25" type="qcurve"/>
      <point x="747" y="-23"/>
      <point x="641" y="-131"/>
      <point x="641" y="-196" type="qcurve" smooth="yes"/>
      <point x="641" y="-229"/>
      <point x="676" y="-269"/>
      <point x="719" y="-269" type="qcurve" smooth="yes"/>
      <point x="752" y="-269"/>
      <point x="804" y="-250"/>
      <point x="819" y="-242" type="qcurve"/>
    </contour>
    <contour>
      <point x="566" y="950" type="qcurve" smooth="yes"/>
      <point x="456" y="950"/>
      <point x="304" y="790"/>
      <point x="285" y="640" type="qcurve"/>
      <point x="826" y="640" type="line"/>
      <point x="826" y="654" type="line"/>
      <point x="822" y="726"/>
      <point x="771" y="862"/>
      <point x="661" y="950"/>
    </contour>
  </outline>
</glyph>
<glyph name="hbar" format="2">
  <advance width="1158"/>
  <unicode hex="0127"/>
  <anchor x="588" y="10" name="Anchor-1"/>
  <anchor x="501" y="1611" name="Anchor-0"/>
  <outline>
    <contour>
      <point x="638" y="1385" type="line"/>
      <point x="638" y="1233" type="line"/>
      <point x="356" y="1233" type="line"/>
      <point x="356" y="953" type="line"/>
      <point x="414" y="1023"/>
      <point x="576" y="1102"/>
      <point x="675" y="1102" type="qcurve" smooth="yes"/>
      <point x="835" y="1102"/>
      <point x="1022" y="922"/>
      <point x="1022" y="709" type="qcurve" smooth="yes"/>
      <point x="1022" y="0" type="line"/>
      <point x="836" y="0" type="line"/>
      <point x="836" y="711" type="line" smooth="yes"/>
      <point x="836" y="838"/>
      <point x="725" y="946"/>
      <point x="620" y="946" type="qcurve" smooth="yes"/>
      <point x="531" y="946"/>
      <point x="395" y="850"/>
      <point x="356" y="773" type="qcurve"/>
      <point x="356" y="0" type="line"/>
      <point x="171" y="0" type="line"/>
      <point x="171" y="1233" type="line"/>
      <point x="1" y="1233" type="line"/>
      <point x="1" y="1385" type="line"/>
      <point x="171" y="1385" type="line"/>
      <point x="171" y="1536" type="line"/>
      <point x="356" y="1536" type="line"/>
      <point x="356" y="1385" type="line"/>
    </contour>
  </outline>
</glyph>
<glyph name="Eng" format="2">
  <advance width="1419"/>
  <unicode hex="014A"/>
  <anchor x="720" y="10" name="Anchor-1"/>
  <anchor x="726" y="1601" name="Anchor-0"/>
  <outline>
    <contour>
      <point x="162" y="1456" type="line"/>
      <point x="355" y="1456" type="line"/>
      <point x="1072" y="327" type="line"/>
      <point x="1072" y="1456" type="line"/>
      <point x="1265" y="1456" type="line"/>
      <point x="1265" y="-84" type="line" smooth="yes"/>
      <point x="1265" y="-255"/>
      <point x="1091" y="-437"/>
      <point x="938" y="-437" type="qcurve" smooth="yes"/>
      <point x="907" y="-437"/>
      <point x="853" y="-430"/>
      <point x="823" y="-420" type="qcurve"/>
      <point x="837" y="-266" type="line"/>
      <point x="854" y="-272"/>
      <point x="920" y="-279"/>
      <point x="935" y="-279" type="qcurve" smooth="yes"/>
      <point x="1000" y="-279"/>
      <point x="1072" y="-175"/>
      <point x="1072" y="-84" type="qcurve" smooth="yes"/>
      <point x="1072" y="0" type="line"/>
      <point x="355" y="1129" type="line"/>
      <point x="355" y="0" type="line"/>
      <point x="162" y="0" type="line"/>
    </contour>
  </outline>
</glyph>
<glyph name="eng" format="2">
  <advance width="1161"/>
  <unicode hex="014B"/>
  <anchor x="563" y="10" name="Anchor-1"/>
  <anchor x="573" y="1290" name="Anchor-0"/>
  <outline>
    <contour>
      <point x="1009" y="-89" type="line" smooth="yes"/>
      <point x="1009" y="-258"/>
      <point x="838" y="-437"/>
      <point x="686" y="-437" type="qcurve" smooth="yes"/>
      <point x="655" y="-437"/>
      <point x="602" y="-430"/>
      <point x="572" y="-420" type="qcurve"/>
      <point x="586" y="-263" type="line"/>
      <point x="602" y="-269"/>
      <point x="672" y="-275"/>
      <point x="686" y="-275" type="qcurve" smooth="yes"/>
      <point x="751" y="-275"/>
      <point x="824" y="-181"/>
      <point x="824" y="-89" type="qcurve" smooth="yes"/>
      <point x="824" y="679" type="line" smooth="yes"/>
      <point x="824" y="829"/>
      <point x="701" y="946"/>
      <point x="588" y="946" type="qcurve" smooth="yes"/>
      <point x="495" y="946"/>
      <point x="368" y="874"/>
      <point x="331" y="812" type="qcurve"/>
      <point x="331" y="0" type="line"/>
      <point x="146" y="0" type="line"/>
      <point x="146" y="1082" type="line"/>
      <point x="312" y="1082" type="line"/>
      <point x="325" y="929" type="line"/>
      <point x="378" y="1010"/>
      <point x="539" y="1102"/>
      <point x="643" y="1102" type="qcurve" smooth="yes"/>
      <point x="812" y="1102"/>
      <point x="1009" y="905"/>
      <point x="1009" y="682" type="qcurve" smooth="yes"/>
    </contour>
  </outline>
</glyph>
<glyph name="OE" format="2">
  <advance width="1953"/>
  <unicode hex="0152"/>
  <anchor x="953" y="0" name="Anchor-1"/>
  <anchor x="953" y="1603" name="Anchor-0"/>
  <outline>
    <contour>
      <point x="660" y="1477" type="qcurve" smooth="yes"/>
      <point x="737" y="1477"/>
      <point x="887" y="1464"/>
      <point x="954" y="1456" type="qcurve"/>
      <point x="1791" y="1456" type="line"/>
      <point x="1791" y="1298" type="line"/>
      <point x="1069" y="1298" type="line"/>
      <point x="1069" y="830" type="line"/>
      <point x="1699" y="830" type="line"/>
      <point x="1699" y="673" type="line"/>
      <point x="1069" y="673" type="line"/>
      <point x="1069" y="157" type="line"/>
      <point x="1801" y="157" type="line"/>
      <point x="1801" y="0" type="line"/>
      <point x="954" y="0" type="line"/>
      <point x="887" y="-7"/>
      <point x="739" y="-21"/>
      <point x="662" y="-21" type="qcurve" smooth="yes"/>
      <point x="496" y="-21"/>
      <point x="246" y="130"/>
      <point x="105" y="400"/>
      <point x="105" y="576" type="qcurve" smooth="yes"/>
      <point x="105" y="880" type="line" smooth="yes"/>
      <point x="105" y="1057"/>
      <point x="245" y="1326"/>
      <point x="494" y="1477"/>
    </contour>
    <contour>
      <point x="290" y="576" type="line" smooth="yes"/>
      <point x="290" y="358"/>
      <point x="492" y="131"/>
      <point x="662" y="131" type="qcurve" smooth="yes"/>
      <point x="718" y="131"/>
      <point x="826" y="139"/>
      <point x="876" y="146" type="qcurve"/>
      <point x="876" y="1310" type="line"/>
      <point x="825" y="1317"/>
      <point x="716" y="1325"/>
      <point x="660" y="1325" type="qcurve" smooth="yes"/>
      <point x="490" y="1325"/>
      <point x="290" y="1100"/>
      <point x="290" y="882" type="qcurve" smooth="yes"/>
    </contour>
  </outline>
</glyph>
<glyph name="Tbar" format="2">
  <advance width="1222"/>
  <unicode hex="0166"/>
  <anchor x="614" y="0" name="Anchor-1"/>
  <anchor x="612" y="1600" name="Anchor-0"/>
  <outline>
    <contour>
      <point x="939" y="974" type="line"/>
      <point x="939" y="822" type="line"/>
      <point x="707" y="822" type="line"/>
      <point x="707" y="0" type="line"/>
      <point x="517" y="0" type="line"/>
      <point x="517" y="822" type="line"/>
      <point x="302" y="822" type="line"/>
      <point x="302" y="974" type="line"/>
      <point x="517" y="974" type="line"/>
      <point x="517" y="1298" type="line"/>
      <point x="50" y="1298" type="line"/>
      <point x="50" y="1456" type="line"/>
      <point x="1175" y="1456" type="line"/>
      <point x="1175" y="1298" type="line"/>
      <point x="707" y="1298" type="line"/>
      <point x="707" y="974" type="line"/>
    </contour>
  </outline>
</glyph>
<glyph name="Uogonek" format="2">
  <advance width="1328"/>
  <unicode hex="0172"/>
  <anchor x="666" y="0" name="Anchor-1"/>
  <anchor x="667" y="1601" name="Anchor-0"/>
  <outline>
    <contour>
      <point x="1002" y="1456" type="line"/>
      <point x="1194" y="1456" type="line"/>
      <point x="1194" y="471" type="line" smooth="yes"/>
      <point x="1194" y="307"/>
      <point x="1046" y="89"/>
      <point x="928" y="34" type="qcurve"/>
      <point x="867" y="-12"/>
      <point x="770" y="-116"/>
      <point x="770" y="-178" type="qcurve" smooth="yes"/>
      <point x="770" y="-211"/>
      <point x="805" y="-251"/>
      <point x="848" y="-251" type="qcurve" smooth="yes"/>
      <point x="881" y="-251"/>
      <point x="933" y="-232"/>
      <point x="948" y="-224" type="qcurve"/>
      <point x="962" y="-346" type="line"/>
      <point x="937" y="-361"/>
      <point x="860" y="-390"/>
      <point x="801" y="-390" type="qcurve" smooth="yes"/>
      <point x="720" y="-390"/>
      <point x="609" y="-293"/>
      <point x="609" y="-199" type="qcurve" smooth="yes"/>
      <point x="609" y="-153"/>
      <point x="647" y="-63"/>
      <point x="688" y="-20" type="qcurve"/>
      <point x="677" y="-20"/>
      <point x="666" y="-20" type="qcurve" smooth="yes"/>
      <point x="518" y="-20"/>
      <point x="279" y="89"/>
      <point x="140" y="307"/>
      <point x="140" y="471" type="qcurve" smooth="yes"/>
      <point x="140" y="1456" type="line"/>
      <point x="331" y="1456" type="line"/>
      <point x="331" y="471" type="line" smooth="yes"/>
      <point x="331" y="300"/>
      <point x="516" y="137"/>
      <point x="666" y="137" type="qcurve" smooth="yes"/>
      <point x="818" y="137"/>
      <point x="1002" y="300"/>
      <point x="1002" y="471" type="qcurve" smooth="yes"/>
    </contour>
  </outline>
</glyph>
<glyph name="uogonek" format="2">
  <advance width="1129"/>
  <unicode hex="0173"/>
  <anchor x="563" y="0" name="Anchor-1"/>
  <anchor x="567" y="1290" name="Anchor-0"/>
  <outline>
    <contour>
      <point x="1000" y="-390" type="line"/>
      <point x="975" y="-405"/>
      <point x="898" y="-434"/>
      <point x="839" y="-434" type="qcurve" smooth="yes"/>
      <point x="758" y="-434"/>
      <point x="647" y="-337"/>
      <point x="647" y="-243" type="qcurve" smooth="yes"/>
      <point x="647" y="-178"/>
      <point x="725" y="-50"/>
      <point x="812" y="6" type="qcurve"/>
      <point x="808" y="107" type="line"/>
      <point x="758" y="47"/>
      <point x="602" y="-20"/>
      <point x="492" y="-20" type="qcurve" smooth="yes"/>
      <point x="333" y="-20"/>
      <point x="137" y="168"/>
      <point x="137" y="384" type="qcurve" smooth="yes"/>
      <point x="137" y="1082" type="line"/>
      <point x="322" y="1082" type="line"/>
      <point x="322" y="382" type="line" smooth="yes"/>
      <point x="322" y="285"/>
      <point x="379" y="178"/>
      <point x="471" y="137"/>
      <point x="521" y="137" type="qcurve" smooth="yes"/>
      <point x="634" y="137"/>
      <point x="770" y="223"/>
      <point x="803" y="294" type="qcurve"/>
      <point x="803" y="1082" type="line"/>
      <point x="989" y="1082" type="line"/>
      <point x="989" y="0" type="line"/>
      <point x="979" y="0" type="line"/>
      <point x="915" y="-48"/>
      <point x="808" y="-157"/>
      <point x="808" y="-222" type="qcurve" smooth="yes"/>
      <point x="808" y="-255"/>
      <point x="843" y="-295"/>
      <point x="886" y="-295" type="qcurve" smooth="yes"/>
      <point x="919" y="-295"/>
      <point x="971" y="-276"/>
      <point x="986" y="-268" type="qcurve"/>
    </contour>
  </outline>
</glyph>
<glyph name="uni0181" format="2">
  <advance width="1480"/>
  <unicode hex="0181"/>
  <outline>
    <contour>
      <point x="534" y="1298" type="line"/>
      <point x="377" y="1298" type="line" smooth="yes"/>
      <point x="309" y="1298"/>
      <point x="225" y="1259"/>
      <point x="187" y="1182"/>
      <point x="187" y="1125" type="qcurve" smooth="yes"/>
      <point x="187" y="1111"/>
      <point x="191" y="1073"/>
      <point x="196" y="1058" type="qcurve"/>
      <point x="46" y="1057" type="line"/>
      <point x="39" y="1081"/>
      <point x="29" y="1147"/>
      <point x="29" y="1173" type="qcurve" smooth="yes"/>
      <point x="29" y="1268"/>
      <point x="109" y="1394"/>
      <point x="265" y="1456"/>
      <point x="377" y="1456" type="qcurve" smooth="yes"/>
      <point x="534" y="1456" type="line"/>
    </contour>
    <contour>
      <point x="892" y="681" type="line"/>
      <point x="523" y="681" type="line"/>
      <point x="521" y="836" type="line"/>
      <point x="856" y="836" type="line" smooth="yes"/>
      <point x="939" y="836"/>
      <point x="1063" y="892"/>
      <point x="1132" y="997"/>
      <point x="1132" y="1070" type="qcurve" smooth="yes"/>
      <point x="1132" y="1150"/>
      <point x="1071" y="1251"/>
      <point x="946" y="1298"/>
      <point x="850" y="1298" type="qcurve" smooth="yes"/>
      <point x="566" y="1298" type="line"/>
      <point x="566" y="0" type="line"/>
      <point x="373" y="0" type="line"/>
      <point x="373" y="1456" type="line"/>
      <point x="850" y="1456" type="line" smooth="yes"/>
      <point x="962" y="1456"/>
      <point x="1138" y="1411"/>
      <point x="1261" y="1316"/>
      <point x="1325" y="1170"/>
      <point x="1325" y="1068" type="qcurve" smooth="yes"/>
      <point x="1325" y="978"/>
      <point x="1233" y="833"/>
      <point x="1070" y="741"/>
      <point x="961" y="728" type="qcurve"/>
    </contour>
    <contour>
      <point x="883" y="0" type="qcurve" smooth="yes"/>
      <point x="447" y="0" type="line"/>
      <point x="556" y="157" type="line"/>
      <point x="883" y="157" type="line" smooth="yes"/>
      <point x="975" y="157"/>
      <point x="1104" y="221"/>
      <point x="1172" y="338"/>
      <point x="1172" y="418" type="qcurve" smooth="yes"/>
      <point x="1172" y="499"/>
      <point x="1114" y="617"/>
      <point x="990" y="681"/>
      <point x="892" y="681" type="qcurve" smooth="yes"/>
      <point x="617" y="681" type="line"/>
      <point x="619" y="836" type="line"/>
      <point x="995" y="836" type="line"/>
      <point x="1036" y="780" type="line"/>
      <point x="1141" y="771"/>
      <point x="1287" y="670"/>
      <point x="1364" y="514"/>
      <point x="1364" y="420" type="qcurve" smooth="yes"/>
      <point x="1364" y="284"/>
      <point x="1245" y="97"/>
      <point x="1029" y="0"/>
    </contour>
  </outline>
</glyph>
<glyph name="uni0183" format="2">
  <advance width="1150"/>
  <unicode hex="0183"/>
  <outline>
    <contour>
      <point x="840" y="1536" type="line"/>
      <point x="840" y="1384" type="line"/>
      <point x="268" y="1384" type="line"/>
      <point x="268" y="1536" type="line"/>
    </contour>
    <contour>
      <point x="140" y="1536" type="line"/>
      <point x="326" y="1536" type="line"/>
      <point x="326" y="210" type="line"/>
      <point x="310" y="0" type="line"/>
      <point x="140" y="0" type="line"/>
    </contour>
    <contour>
      <point x="1057" y="550" type="qcurve" smooth="yes"/>
      <point x="1057" y="529" type="line" smooth="yes"/>
      <point x="1057" y="411"/>
      <point x="1001" y="210"/>
      <point x="893" y="62"/>
      <point x="737" y="-20"/>
      <point x="636" y="-20" type="qcurve" smooth="yes"/>
      <point x="533" y="-20"/>
      <point x="378" y="51"/>
      <point x="272" y="185"/>
      <point x="209" y="375"/>
      <point x="197" y="494" type="qcurve"/>
      <point x="197" y="586" type="line"/>
      <point x="209" y="706"/>
      <point x="272" y="896"/>
      <point x="378" y="1031"/>
      <point x="532" y="1102"/>
      <point x="634" y="1102" type="qcurve" smooth="yes"/>
      <point x="736" y="1102"/>
      <point x="894" y="1023"/>
      <point x="1001" y="877"/>
      <point x="1057" y="674"/>
    </contour>
    <contour>
      <point x="871" y="529" type="qcurve" smooth="yes"/>
      <point x="871" y="550" type="line" smooth="yes"/>
      <point x="871" y="631"/>
      <point x="841" y="774"/>
      <point x="775" y="883"/>
      <point x="667" y="946"/>
      <point x="588" y="946" type="qcurve" smooth="yes"/>
      <point x="518" y="946"/>
      <point x="415" y="898"/>
      <point x="343" y="817"/>
      <point x="298" y="714"/>
      <point x="287" y="659" type="qcurve"/>
      <point x="287" y="418" type="line"/>
      <point x="299" y="365"/>
      <point x="345" y="265"/>
      <point x="418" y="184"/>
      <point x="521" y="137"/>
      <point x="590" y="137" type="qcurve" smooth="yes"/>
      <point x="665" y="137"/>
      <point x="772" y="198"/>
      <point x="839" y="306"/>
      <point x="871" y="448"/>
    </contour>
  </outline>
</glyph>
<glyph name="uni0187" format="2">
  <advance width="1448"/>
  <unicode hex="0187"/>
  <outline>
    <contour>
      <point x="1240" y="989" type="line"/>
      <point x="1085" y="989" type="line"/>
      <point x="1085" y="1161" type="line" smooth="yes"/>
      <point x="1085" y="1245"/>
      <point x="1121" y="1375"/>
      <point x="1192" y="1464"/>
      <point x="1299" y="1509"/>
      <point x="1370" y="1509" type="qcurve" smooth="yes"/>
      <point x="1396" y="1509"/>
      <point x="1462" y="1500"/>
      <point x="1486" y="1492" type="qcurve"/>
      <point x="1485" y="1337" type="line"/>
      <point x="1469" y="1342"/>
      <point x="1431" y="1345"/>
      <point x="1417" y="1345" type="qcurve" smooth="yes"/>
      <point x="1362" y="1345"/>
      <point x="1282" y="1311"/>
      <point x="1240" y="1231"/>
      <point x="1240" y="1161" type="qcurve" smooth="yes"/>
    </contour>
    <contour>
      <point x="1048" y="463" type="qcurve"/>
      <point x="1240" y="463" type="line"/>
      <point x="1225" y="325"/>
      <point x="1097" y="107"/>
      <point x="863" y="-20"/>
      <point x="688" y="-20" type="qcurve" smooth="yes"/>
      <point x="560" y="-20"/>
      <point x="351" y="76"/>
      <point x="201" y="253"/>
      <point x="120" y="502"/>
      <point x="120" y="655" type="qcurve" smooth="yes"/>
      <point x="120" y="800" type="line" smooth="yes"/>
      <point x="120" y="953"/>
      <point x="201" y="1202"/>
      <point x="354" y="1380"/>
      <point x="570" y="1476"/>
      <point x="705" y="1476" type="qcurve" smooth="yes"/>
      <point x="870" y="1476"/>
      <point x="1098" y="1352"/>
      <point x="1225" y="1133"/>
      <point x="1240" y="989" type="qcurve"/>
      <point x="1048" y="989" type="line"/>
      <point x="1034" y="1091"/>
      <point x="958" y="1238"/>
      <point x="818" y="1318"/>
      <point x="705" y="1318" type="qcurve" smooth="yes"/>
      <point x="608" y="1318"/>
      <point x="461" y="1244"/>
      <point x="362" y="1108"/>
      <point x="312" y="918"/>
      <point x="312" y="802" type="qcurve" smooth="yes"/>
      <point x="312" y="655" type="line" smooth="yes"/>
      <point x="312" y="548"/>
      <point x="357" y="360"/>
      <point x="449" y="218"/>
      <point x="591" y="137"/>
      <point x="688" y="137" type="qcurve" smooth="yes"/>
      <point x="811" y="137"/>
      <point x="957" y="215"/>
      <point x="1032" y="361"/>
    </contour>
  </outline>
</glyph>
<glyph name="uni018A" format="2">
  <advance width="1548"/>
  <unicode hex="018A"/>
  <outline>
    <contour>
      <point x="534" y="1298" type="line"/>
      <point x="377" y="1298" type="line" smooth="yes"/>
      <point x="309" y="1298"/>
      <point x="225" y="1259"/>
      <point x="187" y="1182"/>
      <point x="187" y="1125" type="qcurve" smooth="yes"/>
      <point x="187" y="1111"/>
      <point x="191" y="1073"/>
      <point x="196" y="1058" type="qcurve"/>
      <point x="46" y="1057" type="line"/>
      <point x="39" y="1081"/>
      <point x="29" y="1147"/>
      <point x="29" y="1173" type="qcurve" smooth="yes"/>
      <point x="29" y="1268"/>
      <point x="109" y="1394"/>
      <point x="265" y="1456"/>
      <point x="377" y="1456" type="qcurve" smooth="yes"/>
      <point x="534" y="1456" type="line"/>
    </contour>
    <contour>
      <point x="767" y="0" type="qcurve" smooth="yes"/>
      <point x="463" y="0" type="line"/>
      <point x="465" y="157" type="line"/>
      <point x="767" y="157" type="line" smooth="yes"/>
      <point x="884" y="157"/>
      <point x="1059" y="231"/>
      <point x="1177" y="370"/>
      <point x="1236" y="564"/>
      <point x="1236" y="684" type="qcurve" smooth="yes"/>
      <point x="1236" y="773" type="line" smooth="yes"/>
      <point x="1236" y="898"/>
      <point x="1176" y="1093"/>
      <point x="1060" y="1228"/>
      <point x="893" y="1298"/>
      <point x="785" y="1298" type="qcurve" smooth="yes"/>
      <point x="457" y="1298" type="line"/>
      <point x="457" y="1456" type="line"/>
      <point x="785" y="1456" type="line" smooth="yes"/>
      <point x="928" y="1456"/>
      <point x="1164" y="1361"/>
      <point x="1335" y="1182"/>
      <point x="1427" y="929"/>
      <point x="1427" y="771" type="qcurve" smooth="yes"/>
      <point x="1427" y="684" type="line" smooth="yes"/>
      <point x="1427" y="526"/>
      <point x="1335" y="273"/>
      <point x="1162" y="95"/>
      <point x="919" y="0"/>
    </contour>
    <contour>
      <point x="566" y="1456" type="line"/>
      <point x="566" y="0" type="line"/>
      <point x="373" y="0" type="line"/>
      <point x="373" y="1456" type="line"/>
    </contour>
  </outline>
</glyph>
<glyph name="uni018B" format="2">
  <advance width="1283"/>
  <unicode hex="018B"/>
  <outline>
    <contour>
      <point x="1120" y="0" type="line"/>
      <point x="576" y="0" type="line" smooth="yes"/>
      <point x="417" y="0"/>
      <point x="196" y="111"/>
      <point x="82" y="307"/>
      <point x="82" y="435" type="qcurve" smooth="yes"/>
      <point x="82" y="532"/>
      <point x="146" y="689"/>
      <point x="272" y="802"/>
      <point x="456" y="863"/>
      <point x="576" y="863" type="qcurve" smooth="yes"/>
      <point x="927" y="863" type="line"/>
      <point x="927" y="1298" type="line"/>
      <point x="225" y="1298" type="line"/>
      <point x="225" y="1456" type="line"/>
      <point x="1120" y="1456" type="line"/>
    </contour>
    <contour>
      <point x="927" y="157" type="line"/>
      <point x="927" y="705" type="line"/>
      <point x="576" y="705" type="line" smooth="yes"/>
      <point x="469" y="705"/>
      <point x="336" y="632"/>
      <point x="274" y="510"/>
      <point x="274" y="437" type="qcurve" smooth="yes"/>
      <point x="274" y="364"/>
      <point x="336" y="236"/>
      <point x="469" y="157"/>
      <point x="576" y="157" type="qcurve" smooth="yes"/>
    </contour>
  </outline>
</glyph>
<glyph name="uni018D" format="2">
  <advance width="1161"/>
  <unicode hex="018D"/>
  <outline>
    <contour>
      <point x="921" y="-376" type="line"/>
      <point x="212" y="-376" type="line"/>
      <point x="212" y="-228" type="line"/>
      <point x="671" y="-228" type="line"/>
      <point x="651" y="-206"/>
      <point x="577" y="-139"/>
      <point x="491" y="-66"/>
      <point x="452" y="-34" type="qcurve" smooth="yes"/>
      <point x="348" y="58"/>
      <point x="187" y="240"/>
      <point x="96" y="436"/>
      <point x="96" y="548" type="qcurve" smooth="yes"/>
      <point x="96" y="571" type="line" smooth="yes"/>
      <point x="96" y="684"/>
      <point x="161" y="877"/>
      <point x="286" y="1021"/>
      <point x="465" y="1101"/>
      <point x="579" y="1101" type="qcurve" smooth="yes"/>
      <point x="693" y="1101"/>
      <point x="872" y="1021"/>
      <point x="997" y="877"/>
      <point x="1063" y="684"/>
      <point x="1063" y="571" type="qcurve" smooth="yes"/>
      <point x="1063" y="548" type="line" smooth="yes"/>
      <point x="1063" y="456"/>
      <point x="1001" y="294"/>
      <point x="882" y="166"/>
      <point x="711" y="83"/>
      <point x="602" y="71" type="qcurve" smooth="yes"/>
      <point x="592" y="70"/>
      <point x="571" y="70"/>
      <point x="558" y="71" type="qcurve"/>
      <point x="604" y="29"/>
      <point x="701" y="-55"/>
      <point x="797" y="-139"/>
      <point x="885" y="-221"/>
      <point x="921" y="-261" type="qcurve"/>
    </contour>
    <contour>
      <point x="877" y="548" type="qcurve" smooth="yes"/>
      <point x="877" y="571" type="line" smooth="yes"/>
      <point x="877" y="648"/>
      <point x="842" y="784"/>
      <point x="769" y="890"/>
      <point x="656" y="950"/>
      <point x="579" y="950" type="qcurve" smooth="yes"/>
      <point x="503" y="950"/>
      <point x="390" y="890"/>
      <point x="317" y="784"/>
      <point x="281" y="648"/>
      <point x="281" y="571" type="qcurve" smooth="yes"/>
      <point x="281" y="548" type="line" smooth="yes"/>
      <point x="281" y="467"/>
      <point x="333" y="332"/>
      <point x="415" y="231"/>
      <point x="459" y="200" type="qcurve"/>
      <point x="482" y="195"/>
      <point x="530" y="189"/>
      <point x="558" y="189" type="qcurve" smooth="yes"/>
      <point x="640" y="189"/>
      <point x="760" y="247"/>
      <point x="839" y="348"/>
      <point x="877" y="477"/>
    </contour>
  </outline>
</glyph>
<glyph name="Schwa" format="2">
  <advance width="1415"/>
  <unicode hex="018F"/>
  <anchor x="696" y="0" name="Anchor-1"/>
  <anchor x="661" y="1603" name="Anchor-0"/>
  <outline>
    <contour>
      <point x="697" y="-20" type="qcurve" smooth="yes"/>
      <point x="400" y="-20"/>
      <point x="94" y="339"/>
      <point x="94" y="643" type="qcurve" smooth="yes"/>
      <point x="94" y="767" type="line"/>
      <point x="1106" y="767" type="line"/>
      <point x="1106" y="774" type="line" smooth="yes"/>
      <point x="1106" y="924"/>
      <point x="1011" y="1170"/>
      <point x="806" y="1316"/>
      <point x="641" y="1316" type="qcurve" smooth="yes"/>
      <point x="511" y="1316"/>
      <point x="335" y="1260"/>
      <point x="276" y="1232" type="qcurve"/>
      <point x="229" y="1375" type="line"/>
      <point x="265" y="1399"/>
      <point x="468" y="1476"/>
      <point x="641" y="1476" type="qcurve" smooth="yes"/>
      <point x="853" y="1476"/>
      <point x="1146" y="1297"/>
      <point x="1298" y="980"/>
      <point x="1298" y="774" type="qcurve" smooth="yes"/>
      <point x="1298" y="680" type="line" smooth="yes"/>
      <point x="1298" y="473"/>
      <point x="1137" y="158"/>
      <point x="864" y="-20"/>
    </contour>
    <contour>
      <point x="697" y="139" type="qcurve" smooth="yes"/>
      <point x="818" y="139"/>
      <point x="994" y="266"/>
      <point x="1094" y="483"/>
      <point x="1104" y="618" type="qcurve"/>
      <point x="287" y="618" type="line"/>
      <point x="287" y="584" type="line" smooth="yes"/>
      <point x="287" y="460"/>
      <point x="366" y="258"/>
      <point x="546" y="139"/>
    </contour>
  </outline>
</glyph>
<glyph name="uni0190" format="2">
  <advance width="1226"/>
  <unicode hex="0190"/>
  <anchor x="611" y="1603" name="Anchor-5"/>
  <anchor x="611" y="0" name="Anchor-2"/>
  <anchor x="1226" y="1603" name="Anchor-1"/>
  <anchor x="611" y="1603" name="Anchor-0"/>
  <outline>
    <contour>
      <point x="775" y="699" type="line"/>
      <point x="606" y="699" type="line" smooth="yes"/>
      <point x="496" y="699"/>
      <point x="313" y="748"/>
      <point x="180" y="842"/>
      <point x="108" y="977"/>
      <point x="108" y="1063" type="qcurve" smooth="yes"/>
      <point x="108" y="1165"/>
      <point x="181" y="1319"/>
      <point x="317" y="1424"/>
      <point x="507" y="1477"/>
      <point x="624" y="1477" type="qcurve" smooth="yes"/>
      <point x="758" y="1477"/>
      <point x="981" y="1379"/>
      <point x="1115" y="1199"/>
      <point x="1115" y="1075" type="qcurve"/>
      <point x="923" y="1075" type="line"/>
      <point x="923" y="1147"/>
      <point x="845" y="1257"/>
      <point x="710" y="1319"/>
      <point x="624" y="1319" type="qcurve" smooth="yes"/>
      <point x="511" y="1319"/>
      <point x="367" y="1252"/>
      <point x="300" y="1138"/>
      <point x="300" y="1067" type="qcurve" smooth="yes"/>
      <point x="300" y="1013"/>
      <point x="334" y="923"/>
      <point x="408" y="857"/>
      <point x="526" y="822"/>
      <point x="610" y="822" type="qcurve" smooth="yes"/>
      <point x="775" y="822" type="line"/>
    </contour>
    <contour>
      <point x="606" y="784" type="qcurve" smooth="yes"/>
      <point x="775" y="784" type="line"/>
      <point x="775" y="663" type="line"/>
      <point x="610" y="663" type="line" smooth="yes"/>
      <point x="501" y="663"/>
      <point x="353" y="608"/>
      <point x="278" y="493"/>
      <point x="278" y="402" type="qcurve" smooth="yes"/>
      <point x="278" y="313"/>
      <point x="363" y="194"/>
      <point x="518" y="136"/>
      <point x="624" y="136" type="qcurve" smooth="yes"/>
      <point x="722" y="136"/>
      <point x="866" y="208"/>
      <point x="944" y="329"/>
      <point x="944" y="404" type="qcurve"/>
      <point x="1136" y="404" type="line"/>
      <point x="1136" y="292"/>
      <point x="1048" y="131"/>
      <point x="900" y="28"/>
      <point x="718" y="-21"/>
      <point x="624" y="-21" type="qcurve" smooth="yes"/>
      <point x="510" y="-21"/>
      <point x="314" y="27"/>
      <point x="168" y="129"/>
      <point x="86" y="292"/>
      <point x="86" y="406" type="qcurve" smooth="yes"/>
      <point x="86" y="497"/>
      <point x="156" y="638"/>
      <point x="290" y="734"/>
      <point x="483" y="784"/>
    </contour>
  </outline>
</glyph>
<glyph name="uni0191" format="2">
  <advance width="1194"/>
  <unicode hex="0191"/>
  <outline>
    <contour>
      <point x="231" y="940" type="line"/>
      <point x="423" y="940" type="line"/>
      <point x="423" y="-89" type="line" smooth="yes"/>
      <point x="423" y="-201"/>
      <point x="344" y="-357"/>
      <point x="199" y="-437"/>
      <point x="98" y="-437" type="qcurve" smooth="yes"/>
      <point x="67" y="-437"/>
      <point x="15" y="-430"/>
      <point x="-14" y="-420" type="qcurve"/>
      <point x="0" y="-260" type="line"/>
      <point x="17" y="-265"/>
      <point x="74" y="-274"/>
      <point x="98" y="-274" type="qcurve" smooth="yes"/>
      <point x="141" y="-274"/>
      <point x="200" y="-233"/>
      <point x="231" y="-150"/>
      <point x="231" y="-89" type="qcurve" smooth="yes"/>
    </contour>
    <contour>
      <point x="423" y="1456" type="line"/>
      <point x="423" y="0" type="line"/>
      <point x="231" y="0" type="line"/>
      <point x="231" y="1456" type="line"/>
    </contour>
    <contour>
      <point x="1033" y="801" type="line"/>
      <point x="1033" y="643" type="line"/>
      <point x="382" y="643" type="line"/>
      <point x="382" y="801" type="line"/>
    </contour>
    <contour>
      <point x="1133" y="1456" type="line"/>
      <point x="1133" y="1298" type="line"/>
      <point x="382" y="1298" type="line"/>
      <point x="382" y="1456" type="line"/>
    </contour>
  </outline>
</glyph>
<glyph name="uni0193" format="2">
  <advance width="1451"/>
  <unicode hex="0193"/>
  <outline>
    <contour>
      <point x="1245" y="1030" type="line"/>
      <point x="1093" y="1030" type="line"/>
      <point x="1093" y="1161" type="line" smooth="yes"/>
      <point x="1093" y="1245"/>
      <point x="1128" y="1375"/>
      <point x="1198" y="1464"/>
      <point x="1304" y="1509"/>
      <point x="1375" y="1509" type="qcurve" smooth="yes"/>
      <point x="1401" y="1509"/>
      <point x="1466" y="1500"/>
      <point x="1490" y="1492" type="qcurve"/>
      <point x="1489" y="1343" type="line"/>
      <point x="1474" y="1348"/>
      <point x="1435" y="1352"/>
      <point x="1421" y="1352" type="qcurve" smooth="yes"/>
      <point x="1366" y="1352"/>
      <point x="1287" y="1315"/>
      <point x="1245" y="1231"/>
      <point x="1245" y="1161" type="qcurve" smooth="yes"/>
    </contour>
    <contour>
      <point x="1245" y="725" type="line"/>
      <point x="1245" y="192" type="line"/>
      <point x="1218" y="152"/>
      <point x="1100" y="53"/>
      <point x="893" y="-20"/>
      <point x="730" y="-20" type="qcurve" smooth="yes"/>
      <point x="597" y="-20"/>
      <point x="374" y="73"/>
      <point x="211" y="252"/>
      <point x="122" y="509"/>
      <point x="122" y="672" type="qcurve" smooth="yes"/>
      <point x="122" y="785" type="line" smooth="yes"/>
      <point x="122" y="948"/>
      <point x="199" y="1204"/>
      <point x="349" y="1383"/>
      <point x="567" y="1476"/>
      <point x="708" y="1476" type="qcurve" smooth="yes"/>
      <point x="875" y="1476"/>
      <point x="1100" y="1361"/>
      <point x="1227" y="1159"/>
      <point x="1245" y="1030" type="qcurve"/>
      <point x="1052" y="1030" type="line"/>
      <point x="1039" y="1109"/>
      <point x="962" y="1239"/>
      <point x="820" y="1318"/>
      <point x="708" y="1318" type="qcurve" smooth="yes"/>
      <point x="607" y="1318"/>
      <point x="459" y="1244"/>
      <point x="363" y="1106"/>
      <point x="316" y="910"/>
      <point x="316" y="787" type="qcurve" smooth="yes"/>
      <point x="316" y="672" type="line" smooth="yes"/>
      <point x="316" y="546"/>
      <point x="375" y="348"/>
      <point x="485" y="209"/>
      <point x="638" y="137"/>
      <point x="731" y="137" type="qcurve" smooth="yes"/>
      <point x="834" y="137"/>
      <point x="962" y="172"/>
      <point x="1034" y="221"/>
      <point x="1053" y="243" type="qcurve"/>
      <point x="1053" y="569" type="line"/>
      <point x="716" y="569" type="line"/>
      <point x="716" y="725" type="line"/>
    </contour>
  </outline>
</glyph>
<glyph name="uni0194" format="2">
  <advance width="1286"/>
  <unicode hex="0194"/>
  <outline>
    <contour>
      <point x="21" y="1456" type="line"/>
      <point x="21" y="1456"/>
      <point x="64" y="1456"/>
      <point x="128" y="1456"/>
      <point x="192" y="1456"/>
      <point x="235" y="1456"/>
      <point x="235" y="1456" type="qcurve"/>
      <point x="724" y="268" type="line" smooth="yes"/>
      <point x="775" y="141"/>
      <point x="854" y="-30"/>
      <point x="899" y="-146"/>
      <point x="899" y="-194" type="qcurve" smooth="yes"/>
      <point x="899" y="-268"/>
      <point x="838" y="-374"/>
      <point x="724" y="-429"/>
      <point x="643" y="-429" type="qcurve" smooth="yes"/>
      <point x="563" y="-429"/>
      <point x="448" y="-374"/>
      <point x="387" y="-268"/>
      <point x="387" y="-194" type="qcurve" smooth="yes"/>
      <point x="387" y="-158"/>
      <point x="410" y="-76"/>
      <point x="455" y="30"/>
      <point x="518" y="172"/>
      <point x="557" y="268" type="qcurve" smooth="yes"/>
      <point x="1052" y="1456" type="line"/>
      <point x="1052" y="1456"/>
      <point x="1095" y="1456"/>
      <point x="1158" y="1456"/>
      <point x="1222" y="1456"/>
      <point x="1265" y="1456"/>
      <point x="1265" y="1456" type="qcurve"/>
      <point x="674" y="107" type="line" smooth="yes"/>
      <point x="622" y="-11"/>
      <point x="572" y="-151"/>
      <point x="572" y="-194" type="qcurve" smooth="yes"/>
      <point x="572" y="-227"/>
      <point x="605" y="-272"/>
      <point x="643" y="-272" type="qcurve" smooth="yes"/>
      <point x="683" y="-272"/>
      <point x="714" y="-226"/>
      <point x="714" y="-194" type="qcurve" smooth="yes"/>
      <point x="714" y="-150"/>
      <point x="667" y="-17"/>
      <point x="612" y="107" type="qcurve" smooth="yes"/>
    </contour>
  </outline>
</glyph>
<glyph name="uni0195" format="2">
  <advance width="1715"/>
  <unicode hex="0195"/>
  <outline>
    <contour>
      <point x="326" y="1536" type="line"/>
      <point x="326" y="0" type="line"/>
      <point x="141" y="0" type="line"/>
      <point x="141" y="1536" type="line"/>
    </contour>
    <contour>
      <point x="282" y="582" type="qcurve"/>
      <point x="205" y="585" type="line"/>
      <point x="206" y="696"/>
      <point x="270" y="885"/>
      <point x="386" y="1025"/>
      <point x="547" y="1102"/>
      <point x="645" y="1102" type="qcurve" smooth="yes"/>
      <point x="745" y="1102"/>
      <point x="879" y="1042"/>
      <point x="958" y="934"/>
      <point x="992" y="789"/>
      <point x="992" y="705" type="qcurve" smooth="yes"/>
      <point x="992" y="500" type="line"/>
      <point x="806" y="500" type="line"/>
      <point x="806" y="705" type="line" smooth="yes"/>
      <point x="806" y="777"/>
      <point x="768" y="886"/>
      <point x="675" y="946"/>
      <point x="590" y="946" type="qcurve" smooth="yes"/>
      <point x="521" y="946"/>
      <point x="408" y="888"/>
      <point x="327" y="786"/>
      <point x="282" y="655"/>
    </contour>
    <contour>
      <point x="1191" y="-20" type="qcurve" smooth="yes"/>
      <point x="1100" y="-20"/>
      <point x="957" y="33"/>
      <point x="858" y="145"/>
      <point x="806" y="321"/>
      <point x="806" y="445" type="qcurve" smooth="yes"/>
      <point x="806" y="582" type="line"/>
      <point x="992" y="582" type="line"/>
      <point x="992" y="443" type="line" smooth="yes"/>
      <point x="992" y="352"/>
      <point x="1025" y="233"/>
      <point x="1082" y="165"/>
      <point x="1153" y="137"/>
      <point x="1191" y="137" type="qcurve" smooth="yes"/>
      <point x="1229" y="137"/>
      <point x="1300" y="165"/>
      <point x="1357" y="233"/>
      <point x="1390" y="352"/>
      <point x="1390" y="443" type="qcurve" smooth="yes"/>
      <point x="1390" y="1082" type="line"/>
      <point x="1576" y="1082" type="line"/>
      <point x="1576" y="445" type="line" smooth="yes"/>
      <point x="1576" y="321"/>
      <point x="1525" y="145"/>
      <point x="1425" y="33"/>
      <point x="1283" y="-20"/>
    </contour>
  </outline>
</glyph>
<glyph name="uni019C" format="2">
  <advance width="1865"/>
  <unicode hex="019C"/>
  <outline>
    <contour>
      <point x="1507" y="216" type="line"/>
      <point x="1507" y="1456" type="line"/>
      <point x="1692" y="1456" type="line"/>
      <point x="1692" y="0" type="line"/>
      <point x="1517" y="0" type="line"/>
    </contour>
    <contour>
      <point x="1523" y="498" type="qcurve"/>
      <point x="1611" y="500" type="line"/>
      <point x="1611" y="388"/>
      <point x="1564" y="198"/>
      <point x="1465" y="57"/>
      <point x="1307" y="-20"/>
      <point x="1195" y="-20" type="qcurve" smooth="yes"/>
      <point x="1116" y="-20"/>
      <point x="985" y="28"/>
      <point x="891" y="135"/>
      <point x="840" y="314"/>
      <point x="840" y="445" type="qcurve" smooth="yes"/>
      <point x="840" y="1456" type="line"/>
      <point x="1025" y="1456" type="line"/>
      <point x="1025" y="443" type="line" smooth="yes"/>
      <point x="1025" y="352"/>
      <point x="1059" y="233"/>
      <point x="1116" y="165"/>
      <point x="1187" y="137"/>
      <point x="1225" y="137" type="qcurve" smooth="yes"/>
      <point x="1308" y="137"/>
      <point x="1422" y="193"/>
      <point x="1492" y="292"/>
      <point x="1523" y="423"/>
    </contour>
    <contour>
      <point x="856" y="498" type="qcurve"/>
      <point x="944" y="500" type="line"/>
      <point x="944" y="388"/>
      <point x="897" y="198"/>
      <point x="798" y="57"/>
      <point x="640" y="-20"/>
      <point x="528" y="-20" type="qcurve" smooth="yes"/>
      <point x="447" y="-20"/>
      <point x="317" y="28"/>
      <point x="223" y="136"/>
      <point x="173" y="315"/>
      <point x="173" y="445" type="qcurve" smooth="yes"/>
      <point x="173" y="1456" type="line"/>
      <point x="358" y="1456" type="line"/>
      <point x="358" y="443" type="line" smooth="yes"/>
      <point x="358" y="352"/>
      <point x="392" y="233"/>
      <point x="449" y="165"/>
      <point x="520" y="137"/>
      <point x="558" y="137" type="qcurve" smooth="yes"/>
      <point x="641" y="137"/>
      <point x="755" y="193"/>
      <point x="825" y="292"/>
      <point x="856" y="423"/>
    </contour>
  </outline>
</glyph>
<glyph name="uni019D" format="2">
  <advance width="1522"/>
  <unicode hex="019D"/>
  <outline>
    <contour>
      <point x="231" y="940" type="line"/>
      <point x="423" y="940" type="line"/>
      <point x="423" y="-89" type="line" smooth="yes"/>
      <point x="423" y="-201"/>
      <point x="344" y="-357"/>
      <point x="199" y="-437"/>
      <point x="98" y="-437" type="qcurve" smooth="yes"/>
      <point x="67" y="-437"/>
      <point x="15" y="-430"/>
      <point x="-14" y="-420" type="qcurve"/>
      <point x="0" y="-260" type="line"/>
      <point x="17" y="-265"/>
      <point x="74" y="-274"/>
      <point x="98" y="-274" type="qcurve" smooth="yes"/>
      <point x="141" y="-274"/>
      <point x="200" y="-233"/>
      <point x="231" y="-150"/>
      <point x="231" y="-89" type="qcurve" smooth="yes"/>
    </contour>
    <contour>
      <point x="1350" y="1456" type="line"/>
      <point x="1350" y="0" type="line"/>
      <point x="1156" y="0" type="line"/>
      <point x="423" y="1123" type="line"/>
      <point x="423" y="0" type="line"/>
      <point x="231" y="0" type="line"/>
      <point x="231" y="1456" type="line"/>
      <point x="423" y="1456" type="line"/>
      <point x="1159" y="330" type="line"/>
      <point x="1159" y="1456" type="line"/>
    </contour>
  </outline>
</glyph>
<glyph name="ohorn" format="2">
  <advance width="1171"/>
  <unicode hex="01A1"/>
  <anchor x="502" y="0" name="Anchor-1"/>
  <anchor x="582" y="1290" name="Anchor-0"/>
  <outline>
    <contour>
      <point x="92" y="529" type="qcurve" smooth="yes"/>
      <point x="92" y="552" type="line" smooth="yes"/>
      <point x="92" y="709"/>
      <point x="212" y="957"/>
      <point x="432" y="1102"/>
      <point x="583" y="1102" type="qcurve" smooth="yes"/>
      <point x="690" y="1102"/>
      <point x="863" y="1029"/>
      <point x="926" y="964" type="qcurve"/>
      <point x="1013" y="975"/>
      <point x="1061" y="1103"/>
      <point x="1061" y="1201" type="qcurve"/>
      <point x="1210" y="1201" type="line"/>
      <point x="1210" y="1065"/>
      <point x="1117" y="887"/>
      <point x="1003" y="859" type="qcurve"/>
      <point x="1076" y="726"/>
      <point x="1076" y="552" type="qcurve" smooth="yes"/>
      <point x="1076" y="529" type="line" smooth="yes"/>
      <point x="1076" y="373"/>
      <point x="957" y="124"/>
      <point x="737" y="-20"/>
      <point x="585" y="-20" type="qcurve" smooth="yes"/>
      <point x="433" y="-20"/>
      <point x="212" y="124"/>
      <point x="92" y="373"/>
    </contour>
    <contour>
      <point x="277" y="552" type="qcurve" smooth="yes"/>
      <point x="277" y="529" type="line" smooth="yes"/>
      <point x="277" y="422"/>
      <point x="345" y="241"/>
      <point x="482" y="132"/>
      <point x="585" y="132" type="qcurve" smooth="yes"/>
      <point x="687" y="132"/>
      <point x="823" y="241"/>
      <point x="891" y="422"/>
      <point x="891" y="529" type="qcurve" smooth="yes"/>
      <point x="891" y="552" type="line" smooth="yes"/>
      <point x="891" y="658"/>
      <point x="822" y="839"/>
      <point x="686" y="950"/>
      <point x="583" y="950" type="qcurve" smooth="yes"/>
      <point x="481" y="950"/>
      <point x="345" y="839"/>
      <point x="277" y="658"/>
    </contour>
  </outline>
</glyph>
<glyph name="uni01A3" format="2">
  <advance width="1368"/>
  <unicode hex="01A3"/>
  <outline>
    <contour>
      <point x="574" y="131" type="qcurve" smooth="yes"/>
      <point x="618" y="131"/>
      <point x="698" y="156"/>
      <point x="731" y="178" type="qcurve"/>
      <point x="731" y="544" type="line"/>
      <point x="916" y="544" type="line"/>
      <point x="916" y="133" type="line"/>
      <point x="877" y="88"/>
      <point x="770" y="19"/>
      <point x="643" y="-20"/>
      <point x="574" y="-20" type="qcurve" smooth="yes"/>
      <point x="452" y="-20"/>
      <point x="271" y="66"/>
      <point x="152" y="216"/>
      <point x="93" y="411"/>
      <point x="93" y="520" type="qcurve" smooth="yes"/>
      <point x="93" y="562" type="line" smooth="yes"/>
      <point x="93" y="671"/>
      <point x="152" y="866"/>
      <point x="271" y="1016"/>
      <point x="452" y="1102"/>
      <point x="574" y="1102" type="qcurve" smooth="yes"/>
      <point x="648" y="1102"/>
      <point x="775" y="1065"/>
      <point x="879" y="998"/>
      <point x="916" y="952" type="qcurve"/>
      <point x="916" y="508" type="line"/>
      <point x="731" y="508" type="line"/>
      <point x="731" y="901" type="line"/>
      <point x="700" y="924"/>
      <point x="621" y="950"/>
      <point x="574" y="950" type="qcurve" smooth="yes"/>
      <point x="489" y="950"/>
      <point x="374" y="883"/>
      <point x="307" y="770"/>
      <point x="278" y="633"/>
      <point x="278" y="562" type="qcurve" smooth="yes"/>
      <point x="278" y="520" type="line" smooth="yes"/>
      <point x="278" y="429"/>
      <point x="317" y="285"/>
      <point x="393" y="184"/>
      <point x="503" y="131"/>
    </contour>
    <contour>
      <point x="1222" y="1082" type="line"/>
      <point x="1222" y="-416" type="line"/>
      <point x="1036" y="-416" type="line"/>
      <point x="1036" y="837" type="line"/>
      <point x="827" y="713" type="line"/>
      <point x="827" y="949" type="line"/>
      <point x="1074" y="1082" type="line"/>
    </contour>
  </outline>
</glyph>
<glyph name="uni01A4" format="2">
  <advance width="1496"/>
  <unicode hex="01A4"/>
  <outline>
    <contour>
      <point x="534" y="1298" type="line"/>
      <point x="377" y="1298" type="line" smooth="yes"/>
      <point x="309" y="1298"/>
      <point x="225" y="1259"/>
      <point x="187" y="1182"/>
      <point x="187" y="1125" type="qcurve" smooth="yes"/>
      <point x="187" y="1111"/>
      <point x="191" y="1073"/>
      <point x="196" y="1058" type="qcurve"/>
      <point x="46" y="1057" type="line"/>
      <point x="39" y="1081"/>
      <point x="29" y="1147"/>
      <point x="29" y="1173" type="qcurve" smooth="yes"/>
      <point x="29" y="1268"/>
      <point x="109" y="1394"/>
      <point x="265" y="1456"/>
      <point x="377" y="1456" type="qcurve" smooth="yes"/>
      <point x="534" y="1456" type="line"/>
    </contour>
    <contour>
      <point x="910" y="571" type="qcurve" smooth="yes"/>
      <point x="521" y="571" type="line"/>
      <point x="521" y="728" type="line"/>
      <point x="910" y="728" type="line" smooth="yes"/>
      <point x="1023" y="728"/>
      <point x="1163" y="800"/>
      <point x="1228" y="928"/>
      <point x="1228" y="1010" type="qcurve" smooth="yes"/>
      <point x="1228" y="1085"/>
      <point x="1163" y="1217"/>
      <point x="1023" y="1298"/>
      <point x="910" y="1298" type="qcurve" smooth="yes"/>
      <point x="566" y="1298" type="line"/>
      <point x="566" y="0" type="line"/>
      <point x="373" y="0" type="line"/>
      <point x="373" y="1456" type="line"/>
      <point x="910" y="1456" type="line" smooth="yes"/>
      <point x="1075" y="1456"/>
      <point x="1303" y="1342"/>
      <point x="1421" y="1141"/>
      <point x="1421" y="1012" type="qcurve" smooth="yes"/>
      <point x="1421" y="872"/>
      <point x="1303" y="674"/>
      <point x="1075" y="571"/>
    </contour>
  </outline>
</glyph>
<glyph name="uni01A8" format="2">
  <advance width="1057"/>
  <unicode hex="01A8"/>
  <outline>
    <contour>
      <point x="286" y="287" type="qcurve" smooth="yes"/>
      <point x="286" y="242"/>
      <point x="340" y="172"/>
      <point x="444" y="132"/>
      <point x="519" y="132" type="qcurve" smooth="yes"/>
      <point x="577" y="132"/>
      <point x="692" y="169"/>
      <point x="772" y="258"/>
      <point x="776" y="334" type="qcurve"/>
      <point x="962" y="334" type="line"/>
      <point x="962" y="267"/>
      <point x="904" y="140"/>
      <point x="792" y="39"/>
      <point x="627" y="-20"/>
      <point x="519" y="-20" type="qcurve" smooth="yes"/>
      <point x="425" y="-20"/>
      <point x="271" y="27"/>
      <point x="160" y="112"/>
      <point x="101" y="230"/>
      <point x="101" y="301" type="qcurve" smooth="yes"/>
      <point x="101" y="366"/>
      <point x="148" y="467"/>
      <point x="244" y="543"/>
      <point x="391" y="601"/>
      <point x="490" y="624" type="qcurve" smooth="yes"/>
      <point x="592" y="647"/>
      <point x="700" y="693"/>
      <point x="739" y="751"/>
      <point x="739" y="791" type="qcurve" smooth="yes"/>
      <point x="739" y="831"/>
      <point x="696" y="903"/>
      <point x="601" y="950"/>
      <point x="524" y="950" type="qcurve" smooth="yes"/>
      <point x="452" y="950"/>
      <point x="350" y="894"/>
      <point x="297" y="809"/>
      <point x="297" y="764" type="qcurve"/>
      <point x="112" y="764" type="line"/>
      <point x="112" y="834"/>
      <point x="168" y="956"/>
      <point x="274" y="1049"/>
      <point x="427" y="1102"/>
      <point x="524" y="1102" type="qcurve" smooth="yes"/>
      <point x="646" y="1102"/>
      <point x="826" y="1015"/>
      <point x="925" y="872"/>
      <point x="925" y="786" type="qcurve" smooth="yes"/>
      <point x="925" y="719"/>
      <point x="871" y="619"/>
      <point x="770" y="545"/>
      <point x="625" y="493"/>
      <point x="535" y="474" type="qcurve" smooth="yes"/>
      <point x="429" y="453"/>
      <point x="322" y="396"/>
      <point x="286" y="327"/>
    </contour>
  </outline>
</glyph>
<glyph name="uni01AA" format="2">
  <advance width="955"/>
  <unicode hex="01AA"/>
  <outline>
    <contour>
      <point x="516" y="1138" type="line"/>
      <point x="701" y="1221" type="line"/>
      <point x="701" y="-61" type="line" smooth="yes"/>
      <point x="701" y="-113"/>
      <point x="720" y="-187"/>
      <point x="757" y="-231"/>
      <point x="811" y="-252"/>
      <point x="846" y="-252" type="qcurve" smooth="yes"/>
      <point x="860" y="-252"/>
      <point x="898" y="-248"/>
      <point x="913" y="-244" type="qcurve"/>
      <point x="914" y="-392" type="line"/>
      <point x="891" y="-399"/>
      <point x="825" y="-409"/>
      <point x="799" y="-409" type="qcurve" smooth="yes"/>
      <point x="728" y="-409"/>
      <point x="621" y="-364"/>
      <point x="551" y="-275"/>
      <point x="516" y="-145"/>
      <point x="516" y="-61" type="qcurve" smooth="yes"/>
    </contour>
    <contour>
      <point x="22" y="1221" type="qcurve" smooth="yes"/>
      <point x="22" y="1316"/>
      <point x="114" y="1471"/>
      <point x="268" y="1562"/>
      <point x="361" y="1562" type="qcurve" smooth="yes"/>
      <point x="455" y="1562"/>
      <point x="609" y="1470"/>
      <point x="701" y="1316"/>
      <point x="701" y="1221" type="qcurve" smooth="yes"/>
      <point x="701" y="1128"/>
      <point x="609" y="974"/>
      <point x="455" y="882"/>
      <point x="361" y="882" type="qcurve" smooth="yes"/>
      <point x="268" y="882"/>
      <point x="114" y="973"/>
      <point x="22" y="1127"/>
    </contour>
    <contour>
      <point x="362" y="1053" type="qcurve" smooth="yes"/>
      <point x="408" y="1053"/>
      <point x="482" y="1092"/>
      <point x="526" y="1168"/>
      <point x="526" y="1223" type="qcurve" smooth="yes"/>
      <point x="526" y="1279"/>
      <point x="482" y="1355"/>
      <point x="408" y="1394"/>
      <point x="362" y="1394" type="qcurve" smooth="yes"/>
      <point x="316" y="1394"/>
      <point x="241" y="1355"/>
      <point x="196" y="1278"/>
      <point x="196" y="1222" type="qcurve" smooth="yes"/>
      <point x="196" y="1167"/>
      <point x="241" y="1092"/>
      <point x="316" y="1053"/>
    </contour>
  </outline>
</glyph>
<glyph name="uni01AC" format="2">
  <advance width="1282"/>
  <unicode hex="01AC"/>
  <outline>
    <contour>
      <point x="767" y="1456" type="line"/>
      <point x="767" y="0" type="line"/>
      <point x="576" y="0" type="line"/>
      <point x="576" y="1456" type="line"/>
    </contour>
    <contour>
      <point x="1235" y="1456" type="line"/>
      <point x="1235" y="1298" type="line"/>
      <point x="412" y="1298" type="line"/>
      <point x="412" y="1456" type="line"/>
    </contour>
    <contour>
      <point x="534" y="1298" type="line"/>
      <point x="377" y="1298" type="line" smooth="yes"/>
      <point x="309" y="1298"/>
      <point x="225" y="1259"/>
      <point x="187" y="1182"/>
      <point x="187" y="1125" type="qcurve" smooth="yes"/>
      <point x="187" y="1111"/>
      <point x="191" y="1073"/>
      <point x="196" y="1058" type="qcurve"/>
      <point x="46" y="1057" type="line"/>
      <point x="39" y="1081"/>
      <point x="29" y="1147"/>
      <point x="29" y="1173" type="qcurve" smooth="yes"/>
      <point x="29" y="1268"/>
      <point x="109" y="1394"/>
      <point x="265" y="1456"/>
      <point x="377" y="1456" type="qcurve" smooth="yes"/>
      <point x="534" y="1456" type="line"/>
    </contour>
  </outline>
</glyph>
<glyph name="uni01AE" format="2">
  <advance width="1222"/>
  <unicode hex="01AE"/>
  <outline>
    <contour>
      <point x="1175" y="1456" type="line"/>
      <point x="1175" y="1298" type="line"/>
      <point x="50" y="1298" type="line"/>
      <point x="50" y="1456" type="line"/>
    </contour>
    <contour>
      <point x="951" y="-420" type="line"/>
      <point x="923" y="-430"/>
      <point x="870" y="-437"/>
      <point x="839" y="-437" type="qcurve" smooth="yes"/>
      <point x="764" y="-437"/>
      <point x="644" y="-392"/>
      <point x="561" y="-303"/>
      <point x="517" y="-173"/>
      <point x="517" y="-89" type="qcurve" smooth="yes"/>
      <point x="517" y="1456" type="line"/>
      <point x="707" y="1456" type="line"/>
      <point x="707" y="-89" type="line" smooth="yes"/>
      <point x="707" y="-135"/>
      <point x="724" y="-206"/>
      <point x="758" y="-254"/>
      <point x="807" y="-278"/>
      <point x="839" y="-278" type="qcurve" smooth="yes"/>
      <point x="859" y="-278"/>
      <point x="922" y="-269"/>
      <point x="938" y="-265" type="qcurve"/>
    </contour>
  </outline>
</glyph>
<glyph name="Uhorn" format="2">
  <advance width="1424"/>
  <unicode hex="01AF"/>
  <anchor x="692" y="-9" name="Anchor-1"/>
  <anchor x="694" y="1612" name="Anchor-0"/>
  <outline>
    <contour>
      <point x="1002" y="1456" type="line"/>
      <point x="1194" y="1456" type="line"/>
      <point x="1194" y="1244" type="line"/>
      <point x="1319" y="1255"/>
      <point x="1407" y="1404"/>
      <point x="1407" y="1538" type="qcurve"/>
      <point x="1565" y="1538" type="line"/>
      <point x="1565" y="1338"/>
      <point x="1395" y="1119"/>
      <point x="1194" y="1108" type="qcurve"/>
      <point x="1194" y="471" type="line" smooth="yes"/>
      <point x="1194" y="307"/>
      <point x="1048" y="89"/>
      <point x="807" y="-20"/>
      <point x="666" y="-20" type="qcurve" smooth="yes"/>
      <point x="518" y="-20"/>
      <point x="279" y="89"/>
      <point x="140" y="307"/>
      <point x="140" y="471" type="qcurve" smooth="yes"/>
      <point x="140" y="1456" type="line"/>
      <point x="331" y="1456" type="line"/>
      <point x="331" y="471" type="line" smooth="yes"/>
      <point x="331" y="300"/>
      <point x="516" y="137"/>
      <point x="666" y="137" type="qcurve" smooth="yes"/>
      <point x="818" y="137"/>
      <point x="1002" y="300"/>
      <point x="1002" y="471" type="qcurve" smooth="yes"/>
    </contour>
  </outline>
</glyph>
<glyph name="uhorn" format="2">
  <advance width="1267"/>
  <unicode hex="01B0"/>
  <anchor x="563" y="0" name="Anchor-1"/>
  <anchor x="580" y="1269" name="Anchor-0"/>
  <outline>
    <contour>
      <point x="1154" y="1169" type="qcurve"/>
      <point x="1296" y="1169" type="line"/>
      <point x="1296" y="1009"/>
      <point x="1169" y="843"/>
      <point x="989" y="838" type="qcurve"/>
      <point x="989" y="0" type="line"/>
      <point x="812" y="0" type="line"/>
      <point x="808" y="107" type="line"/>
      <point x="758" y="47"/>
      <point x="602" y="-20"/>
      <point x="492" y="-20" type="qcurve" smooth="yes"/>
      <point x="333" y="-20"/>
      <point x="137" y="168"/>
      <point x="137" y="384" type="qcurve" smooth="yes"/>
      <point x="137" y="1082" type="line"/>
      <point x="322" y="1082" type="line"/>
      <point x="322" y="382" type="line" smooth="yes"/>
      <point x="322" y="285"/>
      <point x="379" y="178"/>
      <point x="471" y="137"/>
      <point x="521" y="137" type="qcurve" smooth="yes"/>
      <point x="634" y="137"/>
      <point x="770" y="223"/>
      <point x="803" y="294" type="qcurve"/>
      <point x="803" y="1082" type="line"/>
      <point x="989" y="1082" type="line"/>
      <point x="989" y="952" type="line"/>
      <point x="1069" y="955"/>
      <point x="1138" y="1002"/>
      <point x="1154" y="1096"/>
    </contour>
  </outline>
</glyph>
<glyph name="uni01B1" format="2">
  <advance width="1361"/>
  <unicode hex="01B1"/>
  <outline>
    <contour>
      <point x="318" y="729" type="qcurve" smooth="yes"/>
      <point x="318" y="613" type="line" smooth="yes"/>
      <point x="318" y="496"/>
      <point x="368" y="318"/>
      <point x="464" y="197"/>
      <point x="598" y="136"/>
      <point x="682" y="136" type="qcurve" smooth="yes"/>
      <point x="765" y="136"/>
      <point x="898" y="197"/>
      <point x="992" y="318"/>
      <point x="1042" y="496"/>
      <point x="1042" y="613" type="qcurve" smooth="yes"/>
      <point x="1042" y="729" type="line" smooth="yes"/>
      <point x="1042" y="857"/>
      <point x="999" y="1055"/>
      <point x="919" y="1196"/>
      <point x="809" y="1279"/>
      <point x="742" y="1292" type="qcurve"/>
      <point x="742" y="1433" type="line"/>
      <point x="850" y="1420"/>
      <point x="1031" y="1293"/>
      <point x="1164" y="1096"/>
      <point x="1237" y="856"/>
      <point x="1237" y="729" type="qcurve" smooth="yes"/>
      <point x="1237" y="615" type="line" smooth="yes"/>
      <point x="1237" y="473"/>
      <point x="1157" y="240"/>
      <point x="1010" y="71"/>
      <point x="806" y="-21"/>
      <point x="682" y="-21" type="qcurve" smooth="yes"/>
      <point x="558" y="-21"/>
      <point x="352" y="71"/>
      <point x="204" y="240"/>
      <point x="123" y="473"/>
      <point x="123" y="615" type="qcurve" smooth="yes"/>
      <point x="123" y="729" type="line" smooth="yes"/>
      <point x="123" y="855"/>
      <point x="196" y="1095"/>
      <point x="328" y="1292"/>
      <point x="508" y="1419"/>
      <point x="614" y="1433" type="qcurve"/>
      <point x="614" y="1292" type="line"/>
      <point x="548" y="1279"/>
      <point x="439" y="1195"/>
      <point x="360" y="1054"/>
      <point x="318" y="857"/>
    </contour>
    <contour>
      <point x="614" y="1456" type="line"/>
      <point x="614" y="1298" type="line"/>
      <point x="131" y="1298" type="line"/>
      <point x="131" y="1456" type="line"/>
    </contour>
    <contour>
      <point x="1233" y="1456" type="line"/>
      <point x="1233" y="1298" type="line"/>
      <point x="742" y="1298" type="line"/>
      <point x="742" y="1456" type="line"/>
    </contour>
  </outline>
</glyph>
<glyph name="uni01B2" format="2">
  <advance width="1337"/>
  <unicode hex="01B2"/>
  <outline>
    <contour>
      <point x="667" y="-20" type="qcurve" smooth="yes"/>
      <point x="519" y="-20"/>
      <point x="281" y="89"/>
      <point x="142" y="307"/>
      <point x="142" y="471" type="qcurve" smooth="yes"/>
      <point x="142" y="1456" type="line"/>
      <point x="332" y="1456" type="line"/>
      <point x="332" y="471" type="line" smooth="yes"/>
      <point x="332" y="357"/>
      <point x="417" y="209"/>
      <point x="568" y="137"/>
      <point x="667" y="137" type="qcurve" smooth="yes"/>
      <point x="768" y="137"/>
      <point x="919" y="209"/>
      <point x="1003" y="357"/>
      <point x="1003" y="471" type="qcurve" smooth="yes"/>
      <point x="1003" y="1128" type="line" smooth="yes"/>
      <point x="1003" y="1179"/>
      <point x="982" y="1250"/>
      <point x="940" y="1295"/>
      <point x="877" y="1316"/>
      <point x="834" y="1316" type="qcurve" smooth="yes"/>
      <point x="820" y="1316"/>
      <point x="782" y="1312"/>
      <point x="766" y="1307" type="qcurve"/>
      <point x="765" y="1459" type="line"/>
      <point x="789" y="1467"/>
      <point x="855" y="1476"/>
      <point x="881" y="1476" type="qcurve" smooth="yes"/>
      <point x="952" y="1476"/>
      <point x="1068" y="1431"/>
      <point x="1151" y="1342"/>
      <point x="1196" y="1212"/>
      <point x="1196" y="1128" type="qcurve" smooth="yes"/>
      <point x="1196" y="471" type="line" smooth="yes"/>
      <point x="1196" y="307"/>
      <point x="1049" y="89"/>
      <point x="809" y="-20"/>
    </contour>
  </outline>
</glyph>
<glyph name="uni01B3" format="2">
  <advance width="1328"/>
  <unicode hex="01B3"/>
  <outline>
    <contour>
      <point x="543" y="580" type="line"/>
      <point x="823" y="1123" type="line" smooth="yes"/>
      <point x="865" y="1207"/>
      <point x="938" y="1338"/>
      <point x="1015" y="1429"/>
      <point x="1108" y="1476"/>
      <point x="1169" y="1476" type="qcurve" smooth="yes"/>
      <point x="1231" y="1476"/>
      <point x="1340" y="1432"/>
      <point x="1381" y="1397" type="qcurve"/>
      <point x="1313" y="1265" type="line"/>
      <point x="1292" y="1280"/>
      <point x="1238" y="1301"/>
      <point x="1200" y="1301" type="qcurve" smooth="yes"/>
      <point x="1166" y="1301"/>
      <point x="1116" y="1270"/>
      <point x="1072" y="1206"/>
      <point x="1022" y="1108"/>
      <point x="986" y="1041" type="qcurve" smooth="yes"/>
      <point x="692" y="507" type="line"/>
      <point x="573" y="507" type="line"/>
    </contour>
    <contour>
      <point x="236" y="1456" type="line"/>
      <point x="686" y="577" type="line"/>
      <point x="648" y="507" type="line"/>
      <point x="537" y="507" type="line"/>
      <point x="15" y="1456" type="line"/>
    </contour>
    <contour>
      <point x="710" y="676" type="line"/>
      <point x="710" y="0" type="line"/>
      <point x="517" y="0" type="line"/>
      <point x="517" y="676" type="line"/>
    </contour>
  </outline>
</glyph>
<glyph name="uni01B4" format="2">
  <advance width="1216"/>
  <unicode hex="01B4"/>
  <outline>
    <contour>
      <point x="447" y="117" type="line"/>
      <point x="741" y="1047" type="line" smooth="yes"/>
      <point x="758" y="1098"/>
      <point x="801" y="1212"/>
      <point x="869" y="1311"/>
      <point x="976" y="1373"/>
      <point x="1057" y="1373" type="qcurve" smooth="yes"/>
      <point x="1113" y="1373"/>
      <point x="1216" y="1333"/>
      <point x="1253" y="1303" type="qcurve"/>
      <point x="1209" y="1187" type="line"/>
      <point x="1179" y="1204"/>
      <point x="1114" y="1228"/>
      <point x="1082" y="1228" type="qcurve" smooth="yes"/>
      <point x="1048" y="1228"/>
      <point x="997" y="1196"/>
      <point x="955" y="1135"/>
      <point x="918" y="1043"/>
      <point x="898" y="983" type="qcurve" smooth="yes"/>
      <point x="510" y="-167" type="line" smooth="yes"/>
      <point x="497" y="-207"/>
      <point x="448" y="-301"/>
      <point x="371" y="-384"/>
      <point x="262" y="-437"/>
      <point x="188" y="-437" type="qcurve" smooth="yes"/>
      <point x="167" y="-437"/>
      <point x="99" y="-425"/>
      <point x="85" y="-421" type="qcurve"/>
      <point x="84" y="-271" type="line"/>
      <point x="92" y="-272"/>
      <point x="127" y="-275"/>
      <point x="134" y="-275" type="qcurve" smooth="yes"/>
      <point x="196" y="-275"/>
      <point x="282" y="-242"/>
      <point x="344" y="-163"/>
      <point x="369" y="-94" type="qcurve" smooth="yes"/>
    </contour>
    <contour>
      <point x="224" y="1082" type="line"/>
      <point x="464" y="363" type="line"/>
      <point x="551" y="47" type="line"/>
      <point x="420" y="-21" type="line"/>
      <point x="22" y="1082" type="line"/>
    </contour>
  </outline>
</glyph>
<glyph name="uni01B8" format="2">
  <advance width="1319"/>
  <unicode hex="01B8"/>
  <outline>
    <contour>
      <point x="1045" y="64" type="qcurve"/>
      <point x="1238" y="64" type="line"/>
      <point x="1222" y="-72"/>
      <point x="1095" y="-291"/>
      <point x="863" y="-418"/>
      <point x="688" y="-418" type="qcurve" smooth="yes"/>
      <point x="561" y="-418"/>
      <point x="351" y="-351"/>
      <point x="200" y="-211"/>
      <point x="118" y="9"/>
      <point x="118" y="161" type="qcurve" smooth="yes"/>
      <point x="118" y="365"/>
      <point x="262" y="620"/>
      <point x="526" y="740"/>
      <point x="706" y="740" type="qcurve" smooth="yes"/>
      <point x="909" y="740" type="line"/>
      <point x="909" y="589" type="line"/>
      <point x="706" y="589" type="line" smooth="yes"/>
      <point x="608" y="589"/>
      <point x="460" y="542"/>
      <point x="361" y="441"/>
      <point x="311" y="278"/>
      <point x="311" y="161" type="qcurve" smooth="yes"/>
      <point x="311" y="54"/>
      <point x="355" y="-105"/>
      <point x="447" y="-209"/>
      <point x="590" y="-261"/>
      <point x="688" y="-261" type="qcurve" smooth="yes"/>
      <point x="813" y="-261"/>
      <point x="957" y="-185"/>
      <point x="1029" y="-40"/>
    </contour>
    <contour>
      <point x="844" y="589" type="line"/>
      <point x="196" y="1319" type="line"/>
      <point x="196" y="1456" type="line"/>
      <point x="283" y="1456" type="line"/>
      <point x="929" y="732" type="line"/>
      <point x="929" y="589" type="line"/>
    </contour>
    <contour>
      <point x="277" y="1298" type="line"/>
      <point x="277" y="1456" type="line"/>
      <point x="1205" y="1456" type="line"/>
      <point x="1205" y="1298" type="line"/>
    </contour>
  </outline>
</glyph>
<glyph name="uni01B9" format="2">
  <advance width="1156"/>
  <unicode hex="01B9"/>
  <outline>
    <contour>
      <point x="157" y="1082" type="line"/>
      <point x="1026" y="1082" type="line"/>
      <point x="1026" y="929" type="line"/>
      <point x="394" y="929" type="line"/>
      <point x="766" y="477" type="line"/>
      <point x="766" y="361" type="line"/>
      <point x="641" y="361" type="line"/>
      <point x="156" y="964" type="line"/>
    </contour>
    <contour>
      <point x="620" y="472" type="qcurve" smooth="yes"/>
      <point x="766" y="472" type="line"/>
      <point x="766" y="326" type="line"/>
      <point x="624" y="326" type="line" smooth="yes"/>
      <point x="465" y="326"/>
      <point x="295" y="186"/>
      <point x="295" y="27" type="qcurve" smooth="yes"/>
      <point x="295" y="-51"/>
      <point x="367" y="-173"/>
      <point x="502" y="-243"/>
      <point x="599" y="-243" type="qcurve" smooth="yes"/>
      <point x="685" y="-243"/>
      <point x="812" y="-169"/>
      <point x="883" y="-45"/>
      <point x="883" y="29" type="qcurve"/>
      <point x="1068" y="29" type="line"/>
      <point x="1068" y="-82"/>
      <point x="987" y="-243"/>
      <point x="852" y="-346"/>
      <point x="685" y="-395"/>
      <point x="599" y="-395" type="qcurve" smooth="yes"/>
      <point x="457" y="-395"/>
      <point x="236" y="-295"/>
      <point x="110" y="-104"/>
      <point x="110" y="31" type="qcurve" smooth="yes"/>
      <point x="110" y="173"/>
      <point x="231" y="370"/>
      <point x="459" y="472"/>
    </contour>
  </outline>
</glyph>
<glyph name="uni01BB" format="2">
  <advance width="1157"/>
  <unicode hex="01BB"/>
  <outline>
    <contour>
      <point x="1074" y="799" type="line"/>
      <point x="1074" y="648" type="line"/>
      <point x="298" y="648" type="line"/>
      <point x="298" y="799" type="line"/>
    </contour>
    <contour>
      <point x="1075" y="152" type="line"/>
      <point x="1075" y="0" type="line"/>
      <point x="122" y="0" type="line"/>
      <point x="122" y="133" type="line"/>
      <point x="599" y="664" type="line" smooth="yes"/>
      <point x="687" y="762"/>
      <point x="784" y="899"/>
      <point x="823" y="1008"/>
      <point x="823" y="1065" type="qcurve" smooth="yes"/>
      <point x="823" y="1137"/>
      <point x="764" y="1254"/>
      <point x="650" y="1324"/>
      <point x="569" y="1324" type="qcurve" smooth="yes"/>
      <point x="472" y="1324"/>
      <point x="343" y="1249"/>
      <point x="279" y="1115"/>
      <point x="279" y="1028" type="qcurve"/>
      <point x="94" y="1028" type="line"/>
      <point x="94" y="1151"/>
      <point x="202" y="1355"/>
      <point x="414" y="1476"/>
      <point x="569" y="1476" type="qcurve" smooth="yes"/>
      <point x="707" y="1476"/>
      <point x="903" y="1379"/>
      <point x="1008" y="1204"/>
      <point x="1008" y="1087" type="qcurve" smooth="yes"/>
      <point x="1008" y="1023"/>
      <point x="965" y="892"/>
      <point x="890" y="762"/>
      <point x="791" y="636"/>
      <point x="735" y="575" type="qcurve" smooth="yes"/>
      <point x="345" y="152" type="line"/>
    </contour>
  </outline>
</glyph>
<glyph name="uni01BD" format="2">
  <advance width="1027"/>
  <unicode hex="01BD"/>
  <outline>
    <contour>
      <point x="316" y="474" type="qcurve"/>
      <point x="159" y="487" type="line"/>
      <point x="227" y="1082" type="line"/>
      <point x="900" y="1082" type="line"/>
      <point x="900" y="920" type="line"/>
      <point x="384" y="920" type="line"/>
      <point x="351" y="671" type="line"/>
      <point x="375" y="687"/>
      <point x="445" y="716"/>
      <point x="529" y="735"/>
      <point x="572" y="736" type="qcurve" smooth="yes"/>
      <point x="692" y="738"/>
      <point x="863" y="650"/>
      <point x="955" y="482"/>
      <point x="955" y="362" type="qcurve" smooth="yes"/>
      <point x="955" y="255"/>
      <point x="869" y="84"/>
      <point x="682" y="-16"/>
      <point x="530" y="-16" type="qcurve" smooth="yes"/>
      <point x="461" y="-16"/>
      <point x="317" y="23"/>
      <point x="195" y="102"/>
      <point x="120" y="224"/>
      <point x="120" y="306" type="qcurve"/>
      <point x="298" y="321" type="line"/>
      <point x="298" y="237"/>
      <point x="428" y="135"/>
      <point x="530" y="135" type="qcurve" smooth="yes"/>
      <point x="615" y="135"/>
      <point x="720" y="193"/>
      <point x="770" y="294"/>
      <point x="770" y="360" type="qcurve" smooth="yes"/>
      <point x="770" y="427"/>
      <point x="718" y="528"/>
      <point x="615" y="585"/>
      <point x="539" y="585" type="qcurve" smooth="yes"/>
      <point x="448" y="585"/>
      <point x="345" y="518"/>
    </contour>
    <contour>
      <point x="333" y="1082" type="line"/>
      <point x="333" y="920" type="line"/>
      <point x="41" y="920" type="line"/>
      <point x="41" y="1082" type="line"/>
    </contour>
  </outline>
</glyph>
<glyph name="uni01BF" format="2">
  <advance width="1150"/>
  <unicode hex="01BF"/>
  <outline>
    <contour>
      <point x="326" y="874" type="line"/>
      <point x="326" y="-416" type="line"/>
      <point x="140" y="-416" type="line"/>
      <point x="140" y="1082" type="line"/>
      <point x="309" y="1082" type="line"/>
    </contour>
    <contour>
      <point x="277" y="659" type="qcurve"/>
      <point x="187" y="586" type="line"/>
      <point x="199" y="706"/>
      <point x="265" y="896"/>
      <point x="374" y="1031"/>
      <point x="530" y="1102"/>
      <point x="632" y="1102" type="qcurve" smooth="yes"/>
      <point x="734" y="1102"/>
      <point x="892" y="1024"/>
      <point x="1000" y="879"/>
      <point x="1055" y="678"/>
      <point x="1055" y="555" type="qcurve" smooth="yes"/>
      <point x="1055" y="534" type="line" smooth="yes"/>
      <point x="1055" y="378"/>
      <point x="945" y="155"/>
      <point x="738" y="-4"/>
      <point x="445" y="-121"/>
      <point x="263" y="-171" type="qcurve"/>
      <point x="263" y="-19" type="line"/>
      <point x="394" y="11"/>
      <point x="615" y="100"/>
      <point x="778" y="231"/>
      <point x="869" y="412"/>
      <point x="869" y="534" type="qcurve" smooth="yes"/>
      <point x="869" y="555" type="line" smooth="yes"/>
      <point x="869" y="635"/>
      <point x="835" y="776"/>
      <point x="764" y="884"/>
      <point x="654" y="946"/>
      <point x="578" y="946" type="qcurve" smooth="yes"/>
      <point x="508" y="946"/>
      <point x="405" y="898"/>
      <point x="333" y="817"/>
      <point x="288" y="714"/>
    </contour>
  </outline>
</glyph>
<glyph name="uni01C5" format="2">
  <advance width="2227"/>
  <unicode hex="01C5"/>
  <outline>
    <contour>
      <point x="2158" y="152" type="line"/>
      <point x="2158" y="0" type="line"/>
      <point x="1371" y="0" type="line"/>
      <point x="1371" y="152" type="line"/>
    </contour>
    <contour>
      <point x="2129" y="951" type="line"/>
      <point x="1413" y="0" type="line"/>
      <point x="1300" y="0" type="line"/>
      <point x="1300" y="136" type="line"/>
      <point x="2011" y="1082" type="line"/>
      <point x="2129" y="1082" type="line"/>
    </contour>
    <contour>
      <point x="2047" y="1082" type="line"/>
      <point x="2047" y="929" type="line"/>
      <point x="1309" y="929" type="line"/>
      <point x="1309" y="1082" type="line"/>
    </contour>
    <contour>
      <point x="1575" y="1515" type="line"/>
      <point x="1725" y="1365" type="line"/>
      <point x="1875" y="1515" type="line"/>
      <point x="2036" y="1515" type="line"/>
      <point x="2036" y="1497" type="line"/>
      <point x="1783" y="1252" type="line"/>
      <point x="1667" y="1252" type="line"/>
      <point x="1417" y="1494" type="line"/>
      <point x="1417" y="1515" type="line"/>
    </contour>
    <contour>
      <point x="563" y="0" type="qcurve" smooth="yes"/>
      <point x="259" y="0" type="line"/>
      <point x="261" y="157" type="line"/>
      <point x="563" y="157" type="line" smooth="yes"/>
      <point x="680" y="157"/>
      <point x="855" y="231"/>
      <point x="973" y="370"/>
      <point x="1032" y="564"/>
      <point x="1032" y="684" type="qcurve" smooth="yes"/>
      <point x="1032" y="773" type="line" smooth="yes"/>
      <point x="1032" y="898"/>
      <point x="972" y="1093"/>
      <point x="856" y="1228"/>
      <point x="689" y="1298"/>
      <point x="581" y="1298" type="qcurve" smooth="yes"/>
      <point x="253" y="1298" type="line"/>
      <point x="253" y="1456" type="line"/>
      <point x="581" y="1456" type="line" smooth="yes"/>
      <point x="724" y="1456"/>
      <point x="960" y="1361"/>
      <point x="1131" y="1182"/>
      <point x="1223" y="929"/>
      <point x="1223" y="771" type="qcurve" smooth="yes"/>
      <point x="1223" y="684" type="line" smooth="yes"/>
      <point x="1223" y="526"/>
      <point x="1131" y="273"/>
      <point x="958" y="95"/>
      <point x="715" y="0"/>
    </contour>
    <contour>
      <point x="362" y="1456" type="line"/>
      <point x="362" y="0" type="line"/>
      <point x="169" y="0" type="line"/>
      <point x="169" y="1456" type="line"/>
    </contour>
  </outline>
</glyph>
<glyph name="uni01E4" format="2">
  <advance width="1395"/>
  <unicode hex="01E4"/>
  <anchor x="672" y="1633" name="Anchor-5"/>
  <anchor x="674" y="-9" name="Anchor-2"/>
  <anchor x="1395" y="1633" name="Anchor-1"/>
  <anchor x="672" y="1633" name="Anchor-0"/>
  <outline>
    <contour>
      <point x="1393" y="481" type="line"/>
      <point x="1393" y="329" type="line"/>
      <point x="756" y="329" type="line"/>
      <point x="756" y="481" type="line"/>
    </contour>
    <contour>
      <point x="1245" y="725" type="line"/>
      <point x="1245" y="192" type="line"/>
      <point x="1218" y="152"/>
      <point x="1100" y="53"/>
      <point x="893" y="-20"/>
      <point x="730" y="-20" type="qcurve" smooth="yes"/>
      <point x="597" y="-20"/>
      <point x="374" y="73"/>
      <point x="211" y="252"/>
      <point x="122" y="509"/>
      <point x="122" y="672" type="qcurve" smooth="yes"/>
      <point x="122" y="785" type="line" smooth="yes"/>
      <point x="122" y="948"/>
      <point x="199" y="1204"/>
      <point x="349" y="1383"/>
      <point x="567" y="1476"/>
      <point x="708" y="1476" type="qcurve" smooth="yes"/>
      <point x="875" y="1476"/>
      <point x="1100" y="1361"/>
      <point x="1227" y="1159"/>
      <point x="1245" y="1030" type="qcurve"/>
      <point x="1052" y="1030" type="line"/>
      <point x="1039" y="1109"/>
      <point x="962" y="1239"/>
      <point x="820" y="1318"/>
      <point x="708" y="1318" type="qcurve" smooth="yes"/>
      <point x="607" y="1318"/>
      <point x="459" y="1244"/>
      <point x="363" y="1106"/>
      <point x="316" y="910"/>
      <point x="316" y="787" type="qcurve" smooth="yes"/>
      <point x="316" y="672" type="line" smooth="yes"/>
      <point x="316" y="571"/>
      <point x="354" y="404"/>
      <point x="426" y="273"/>
      <point x="528" y="184"/>
      <point x="656" y="137"/>
      <point x="731" y="137" type="qcurve" smooth="yes"/>
      <point x="834" y="137"/>
      <point x="962" y="172"/>
      <point x="1034" y="221"/>
      <point x="1053" y="243" type="qcurve"/>
      <point x="1053" y="569" type="line"/>
      <point x="716" y="569" type="line"/>
      <point x="716" y="725" type="line"/>
    </contour>
  </outline>
</glyph>
<glyph name="uni01E5" format="2">
  <advance width="1150"/>
  <unicode hex="01E5"/>
  <anchor x="573" y="-116" name="Anchor-8"/>
  <anchor x="569" y="1290" name="Anchor-5"/>
  <anchor x="567" y="-484" name="Anchor-2"/>
  <anchor x="1150" y="1290" name="Anchor-1"/>
  <anchor x="569" y="1290" name="Anchor-0"/>
  <outline>
    <contour>
      <point x="1138" y="-54" type="line"/>
      <point x="1138" y="-169" type="line"/>
      <point x="31" y="-169" type="line"/>
      <point x="31" y="-54" type="line"/>
    </contour>
    <contour>
      <point x="855" y="1082" type="line"/>
      <point x="1023" y="1082" type="line"/>
      <point x="1023" y="-41" type="line" smooth="yes"/>
      <point x="1023" y="-184"/>
      <point x="906" y="-386"/>
      <point x="700" y="-491"/>
      <point x="564" y="-491" type="qcurve" smooth="yes"/>
      <point x="508" y="-491"/>
      <point x="358" y="-456"/>
      <point x="213" y="-374"/>
      <point x="164" y="-304" type="qcurve"/>
      <point x="260" y="-193" type="line"/>
      <point x="328" y="-276"/>
      <point x="478" y="-340"/>
      <point x="551" y="-340" type="qcurve" smooth="yes"/>
      <point x="638" y="-340"/>
      <point x="766" y="-274"/>
      <point x="837" y="-144"/>
      <point x="837" y="-50" type="qcurve" smooth="yes"/>
      <point x="837" y="844" type="line"/>
    </contour>
    <contour>
      <point x="109" y="529" type="qcurve" smooth="yes"/>
      <point x="109" y="550" type="line" smooth="yes"/>
      <point x="109" y="674"/>
      <point x="168" y="877"/>
      <point x="280" y="1023"/>
      <point x="437" y="1102"/>
      <point x="536" y="1102" type="qcurve" smooth="yes"/>
      <point x="638" y="1102"/>
      <point x="791" y="1031"/>
      <point x="898" y="896"/>
      <point x="961" y="706"/>
      <point x="973" y="586" type="qcurve"/>
      <point x="973" y="494" type="line"/>
      <point x="962" y="375"/>
      <point x="899" y="185"/>
      <point x="792" y="51"/>
      <point x="637" y="-20"/>
      <point x="534" y="-20" type="qcurve" smooth="yes"/>
      <point x="437" y="-20"/>
      <point x="280" y="62"/>
      <point x="169" y="210"/>
      <point x="109" y="411"/>
    </contour>
    <contour>
      <point x="295" y="550" type="qcurve" smooth="yes"/>
      <point x="295" y="529" type="line" smooth="yes"/>
      <point x="295" y="448"/>
      <point x="328" y="306"/>
      <point x="397" y="198"/>
      <point x="505" y="137"/>
      <point x="580" y="137" type="qcurve" smooth="yes"/>
      <point x="672" y="137"/>
      <point x="792" y="215"/>
      <point x="863" y="343"/>
      <point x="883" y="418" type="qcurve"/>
      <point x="883" y="659" type="line"/>
      <point x="871" y="714"/>
      <point x="827" y="817"/>
      <point x="755" y="898"/>
      <point x="652" y="946"/>
      <point x="582" y="946" type="qcurve" smooth="yes"/>
      <point x="506" y="946"/>
      <point x="397" y="883"/>
      <point x="328" y="774"/>
      <point x="295" y="631"/>
    </contour>
  </outline>
</glyph>
<glyph name="uni01F6" format="2">
  <advance width="2234"/>
  <unicode hex="01F6"/>
  <outline>
    <contour>
      <point x="1120" y="830" type="line"/>
      <point x="1120" y="673" type="line"/>
      <point x="332" y="673" type="line"/>
      <point x="332" y="830" type="line"/>
    </contour>
    <contour>
      <point x="362" y="1456" type="line"/>
      <point x="362" y="0" type="line"/>
      <point x="169" y="0" type="line"/>
      <point x="169" y="1456" type="line"/>
    </contour>
    <contour>
      <point x="1288" y="1456" type="line"/>
      <point x="1288" y="500" type="line"/>
      <point x="1096" y="500" type="line"/>
      <point x="1096" y="1456" type="line"/>
    </contour>
    <contour>
      <point x="1906" y="1081" type="line"/>
      <point x="2098" y="1081" type="line"/>
      <point x="2098" y="465" type="line" smooth="yes"/>
      <point x="2098" y="304"/>
      <point x="1964" y="88"/>
      <point x="1736" y="-20"/>
      <point x="1596" y="-20" type="qcurve" smooth="yes"/>
      <point x="1449" y="-20"/>
      <point x="1223" y="88"/>
      <point x="1096" y="304"/>
      <point x="1096" y="465" type="qcurve" smooth="yes"/>
      <point x="1096" y="565" type="line"/>
      <point x="1288" y="565" type="line"/>
      <point x="1288" y="465" type="line" smooth="yes"/>
      <point x="1288" y="381"/>
      <point x="1328" y="258"/>
      <point x="1407" y="177"/>
      <point x="1522" y="137"/>
      <point x="1596" y="137" type="qcurve" smooth="yes"/>
      <point x="1696" y="137"/>
      <point x="1834" y="208"/>
      <point x="1906" y="354"/>
      <point x="1906" y="465" type="qcurve" smooth="yes"/>
    </contour>
  </outline>
</glyph>
<glyph name="uni021C" format="2">
  <advance width="1229"/>
  <unicode hex="021C"/>
  <outline>
    <contour>
      <point x="187" y="329" type="qcurve"/>
      <point x="186" y="474" type="line"/>
      <point x="325" y="516"/>
      <point x="553" y="604"/>
      <point x="728" y="703"/>
      <point x="847" y="823"/>
      <point x="908" y="971"/>
      <point x="908" y="1065" type="qcurve" smooth="yes"/>
      <point x="908" y="1134"/>
      <point x="841" y="1249"/>
      <point x="698" y="1319"/>
      <point x="584" y="1319" type="qcurve" smooth="yes"/>
      <point x="503" y="1319"/>
      <point x="368" y="1257"/>
      <point x="286" y="1147"/>
      <point x="286" y="1073" type="qcurve"/>
      <point x="93" y="1073" type="line"/>
      <point x="93" y="1166"/>
      <point x="170" y="1315"/>
      <point x="306" y="1420"/>
      <point x="484" y="1476"/>
      <point x="584" y="1476" type="qcurve" smooth="yes"/>
      <point x="703" y="1476"/>
      <point x="893" y="1423"/>
      <point x="1029" y="1319"/>
      <point x="1101" y="1163"/>
      <point x="1101" y="1061" type="qcurve" smooth="yes"/>
      <point x="1101" y="957"/>
      <point x="1014" y="772"/>
      <point x="851" y="612"/>
      <point x="625" y="478"/>
      <point x="347" y="370"/>
    </contour>
    <contour>
      <point x="764" y="636" type="qcurve"/>
      <point x="859" y="744" type="line"/>
      <point x="942" y="715"/>
      <point x="1060" y="606"/>
      <point x="1123" y="441"/>
      <point x="1123" y="327" type="qcurve" smooth="yes"/>
      <point x="1123" y="186"/>
      <point x="1033" y="-31"/>
      <point x="867" y="-193"/>
      <point x="635" y="-314"/>
      <point x="350" y="-402"/>
      <point x="187" y="-437" type="qcurve"/>
      <point x="187" y="-280" type="line"/>
      <point x="362" y="-242"/>
      <point x="637" y="-142"/>
      <point x="829" y="-1"/>
      <point x="930" y="196"/>
      <point x="930" y="329" type="qcurve" smooth="yes"/>
      <point x="930" y="419"/>
      <point x="894" y="541"/>
      <point x="820" y="616"/>
    </contour>
  </outline>
</glyph>
<glyph name="uni021D" format="2">
  <advance width="1030"/>
  <unicode hex="021D"/>
  <outline>
    <contour>
      <point x="167" y="214" type="qcurve"/>
      <point x="166" y="354" type="line"/>
      <point x="243" y="374"/>
      <point x="399" y="427"/>
      <point x="540" y="497"/>
      <point x="651" y="589"/>
      <point x="715" y="710"/>
      <point x="715" y="786" type="qcurve" smooth="yes"/>
      <point x="715" y="829"/>
      <point x="672" y="904"/>
      <point x="577" y="951"/>
      <point x="498" y="951" type="qcurve" smooth="yes"/>
      <point x="435" y="951"/>
      <point x="331" y="906"/>
      <point x="269" y="829"/>
      <point x="269" y="781" type="qcurve"/>
      <point x="85" y="781" type="line"/>
      <point x="85" y="880"/>
      <point x="198" y="1023"/>
      <point x="386" y="1101"/>
      <point x="498" y="1101" type="qcurve" smooth="yes"/>
      <point x="592" y="1101"/>
      <point x="741" y="1060"/>
      <point x="845" y="981"/>
      <point x="900" y="864"/>
      <point x="900" y="787" type="qcurve" smooth="yes"/>
      <point x="900" y="699"/>
      <point x="823" y="546"/>
      <point x="684" y="417"/>
      <point x="499" y="314"/>
      <point x="283" y="238"/>
    </contour>
    <contour>
      <point x="597" y="454" type="qcurve"/>
      <point x="697" y="550" type="line"/>
      <point x="770" y="522"/>
      <point x="869" y="416"/>
      <point x="920" y="275"/>
      <point x="920" y="192" type="qcurve" smooth="yes"/>
      <point x="920" y="80"/>
      <point x="857" y="-100"/>
      <point x="733" y="-240"/>
      <point x="551" y="-345"/>
      <point x="313" y="-416"/>
      <point x="167" y="-437" type="qcurve"/>
      <point x="167" y="-288" type="line"/>
      <point x="296" y="-259"/>
      <point x="505" y="-181"/>
      <point x="654" y="-71"/>
      <point x="734" y="84"/>
      <point x="734" y="191" type="qcurve" smooth="yes"/>
      <point x="734" y="255"/>
      <point x="704" y="361"/>
      <point x="643" y="437"/>
    </contour>
  </outline>
</glyph>
<glyph name="uni0223" format="2">
  <advance width="1331"/>
  <unicode hex="0223"/>
  <outline>
    <contour>
      <point x="653" y="874" type="qcurve" smooth="yes"/>
      <point x="677" y="874" type="line" smooth="yes"/>
      <point x="794" y="874"/>
      <point x="995" y="818"/>
      <point x="1144" y="708"/>
      <point x="1227" y="543"/>
      <point x="1227" y="433" type="qcurve" smooth="yes"/>
      <point x="1227" y="281"/>
      <point x="1082" y="79"/>
      <point x="834" y="-21"/>
      <point x="677" y="-21" type="qcurve" smooth="yes"/>
      <point x="653" y="-21" type="line" smooth="yes"/>
      <point x="536" y="-21"/>
      <point x="336" y="35"/>
      <point x="187" y="148"/>
      <point x="104" y="317"/>
      <point x="104" y="431" type="qcurve" smooth="yes"/>
      <point x="104" y="578"/>
      <point x="248" y="775"/>
      <point x="496" y="874"/>
    </contour>
    <contour>
      <point x="677" y="733" type="qcurve" smooth="yes"/>
      <point x="653" y="733" type="line" smooth="yes"/>
      <point x="546" y="733"/>
      <point x="382" y="667"/>
      <point x="290" y="533"/>
      <point x="290" y="431" type="qcurve" smooth="yes"/>
      <point x="290" y="355"/>
      <point x="343" y="243"/>
      <point x="439" y="168"/>
      <point x="572" y="131"/>
      <point x="653" y="131" type="qcurve" smooth="yes"/>
      <point x="677" y="131" type="line" smooth="yes"/>
      <point x="784" y="131"/>
      <point x="948" y="197"/>
      <point x="1041" y="331"/>
      <point x="1041" y="433" type="qcurve" smooth="yes"/>
      <point x="1041" y="509"/>
      <point x="988" y="621"/>
      <point x="891" y="696"/>
      <point x="757" y="733"/>
    </contour>
    <contour>
      <point x="686" y="884" type="line" smooth="yes"/>
      <point x="781" y="884"/>
      <point x="943" y="929"/>
      <point x="1041" y="1044"/>
      <point x="1041" y="1148" type="qcurve" smooth="yes"/>
      <point x="1041" y="1258"/>
      <point x="939" y="1381"/>
      <point x="838" y="1416" type="qcurve"/>
      <point x="838" y="1557" type="line"/>
      <point x="948" y="1552"/>
      <point x="1124" y="1454"/>
      <point x="1227" y="1275"/>
      <point x="1227" y="1148" type="qcurve" smooth="yes"/>
      <point x="1227" y="1036"/>
      <point x="1141" y="881"/>
      <point x="990" y="786"/>
      <point x="795" y="743"/>
      <point x="686" y="743" type="qcurve" smooth="yes"/>
      <point x="644" y="743" type="line" smooth="yes"/>
      <point x="535" y="743"/>
      <point x="340" y="786"/>
      <point x="190" y="881"/>
      <point x="104" y="1036"/>
      <point x="104" y="1148" type="qcurve" smooth="yes"/>
      <point x="104" y="1275"/>
      <point x="207" y="1454"/>
      <point x="385" y="1552"/>
      <point x="496" y="1557" type="qcurve"/>
      <point x="496" y="1416" type="line"/>
      <point x="395" y="1381"/>
      <point x="290" y="1258"/>
      <point x="290" y="1148" type="qcurve" smooth="yes"/>
      <point x="290" y="1070"/>
      <point x="347" y="967"/>
      <point x="446" y="908"/>
      <point x="573" y="884"/>
      <point x="644" y="884" type="qcurve" smooth="yes"/>
    </contour>
  </outline>
</glyph>
<glyph name="uni0224" format="2">
  <advance width="1251"/>
  <unicode hex="0224"/>
  <outline>
    <contour>
      <point x="1114" y="1316" type="line"/>
      <point x="206" y="0" type="line"/>
      <point x="87" y="0" type="line"/>
      <point x="87" y="144" type="line"/>
      <point x="994" y="1456" type="line"/>
      <point x="1114" y="1456" type="line"/>
    </contour>
    <contour>
      <point x="1032" y="1456" type="line"/>
      <point x="1032" y="1298" type="line"/>
      <point x="100" y="1298" type="line"/>
      <point x="100" y="1456" type="line"/>
    </contour>
    <contour>
      <point x="1197" y="-247" type="qcurve"/>
      <point x="1044" y="-246" type="line"/>
      <point x="1049" y="-231"/>
      <point x="1053" y="-193"/>
      <point x="1053" y="-179" type="qcurve" smooth="yes"/>
      <point x="1053" y="-124"/>
      <point x="1018" y="-44"/>
      <point x="937" y="0"/>
      <point x="866" y="0" type="qcurve" smooth="yes"/>
      <point x="160" y="0" type="line"/>
      <point x="160" y="157" type="line"/>
      <point x="866" y="157" type="line" smooth="yes"/>
      <point x="979" y="157"/>
      <point x="1134" y="92"/>
      <point x="1214" y="-37"/>
      <point x="1214" y="-132" type="qcurve" smooth="yes"/>
      <point x="1214" y="-157"/>
      <point x="1205" y="-224"/>
    </contour>
  </outline>
</glyph>
<glyph name="uni0225" format="2">
  <advance width="1051"/>
  <unicode hex="0225"/>
  <outline>
    <contour>
      <point x="640" y="152" type="line"/>
      <point x="640" y="0" type="line"/>
      <point x="160" y="0" type="line"/>
      <point x="160" y="152" type="line"/>
    </contour>
    <contour>
      <point x="918" y="951" type="line"/>
      <point x="202" y="0" type="line"/>
      <point x="89" y="0" type="line"/>
      <point x="89" y="136" type="line"/>
      <point x="800" y="1082" type="line"/>
      <point x="918" y="1082" type="line"/>
    </contour>
    <contour>
      <point x="836" y="1082" type="line"/>
      <point x="836" y="929" type="line"/>
      <point x="97" y="929" type="line"/>
      <point x="97" y="1082" type="line"/>
    </contour>
    <contour>
      <point x="501" y="0" type="line"/>
      <point x="501" y="152" type="line"/>
      <point x="658" y="152" type="line" smooth="yes"/>
      <point x="771" y="152"/>
      <point x="926" y="99"/>
      <point x="1006" y="-13"/>
      <point x="1006" y="-104" type="qcurve" smooth="yes"/>
      <point x="1006" y="-130"/>
      <point x="996" y="-196"/>
      <point x="988" y="-220" type="qcurve"/>
      <point x="842" y="-219" type="line"/>
      <point x="847" y="-204"/>
      <point x="851" y="-165"/>
      <point x="851" y="-152" type="qcurve" smooth="yes"/>
      <point x="851" y="-101"/>
      <point x="813" y="-34"/>
      <point x="729" y="0"/>
      <point x="658" y="0" type="qcurve" smooth="yes"/>
    </contour>
  </outline>
</glyph>
<glyph name="uni0234" format="2">
  <advance width="876"/>
  <unicode hex="0234"/>
  <outline>
    <contour>
      <point x="239" y="226" type="qcurve"/>
      <point x="239" y="226"/>
      <point x="277" y="226"/>
      <point x="332" y="226"/>
      <point x="387" y="226"/>
      <point x="425" y="226"/>
      <point x="425" y="226" type="qcurve"/>
      <point x="425" y="226"/>
      <point x="425" y="159"/>
      <point x="425" y="56"/>
      <point x="425" y="-55"/>
      <point x="425" y="-145"/>
      <point x="425" y="-164" type="qcurve" smooth="yes"/>
      <point x="425" y="-198"/>
      <point x="451" y="-253"/>
      <point x="508" y="-285"/>
      <point x="552" y="-285" type="qcurve" smooth="yes"/>
      <point x="602" y="-285"/>
      <point x="661" y="-221"/>
      <point x="661" y="-174" type="qcurve" smooth="yes"/>
      <point x="661" y="-127"/>
      <point x="599" y="-63"/>
      <point x="544" y="-63" type="qcurve" smooth="yes"/>
      <point x="501" y="-63"/>
      <point x="415" y="-105"/>
      <point x="325" y="-182"/>
      <point x="275" y="-235" type="qcurve" smooth="yes"/>
      <point x="130" y="-395" type="line"/>
      <point x="130" y="-395"/>
      <point x="97" y="-361"/>
      <point x="53" y="-318"/>
      <point x="20" y="-284"/>
      <point x="20" y="-284" type="qcurve"/>
      <point x="248" y="-46" type="line"/>
      <point x="323" y="15"/>
      <point x="478" y="89"/>
      <point x="566" y="89" type="qcurve" smooth="yes"/>
      <point x="645" y="89"/>
      <point x="772" y="28"/>
      <point x="846" y="-89"/>
      <point x="846" y="-174" type="qcurve" smooth="yes"/>
      <point x="846" y="-250"/>
      <point x="772" y="-369"/>
      <point x="640" y="-437"/>
      <point x="551" y="-437" type="qcurve" smooth="yes"/>
      <point x="436" y="-437"/>
      <point x="299" y="-348"/>
      <point x="239" y="-204"/>
      <point x="239" y="-123" type="qcurve" smooth="yes"/>
      <point x="239" y="-123"/>
      <point x="239" y="-53"/>
      <point x="239" y="51"/>
      <point x="239" y="156"/>
      <point x="239" y="226"/>
    </contour>
    <contour>
      <point x="425" y="1536" type="line"/>
      <point x="425" y="0" type="line"/>
      <point x="239" y="0" type="line"/>
      <point x="239" y="1536" type="line"/>
    </contour>
  </outline>
</glyph>
<glyph name="uni0238" format="2">
  <advance width="1835"/>
  <unicode hex="0238"/>
  <outline>
    <contour>
      <point x="1740" y="550" type="qcurve" smooth="yes"/>
      <point x="1740" y="529" type="line" smooth="yes"/>
      <point x="1740" y="411"/>
      <point x="1684" y="210"/>
      <point x="1576" y="62"/>
      <point x="1420" y="-20"/>
      <point x="1319" y="-20" type="qcurve" smooth="yes"/>
      <point x="1216" y="-20"/>
      <point x="1061" y="51"/>
      <point x="955" y="185"/>
      <point x="892" y="375"/>
      <point x="880" y="494" type="qcurve"/>
      <point x="880" y="586" type="line"/>
      <point x="892" y="706"/>
      <point x="955" y="896"/>
      <point x="1061" y="1031"/>
      <point x="1215" y="1102"/>
      <point x="1317" y="1102" type="qcurve" smooth="yes"/>
      <point x="1419" y="1102"/>
      <point x="1577" y="1023"/>
      <point x="1684" y="877"/>
      <point x="1740" y="674"/>
    </contour>
    <contour>
      <point x="1554" y="529" type="qcurve" smooth="yes"/>
      <point x="1554" y="550" type="line" smooth="yes"/>
      <point x="1554" y="631"/>
      <point x="1524" y="774"/>
      <point x="1458" y="883"/>
      <point x="1350" y="946"/>
      <point x="1271" y="946" type="qcurve" smooth="yes"/>
      <point x="1201" y="946"/>
      <point x="1098" y="898"/>
      <point x="1026" y="817"/>
      <point x="981" y="714"/>
      <point x="970" y="659" type="qcurve"/>
      <point x="970" y="418" type="line"/>
      <point x="982" y="365"/>
      <point x="1028" y="265"/>
      <point x="1101" y="184"/>
      <point x="1204" y="137"/>
      <point x="1273" y="137" type="qcurve" smooth="yes"/>
      <point x="1348" y="137"/>
      <point x="1454" y="198"/>
      <point x="1522" y="306"/>
      <point x="1554" y="448"/>
    </contour>
    <contour>
      <point x="823" y="210" type="line"/>
      <point x="823" y="1536" type="line"/>
      <point x="1009" y="1536" type="line"/>
      <point x="1009" y="0" type="line"/>
      <point x="839" y="0" type="line"/>
    </contour>
    <contour>
      <point x="95" y="529" type="qcurve" smooth="yes"/>
      <point x="95" y="550" type="line" smooth="yes"/>
      <point x="95" y="674"/>
      <point x="156" y="877"/>
      <point x="269" y="1023"/>
      <point x="426" y="1102"/>
      <point x="523" y="1102" type="qcurve" smooth="yes"/>
      <point x="625" y="1102"/>
      <point x="778" y="1031"/>
      <point x="885" y="896"/>
      <point x="947" y="706"/>
      <point x="959" y="586" type="qcurve"/>
      <point x="959" y="494" type="line"/>
      <point x="948" y="375"/>
      <point x="885" y="185"/>
      <point x="778" y="51"/>
      <point x="624" y="-20"/>
      <point x="521" y="-20" type="qcurve" smooth="yes"/>
      <point x="426" y="-20"/>
      <point x="269" y="62"/>
      <point x="156" y="210"/>
      <point x="95" y="411"/>
    </contour>
    <contour>
      <point x="281" y="550" type="qcurve" smooth="yes"/>
      <point x="281" y="529" type="line" smooth="yes"/>
      <point x="281" y="448"/>
      <point x="314" y="306"/>
      <point x="384" y="198"/>
      <point x="492" y="137"/>
      <point x="567" y="137" type="qcurve" smooth="yes"/>
      <point x="659" y="137"/>
      <point x="778" y="215"/>
      <point x="850" y="343"/>
      <point x="870" y="418" type="qcurve"/>
      <point x="870" y="659" type="line"/>
      <point x="858" y="714"/>
      <point x="813" y="817"/>
      <point x="742" y="898"/>
      <point x="639" y="946"/>
      <point x="569" y="946" type="qcurve" smooth="yes"/>
      <point x="493" y="946"/>
      <point x="384" y="883"/>
      <point x="314" y="774"/>
      <point x="281" y="631"/>
    </contour>
  </outline>
</glyph>
<glyph name="uni0239" format="2">
  <advance width="1833"/>
  <unicode hex="0239"/>
  <outline>
    <contour>
      <point x="822" y="-416" type="line"/>
      <point x="822" y="874" type="line"/>
      <point x="838" y="1082" type="line"/>
      <point x="992" y="1082" type="line"/>
      <point x="1008" y="874" type="line"/>
      <point x="1008" y="-416" type="line"/>
    </contour>
    <contour>
      <point x="95" y="529" type="qcurve" smooth="yes"/>
      <point x="95" y="550" type="line" smooth="yes"/>
      <point x="95" y="674"/>
      <point x="153" y="877"/>
      <point x="265" y="1023"/>
      <point x="424" y="1102"/>
      <point x="526" y="1102" type="qcurve" smooth="yes"/>
      <point x="628" y="1102"/>
      <point x="783" y="1031"/>
      <point x="892" y="896"/>
      <point x="956" y="706"/>
      <point x="968" y="586" type="qcurve"/>
      <point x="968" y="494" type="line"/>
      <point x="957" y="375"/>
      <point x="893" y="185"/>
      <point x="784" y="51"/>
      <point x="627" y="-20"/>
      <point x="524" y="-20" type="qcurve" smooth="yes"/>
      <point x="424" y="-20"/>
      <point x="265" y="62"/>
      <point x="154" y="210"/>
      <point x="95" y="411"/>
    </contour>
    <contour>
      <point x="281" y="550" type="qcurve" smooth="yes"/>
      <point x="281" y="529" type="line" smooth="yes"/>
      <point x="281" y="448"/>
      <point x="315" y="305"/>
      <point x="386" y="195"/>
      <point x="495" y="132"/>
      <point x="570" y="132" type="qcurve" smooth="yes"/>
      <point x="662" y="132"/>
      <point x="785" y="212"/>
      <point x="859" y="343"/>
      <point x="879" y="418" type="qcurve"/>
      <point x="879" y="659" type="line"/>
      <point x="868" y="714"/>
      <point x="821" y="818"/>
      <point x="747" y="901"/>
      <point x="642" y="950"/>
      <point x="572" y="950" type="qcurve" smooth="yes"/>
      <point x="496" y="950"/>
      <point x="386" y="886"/>
      <point x="315" y="775"/>
      <point x="281" y="631"/>
    </contour>
    <contour>
      <point x="1738" y="550" type="qcurve" smooth="yes"/>
      <point x="1738" y="529" type="line" smooth="yes"/>
      <point x="1738" y="411"/>
      <point x="1682" y="210"/>
      <point x="1575" y="62"/>
      <point x="1419" y="-20"/>
      <point x="1318" y="-20" type="qcurve" smooth="yes"/>
      <point x="1215" y="-20"/>
      <point x="1057" y="48"/>
      <point x="947" y="178"/>
      <point x="881" y="360"/>
      <point x="870" y="474" type="qcurve"/>
      <point x="870" y="586" type="line"/>
      <point x="882" y="706"/>
      <point x="948" y="896"/>
      <point x="1057" y="1031"/>
      <point x="1213" y="1102"/>
      <point x="1315" y="1102" type="qcurve" smooth="yes"/>
      <point x="1417" y="1102"/>
      <point x="1575" y="1023"/>
      <point x="1683" y="877"/>
      <point x="1738" y="674"/>
    </contour>
    <contour>
      <point x="1552" y="529" type="qcurve" smooth="yes"/>
      <point x="1552" y="550" type="line" smooth="yes"/>
      <point x="1552" y="631"/>
      <point x="1518" y="774"/>
      <point x="1447" y="883"/>
      <point x="1337" y="946"/>
      <point x="1261" y="946" type="qcurve" smooth="yes"/>
      <point x="1191" y="946"/>
      <point x="1088" y="898"/>
      <point x="1016" y="817"/>
      <point x="971" y="714"/>
      <point x="960" y="659" type="qcurve"/>
      <point x="960" y="400" type="line"/>
      <point x="975" y="347"/>
      <point x="1022" y="251"/>
      <point x="1093" y="176"/>
      <point x="1194" y="132"/>
      <point x="1263" y="132" type="qcurve" smooth="yes"/>
      <point x="1338" y="132"/>
      <point x="1447" y="195"/>
      <point x="1518" y="305"/>
      <point x="1552" y="448"/>
    </contour>
  </outline>
</glyph>
<glyph name="uni023F" format="2">
  <advance width="1057"/>
  <unicode hex="023F"/>
  <outline>
    <contour>
      <point x="772" y="287" type="qcurve" smooth="yes"/>
      <point x="772" y="333"/>
      <point x="730" y="401"/>
      <point x="624" y="453"/>
      <point x="528" y="473" type="qcurve" smooth="yes"/>
      <point x="437" y="493"/>
      <point x="292" y="545"/>
      <point x="189" y="617"/>
      <point x="134" y="717"/>
      <point x="134" y="786" type="qcurve" smooth="yes"/>
      <point x="134" y="850"/>
      <point x="190" y="964"/>
      <point x="295" y="1052"/>
      <point x="443" y="1102"/>
      <point x="534" y="1102" type="qcurve" smooth="yes"/>
      <point x="664" y="1102"/>
      <point x="848" y="1010"/>
      <point x="947" y="857"/>
      <point x="947" y="764" type="qcurve"/>
      <point x="761" y="764" type="line"/>
      <point x="761" y="809"/>
      <point x="708" y="894"/>
      <point x="607" y="950"/>
      <point x="534" y="950" type="qcurve" smooth="yes"/>
      <point x="457" y="950"/>
      <point x="362" y="903"/>
      <point x="319" y="831"/>
      <point x="319" y="791" type="qcurve" smooth="yes"/>
      <point x="319" y="749"/>
      <point x="359" y="694"/>
      <point x="431" y="659"/>
      <point x="526" y="633"/>
      <point x="580" y="621" type="qcurve" smooth="yes"/>
      <point x="698" y="594"/>
      <point x="866" y="513"/>
      <point x="957" y="390"/>
      <point x="957" y="301" type="qcurve" smooth="yes"/>
      <point x="957" y="230"/>
      <point x="898" y="112"/>
      <point x="788" y="27"/>
      <point x="635" y="-20"/>
      <point x="540" y="-20" type="qcurve" smooth="yes"/>
      <point x="500" y="-20"/>
      <point x="432" y="-13"/>
      <point x="402" y="-7" type="qcurve"/>
      <point x="441" y="-82"/>
      <point x="500" y="-190"/>
      <point x="551" y="-258"/>
      <point x="602" y="-290"/>
      <point x="633" y="-290" type="qcurve" smooth="yes"/>
      <point x="674" y="-290"/>
      <point x="746" y="-249"/>
      <point x="770" y="-226" type="qcurve"/>
      <point x="834" y="-336" type="line"/>
      <point x="802" y="-370"/>
      <point x="690" y="-437"/>
      <point x="630" y="-437" type="qcurve" smooth="yes"/>
      <point x="583" y="-437"/>
      <point x="503" y="-405"/>
      <point x="432" y="-343"/>
      <point x="365" y="-253"/>
      <point x="332" y="-194" type="qcurve" smooth="yes"/>
      <point x="90" y="240" type="line"/>
      <point x="220" y="315" type="line"/>
      <point x="276" y="213"/>
      <point x="453" y="131"/>
      <point x="540" y="131" type="qcurve" smooth="yes"/>
      <point x="616" y="131"/>
      <point x="719" y="172"/>
      <point x="772" y="242"/>
    </contour>
  </outline>
</glyph>
